<ttFont>
    <TTGlyph name="A" xMin="-12" yMin="-8" xMax="634" yMax="653">
      <contour>
        <pt x="627" y="-3" on="1"/>
        <pt x="548" y="0" on="0"/>
        <pt x="507" y="0" on="1"/>
        <pt x="427" y="0" on="0"/>
        <pt x="335" y="-8" on="1"/>
        <pt x="329" y="0" on="1"/>
        <pt x="334" y="60" on="1"/>
        <pt x="383" y="64" on="0"/>
        <pt x="411" y="78" on="0"/>
        <pt x="411" y="107" on="0"/>
        <pt x="406" y="130" on="1"/>
        <pt x="386" y="206" on="1"/>
        <pt x="360" y="207" on="0"/>
        <pt x="256" y="207" on="0"/>
        <pt x="200" y="200" on="1"/>
        <pt x="175" y="125" on="1"/>
        <pt x="169" y="104" on="0"/>
        <pt x="169" y="77" on="0"/>
        <pt x="189" y="64" on="0"/>
        <pt x="215" y="64" on="1"/>
        <pt x="258" y="64" on="1"/>
        <pt x="262" y="57" on="1"/>
        <pt x="255" y="-6" on="1"/>
        <pt x="173" y="0" on="0"/>
        <pt x="109" y="0" on="1"/>
        <pt x="-12" y="-3" on="1"/>
        <pt x="-4" y="64" on="1"/>
        <pt x="20" y="68" on="0"/>
        <pt x="49" y="97" on="0"/>
        <pt x="61" y="130" on="1"/>
        <pt x="239" y="637" on="1"/>
        <pt x="398" y="653" on="1"/>
        <pt x="409" y="648" on="1"/>
        <pt x="499" y="301" on="0"/>
        <pt x="552" y="132" on="1"/>
        <pt x="563" y="96" on="0"/>
        <pt x="597" y="66" on="0"/>
        <pt x="630" y="63" on="1"/>
        <pt x="634" y="56" on="1"/>
      </contour>
      <contour>
        <pt x="294" y="286" on="1"/>
        <pt x="326" y="286" on="0"/>
        <pt x="368" y="290" on="1"/>
        <pt x="310" y="510" on="1"/>
        <pt x="296" y="510" on="1"/>
        <pt x="224" y="286" on="1"/>
      </contour>
    </TTGlyph>
    <TTGlyph name="AE" xMin="-4" yMin="-8" xMax="848" yMax="654">
      <contour>
        <pt x="370" y="64" on="0"/>
        <pt x="402" y="83" on="0"/>
        <pt x="402" y="102" on="1"/>
        <pt x="402" y="126" on="0"/>
        <pt x="386" y="249" on="1"/>
        <pt x="299" y="238" on="1"/>
        <pt x="215" y="222" on="1"/>
        <pt x="170" y="125" on="1"/>
        <pt x="159" y="100" on="0"/>
        <pt x="159" y="74" on="0"/>
        <pt x="182" y="64" on="0"/>
        <pt x="214" y="64" on="1"/>
        <pt x="247" y="59" on="1"/>
        <pt x="241" y="-6" on="1"/>
        <pt x="240" y="-5" on="0"/>
        <pt x="182" y="-3" on="0"/>
        <pt x="101" y="0" on="0"/>
        <pt x="75" y="0" on="1"/>
        <pt x="1" y="-3" on="1"/>
        <pt x="-4" y="57" on="1"/>
        <pt x="6" y="59" on="0"/>
        <pt x="41" y="100" on="0"/>
        <pt x="56" y="130" on="1"/>
        <pt x="264" y="555" on="1"/>
        <pt x="260" y="577" on="0"/>
        <pt x="239" y="577" on="1"/>
        <pt x="208" y="575" on="1"/>
        <pt x="202" y="584" on="1"/>
        <pt x="210" y="645" on="1"/>
        <pt x="321" y="642" on="0"/>
        <pt x="688" y="642" on="0"/>
        <pt x="772" y="654" on="1"/>
        <pt x="780" y="643" on="1"/>
        <pt x="762" y="554" on="0"/>
        <pt x="757" y="461" on="1"/>
        <pt x="666" y="455" on="1"/>
        <pt x="668" y="481" on="0"/>
        <pt x="668" y="495" on="1"/>
        <pt x="668" y="536" on="0"/>
        <pt x="624" y="558" on="0"/>
        <pt x="505" y="558" on="0"/>
        <pt x="487" y="548" on="0"/>
        <pt x="486" y="531" on="1"/>
        <pt x="512" y="349" on="1"/>
        <pt x="608" y="361" on="1"/>
        <pt x="704" y="380" on="1"/>
        <pt x="715" y="370" on="1"/>
        <pt x="702" y="286" on="1"/>
        <pt x="611" y="279" on="1"/>
        <pt x="523" y="269" on="1"/>
        <pt x="543" y="146" on="1"/>
        <pt x="549" y="110" on="0"/>
        <pt x="582" y="78" on="0"/>
        <pt x="613" y="78" on="1"/>
        <pt x="697" y="78" on="0"/>
        <pt x="746" y="118" on="0"/>
        <pt x="756" y="193" on="1"/>
        <pt x="841" y="200" on="1"/>
        <pt x="848" y="190" on="1"/>
        <pt x="830" y="100" on="0"/>
        <pt x="820" y="4" on="1"/>
        <pt x="811" y="-7" on="1"/>
        <pt x="601" y="0" on="0"/>
        <pt x="517" y="0" on="1"/>
        <pt x="479" y="0" on="1"/>
        <pt x="408" y="0" on="0"/>
        <pt x="320" y="-8" on="1"/>
        <pt x="315" y="0" on="1"/>
        <pt x="319" y="60" on="1"/>
      </contour>
      <contour>
        <pt x="252" y="317" on="1"/>
        <pt x="317" y="321" on="1"/>
        <pt x="379" y="329" on="1"/>
        <pt x="356" y="510" on="1"/>
        <pt x="341" y="510" on="1"/>
      </contour>
    </TTGlyph>
    <TTGlyph name="AEacute" xMin="-4" yMin="-8" xMax="848" yMax="912">
      <contour>
        <pt x="370" y="64" on="0"/>
        <pt x="402" y="83" on="0"/>
        <pt x="402" y="102" on="1"/>
        <pt x="402" y="126" on="0"/>
        <pt x="386" y="249" on="1"/>
        <pt x="299" y="238" on="1"/>
        <pt x="215" y="222" on="1"/>
        <pt x="170" y="125" on="1"/>
        <pt x="159" y="100" on="0"/>
        <pt x="159" y="74" on="0"/>
        <pt x="182" y="64" on="0"/>
        <pt x="214" y="64" on="1"/>
        <pt x="247" y="59" on="1"/>
        <pt x="241" y="-6" on="1"/>
        <pt x="240" y="-5" on="0"/>
        <pt x="182" y="-3" on="0"/>
        <pt x="101" y="0" on="0"/>
        <pt x="75" y="0" on="1"/>
        <pt x="1" y="-3" on="1"/>
        <pt x="-4" y="57" on="1"/>
        <pt x="6" y="59" on="0"/>
        <pt x="41" y="100" on="0"/>
        <pt x="56" y="130" on="1"/>
        <pt x="264" y="555" on="1"/>
        <pt x="260" y="577" on="0"/>
        <pt x="239" y="577" on="1"/>
        <pt x="208" y="575" on="1"/>
        <pt x="202" y="584" on="1"/>
        <pt x="210" y="645" on="1"/>
        <pt x="321" y="642" on="0"/>
        <pt x="688" y="642" on="0"/>
        <pt x="772" y="654" on="1"/>
        <pt x="780" y="643" on="1"/>
        <pt x="762" y="554" on="0"/>
        <pt x="757" y="461" on="1"/>
        <pt x="666" y="455" on="1"/>
        <pt x="668" y="481" on="0"/>
        <pt x="668" y="495" on="1"/>
        <pt x="668" y="536" on="0"/>
        <pt x="624" y="558" on="0"/>
        <pt x="505" y="558" on="0"/>
        <pt x="487" y="548" on="0"/>
        <pt x="486" y="531" on="1"/>
        <pt x="512" y="349" on="1"/>
        <pt x="608" y="361" on="1"/>
        <pt x="704" y="380" on="1"/>
        <pt x="715" y="370" on="1"/>
        <pt x="702" y="286" on="1"/>
        <pt x="611" y="279" on="1"/>
        <pt x="523" y="269" on="1"/>
        <pt x="543" y="146" on="1"/>
        <pt x="549" y="110" on="0"/>
        <pt x="582" y="78" on="0"/>
        <pt x="613" y="78" on="1"/>
        <pt x="697" y="78" on="0"/>
        <pt x="746" y="118" on="0"/>
        <pt x="756" y="193" on="1"/>
        <pt x="841" y="200" on="1"/>
        <pt x="848" y="190" on="1"/>
        <pt x="830" y="100" on="0"/>
        <pt x="820" y="4" on="1"/>
        <pt x="811" y="-7" on="1"/>
        <pt x="601" y="0" on="0"/>
        <pt x="517" y="0" on="1"/>
        <pt x="479" y="0" on="1"/>
        <pt x="408" y="0" on="0"/>
        <pt x="320" y="-8" on="1"/>
        <pt x="315" y="0" on="1"/>
        <pt x="319" y="60" on="1"/>
      </contour>
      <contour>
        <pt x="252" y="317" on="1"/>
        <pt x="317" y="321" on="1"/>
        <pt x="379" y="329" on="1"/>
        <pt x="356" y="510" on="1"/>
        <pt x="341" y="510" on="1"/>
      </contour>
      <contour>
        <pt x="653" y="841" on="1"/>
        <pt x="652" y="827" on="1"/>
        <pt x="556" y="767" on="0"/>
        <pt x="463" y="698" on="1"/>
        <pt x="448" y="702" on="1"/>
        <pt x="418" y="741" on="1"/>
        <pt x="522" y="845" on="0"/>
        <pt x="585" y="912" on="1"/>
        <pt x="599" y="911" on="1"/>
      </contour>
    </TTGlyph>
    <TTGlyph name="Aacute" xMin="-12" yMin="-8" xMax="634" yMax="857">
      <contour>
        <pt x="627" y="-3" on="1"/>
        <pt x="548" y="0" on="0"/>
        <pt x="507" y="0" on="1"/>
        <pt x="427" y="0" on="0"/>
        <pt x="335" y="-8" on="1"/>
        <pt x="329" y="0" on="1"/>
        <pt x="334" y="60" on="1"/>
        <pt x="383" y="64" on="0"/>
        <pt x="411" y="78" on="0"/>
        <pt x="411" y="107" on="0"/>
        <pt x="406" y="130" on="1"/>
        <pt x="386" y="206" on="1"/>
        <pt x="360" y="207" on="0"/>
        <pt x="256" y="207" on="0"/>
        <pt x="200" y="200" on="1"/>
        <pt x="175" y="125" on="1"/>
        <pt x="169" y="104" on="0"/>
        <pt x="169" y="77" on="0"/>
        <pt x="189" y="64" on="0"/>
        <pt x="215" y="64" on="1"/>
        <pt x="258" y="64" on="1"/>
        <pt x="262" y="57" on="1"/>
        <pt x="255" y="-6" on="1"/>
        <pt x="173" y="0" on="0"/>
        <pt x="109" y="0" on="1"/>
        <pt x="-12" y="-3" on="1"/>
        <pt x="-4" y="64" on="1"/>
        <pt x="20" y="68" on="0"/>
        <pt x="49" y="97" on="0"/>
        <pt x="61" y="130" on="1"/>
        <pt x="239" y="637" on="1"/>
        <pt x="398" y="653" on="1"/>
        <pt x="409" y="648" on="1"/>
        <pt x="499" y="301" on="0"/>
        <pt x="552" y="132" on="1"/>
        <pt x="563" y="96" on="0"/>
        <pt x="597" y="66" on="0"/>
        <pt x="630" y="63" on="1"/>
        <pt x="634" y="56" on="1"/>
      </contour>
      <contour>
        <pt x="294" y="286" on="1"/>
        <pt x="326" y="286" on="0"/>
        <pt x="368" y="290" on="1"/>
        <pt x="310" y="510" on="1"/>
        <pt x="296" y="510" on="1"/>
        <pt x="224" y="286" on="1"/>
      </contour>
      <contour>
        <pt x="491" y="775" on="1"/>
        <pt x="485" y="762" on="1"/>
        <pt x="370" y="733" on="0"/>
        <pt x="256" y="697" on="1"/>
        <pt x="243" y="706" on="1"/>
        <pt x="230" y="753" on="1"/>
        <pt x="453" y="857" on="1"/>
        <pt x="465" y="852" on="1"/>
      </contour>
    </TTGlyph>
    <TTGlyph name="Abreve" xMin="-12" yMin="-8" xMax="634" yMax="848">
      <contour>
        <pt x="627" y="-3" on="1"/>
        <pt x="548" y="0" on="0"/>
        <pt x="507" y="0" on="1"/>
        <pt x="427" y="0" on="0"/>
        <pt x="335" y="-8" on="1"/>
        <pt x="329" y="0" on="1"/>
        <pt x="334" y="60" on="1"/>
        <pt x="383" y="64" on="0"/>
        <pt x="411" y="78" on="0"/>
        <pt x="411" y="107" on="0"/>
        <pt x="406" y="130" on="1"/>
        <pt x="386" y="206" on="1"/>
        <pt x="360" y="207" on="0"/>
        <pt x="256" y="207" on="0"/>
        <pt x="200" y="200" on="1"/>
        <pt x="175" y="125" on="1"/>
        <pt x="169" y="104" on="0"/>
        <pt x="169" y="77" on="0"/>
        <pt x="189" y="64" on="0"/>
        <pt x="215" y="64" on="1"/>
        <pt x="258" y="64" on="1"/>
        <pt x="262" y="57" on="1"/>
        <pt x="255" y="-6" on="1"/>
        <pt x="173" y="0" on="0"/>
        <pt x="109" y="0" on="1"/>
        <pt x="-12" y="-3" on="1"/>
        <pt x="-4" y="64" on="1"/>
        <pt x="20" y="68" on="0"/>
        <pt x="49" y="97" on="0"/>
        <pt x="61" y="130" on="1"/>
        <pt x="239" y="637" on="1"/>
        <pt x="398" y="653" on="1"/>
        <pt x="409" y="648" on="1"/>
        <pt x="499" y="301" on="0"/>
        <pt x="552" y="132" on="1"/>
        <pt x="563" y="96" on="0"/>
        <pt x="597" y="66" on="0"/>
        <pt x="630" y="63" on="1"/>
        <pt x="634" y="56" on="1"/>
      </contour>
      <contour>
        <pt x="294" y="286" on="1"/>
        <pt x="326" y="286" on="0"/>
        <pt x="368" y="290" on="1"/>
        <pt x="310" y="510" on="1"/>
        <pt x="296" y="510" on="1"/>
        <pt x="224" y="286" on="1"/>
      </contour>
      <contour>
        <pt x="241" y="788" on="0"/>
        <pt x="393" y="788" on="0"/>
        <pt x="420" y="848" on="1"/>
        <pt x="437" y="844" on="1"/>
        <pt x="465" y="809" on="1"/>
        <pt x="450" y="759" on="0"/>
        <pt x="376" y="693" on="0"/>
        <pt x="258" y="693" on="0"/>
        <pt x="184" y="759" on="0"/>
        <pt x="169" y="809" on="1"/>
        <pt x="197" y="844" on="1"/>
        <pt x="214" y="848" on="1"/>
      </contour>
    </TTGlyph>
    <TTGlyph name="Acircumflex" xMin="-12" yMin="-8" xMax="634" yMax="876">
      <contour>
        <pt x="627" y="-3" on="1"/>
        <pt x="548" y="0" on="0"/>
        <pt x="507" y="0" on="1"/>
        <pt x="427" y="0" on="0"/>
        <pt x="335" y="-8" on="1"/>
        <pt x="329" y="0" on="1"/>
        <pt x="334" y="60" on="1"/>
        <pt x="383" y="64" on="0"/>
        <pt x="411" y="78" on="0"/>
        <pt x="411" y="107" on="0"/>
        <pt x="406" y="130" on="1"/>
        <pt x="386" y="206" on="1"/>
        <pt x="360" y="207" on="0"/>
        <pt x="256" y="207" on="0"/>
        <pt x="200" y="200" on="1"/>
        <pt x="175" y="125" on="1"/>
        <pt x="169" y="104" on="0"/>
        <pt x="169" y="77" on="0"/>
        <pt x="189" y="64" on="0"/>
        <pt x="215" y="64" on="1"/>
        <pt x="258" y="64" on="1"/>
        <pt x="262" y="57" on="1"/>
        <pt x="255" y="-6" on="1"/>
        <pt x="173" y="0" on="0"/>
        <pt x="109" y="0" on="1"/>
        <pt x="-12" y="-3" on="1"/>
        <pt x="-4" y="64" on="1"/>
        <pt x="20" y="68" on="0"/>
        <pt x="49" y="97" on="0"/>
        <pt x="61" y="130" on="1"/>
        <pt x="239" y="637" on="1"/>
        <pt x="398" y="653" on="1"/>
        <pt x="409" y="648" on="1"/>
        <pt x="499" y="301" on="0"/>
        <pt x="552" y="132" on="1"/>
        <pt x="563" y="96" on="0"/>
        <pt x="597" y="66" on="0"/>
        <pt x="630" y="63" on="1"/>
        <pt x="634" y="56" on="1"/>
      </contour>
      <contour>
        <pt x="294" y="286" on="1"/>
        <pt x="326" y="286" on="0"/>
        <pt x="368" y="290" on="1"/>
        <pt x="310" y="510" on="1"/>
        <pt x="296" y="510" on="1"/>
        <pt x="224" y="286" on="1"/>
      </contour>
      <contour>
        <pt x="328" y="876" on="1"/>
        <pt x="328" y="877" on="0"/>
        <pt x="454" y="776" on="0"/>
        <pt x="485" y="752" on="1"/>
        <pt x="461" y="711" on="1"/>
        <pt x="445" y="707" on="1"/>
        <pt x="395" y="732" on="0"/>
        <pt x="318" y="765" on="1"/>
        <pt x="270" y="745" on="0"/>
        <pt x="192" y="707" on="1"/>
        <pt x="176" y="711" on="1"/>
        <pt x="151" y="752" on="1"/>
        <pt x="224" y="805" on="0"/>
        <pt x="308" y="876" on="1"/>
      </contour>
    </TTGlyph>
    <TTGlyph name="Adieresis" xMin="-12" yMin="-8" xMax="634" yMax="834">
      <contour>
        <pt x="627" y="-3" on="1"/>
        <pt x="548" y="0" on="0"/>
        <pt x="507" y="0" on="1"/>
        <pt x="427" y="0" on="0"/>
        <pt x="335" y="-8" on="1"/>
        <pt x="329" y="0" on="1"/>
        <pt x="334" y="60" on="1"/>
        <pt x="383" y="64" on="0"/>
        <pt x="411" y="78" on="0"/>
        <pt x="411" y="107" on="0"/>
        <pt x="406" y="130" on="1"/>
        <pt x="386" y="206" on="1"/>
        <pt x="360" y="207" on="0"/>
        <pt x="256" y="207" on="0"/>
        <pt x="200" y="200" on="1"/>
        <pt x="175" y="125" on="1"/>
        <pt x="169" y="104" on="0"/>
        <pt x="169" y="77" on="0"/>
        <pt x="189" y="64" on="0"/>
        <pt x="215" y="64" on="1"/>
        <pt x="258" y="64" on="1"/>
        <pt x="262" y="57" on="1"/>
        <pt x="255" y="-6" on="1"/>
        <pt x="173" y="0" on="0"/>
        <pt x="109" y="0" on="1"/>
        <pt x="-12" y="-3" on="1"/>
        <pt x="-4" y="64" on="1"/>
        <pt x="20" y="68" on="0"/>
        <pt x="49" y="97" on="0"/>
        <pt x="61" y="130" on="1"/>
        <pt x="239" y="637" on="1"/>
        <pt x="398" y="653" on="1"/>
        <pt x="409" y="648" on="1"/>
        <pt x="499" y="301" on="0"/>
        <pt x="552" y="132" on="1"/>
        <pt x="563" y="96" on="0"/>
        <pt x="597" y="66" on="0"/>
        <pt x="630" y="63" on="1"/>
        <pt x="634" y="56" on="1"/>
      </contour>
      <contour>
        <pt x="294" y="286" on="1"/>
        <pt x="326" y="286" on="0"/>
        <pt x="368" y="290" on="1"/>
        <pt x="310" y="510" on="1"/>
        <pt x="296" y="510" on="1"/>
        <pt x="224" y="286" on="1"/>
      </contour>
      <contour>
        <pt x="470" y="744" on="0"/>
        <pt x="433" y="706" on="0"/>
        <pt x="374" y="706" on="0"/>
        <pt x="343" y="739" on="0"/>
        <pt x="343" y="796" on="0"/>
        <pt x="380" y="834" on="0"/>
        <pt x="439" y="834" on="0"/>
        <pt x="470" y="801" on="0"/>
      </contour>
      <contour>
        <pt x="292" y="744" on="0"/>
        <pt x="255" y="706" on="0"/>
        <pt x="196" y="706" on="0"/>
        <pt x="165" y="739" on="0"/>
        <pt x="165" y="796" on="0"/>
        <pt x="202" y="834" on="0"/>
        <pt x="260" y="834" on="0"/>
        <pt x="292" y="801" on="0"/>
      </contour>
    </TTGlyph>
    <TTGlyph name="Agrave" xMin="-12" yMin="-8" xMax="634" yMax="857">
      <contour>
        <pt x="627" y="-3" on="1"/>
        <pt x="548" y="0" on="0"/>
        <pt x="507" y="0" on="1"/>
        <pt x="427" y="0" on="0"/>
        <pt x="335" y="-8" on="1"/>
        <pt x="329" y="0" on="1"/>
        <pt x="334" y="60" on="1"/>
        <pt x="383" y="64" on="0"/>
        <pt x="411" y="78" on="0"/>
        <pt x="411" y="107" on="0"/>
        <pt x="406" y="130" on="1"/>
        <pt x="386" y="206" on="1"/>
        <pt x="360" y="207" on="0"/>
        <pt x="256" y="207" on="0"/>
        <pt x="200" y="200" on="1"/>
        <pt x="175" y="125" on="1"/>
        <pt x="169" y="104" on="0"/>
        <pt x="169" y="77" on="0"/>
        <pt x="189" y="64" on="0"/>
        <pt x="215" y="64" on="1"/>
        <pt x="258" y="64" on="1"/>
        <pt x="262" y="57" on="1"/>
        <pt x="255" y="-6" on="1"/>
        <pt x="173" y="0" on="0"/>
        <pt x="109" y="0" on="1"/>
        <pt x="-12" y="-3" on="1"/>
        <pt x="-4" y="64" on="1"/>
        <pt x="20" y="68" on="0"/>
        <pt x="49" y="97" on="0"/>
        <pt x="61" y="130" on="1"/>
        <pt x="239" y="637" on="1"/>
        <pt x="398" y="653" on="1"/>
        <pt x="409" y="648" on="1"/>
        <pt x="499" y="301" on="0"/>
        <pt x="552" y="132" on="1"/>
        <pt x="563" y="96" on="0"/>
        <pt x="597" y="66" on="0"/>
        <pt x="630" y="63" on="1"/>
        <pt x="634" y="56" on="1"/>
      </contour>
      <contour>
        <pt x="294" y="286" on="1"/>
        <pt x="326" y="286" on="0"/>
        <pt x="368" y="290" on="1"/>
        <pt x="310" y="510" on="1"/>
        <pt x="296" y="510" on="1"/>
        <pt x="224" y="286" on="1"/>
      </contour>
      <contour>
        <pt x="169" y="762" on="1"/>
        <pt x="164" y="775" on="1"/>
        <pt x="190" y="852" on="1"/>
        <pt x="202" y="857" on="1"/>
        <pt x="317" y="800" on="0"/>
        <pt x="425" y="753" on="1"/>
        <pt x="412" y="706" on="1"/>
        <pt x="398" y="697" on="1"/>
        <pt x="276" y="735" on="0"/>
      </contour>
    </TTGlyph>
    <TTGlyph name="Amacron" xMin="-12" yMin="-8" xMax="634" yMax="800">
      <contour>
        <pt x="627" y="-3" on="1"/>
        <pt x="548" y="0" on="0"/>
        <pt x="507" y="0" on="1"/>
        <pt x="427" y="0" on="0"/>
        <pt x="335" y="-8" on="1"/>
        <pt x="329" y="0" on="1"/>
        <pt x="334" y="60" on="1"/>
        <pt x="383" y="64" on="0"/>
        <pt x="411" y="78" on="0"/>
        <pt x="411" y="107" on="0"/>
        <pt x="406" y="130" on="1"/>
        <pt x="386" y="206" on="1"/>
        <pt x="360" y="207" on="0"/>
        <pt x="256" y="207" on="0"/>
        <pt x="200" y="200" on="1"/>
        <pt x="175" y="125" on="1"/>
        <pt x="169" y="104" on="0"/>
        <pt x="169" y="77" on="0"/>
        <pt x="189" y="64" on="0"/>
        <pt x="215" y="64" on="1"/>
        <pt x="258" y="64" on="1"/>
        <pt x="262" y="57" on="1"/>
        <pt x="255" y="-6" on="1"/>
        <pt x="173" y="0" on="0"/>
        <pt x="109" y="0" on="1"/>
        <pt x="-12" y="-3" on="1"/>
        <pt x="-4" y="64" on="1"/>
        <pt x="20" y="68" on="0"/>
        <pt x="49" y="97" on="0"/>
        <pt x="61" y="130" on="1"/>
        <pt x="239" y="637" on="1"/>
        <pt x="398" y="653" on="1"/>
        <pt x="409" y="648" on="1"/>
        <pt x="499" y="301" on="0"/>
        <pt x="552" y="132" on="1"/>
        <pt x="563" y="96" on="0"/>
        <pt x="597" y="66" on="0"/>
        <pt x="630" y="63" on="1"/>
        <pt x="634" y="56" on="1"/>
      </contour>
      <contour>
        <pt x="294" y="286" on="1"/>
        <pt x="326" y="286" on="0"/>
        <pt x="368" y="290" on="1"/>
        <pt x="310" y="510" on="1"/>
        <pt x="296" y="510" on="1"/>
        <pt x="224" y="286" on="1"/>
      </contour>
      <contour>
        <pt x="463" y="800" on="1"/>
        <pt x="471" y="786" on="1"/>
        <pt x="459" y="709" on="1"/>
        <pt x="179" y="707" on="1"/>
        <pt x="168" y="719" on="1"/>
        <pt x="182" y="795" on="1"/>
        <pt x="277" y="794" on="0"/>
        <pt x="336" y="794" on="1"/>
      </contour>
    </TTGlyph>
    <TTGlyph name="Aogonek" xMin="-12" yMin="-241" xMax="634" yMax="653">
      <contour>
        <pt x="477" y="-241" on="0"/>
        <pt x="412" y="-192" on="0"/>
        <pt x="412" y="-118" on="0"/>
        <pt x="456" y="-49" on="0"/>
        <pt x="503" y="0" on="1"/>
        <pt x="427" y="0" on="0"/>
        <pt x="335" y="-8" on="1"/>
        <pt x="329" y="0" on="1"/>
        <pt x="334" y="60" on="1"/>
        <pt x="383" y="64" on="0"/>
        <pt x="411" y="78" on="0"/>
        <pt x="411" y="107" on="0"/>
        <pt x="406" y="130" on="1"/>
        <pt x="386" y="206" on="1"/>
        <pt x="360" y="207" on="0"/>
        <pt x="256" y="207" on="0"/>
        <pt x="200" y="200" on="1"/>
        <pt x="175" y="125" on="1"/>
        <pt x="169" y="104" on="0"/>
        <pt x="169" y="77" on="0"/>
        <pt x="189" y="64" on="0"/>
        <pt x="215" y="64" on="1"/>
        <pt x="258" y="64" on="1"/>
        <pt x="262" y="57" on="1"/>
        <pt x="255" y="-6" on="1"/>
        <pt x="173" y="0" on="0"/>
        <pt x="109" y="0" on="1"/>
        <pt x="-12" y="-3" on="1"/>
        <pt x="-4" y="64" on="1"/>
        <pt x="20" y="68" on="0"/>
        <pt x="49" y="97" on="0"/>
        <pt x="61" y="130" on="1"/>
        <pt x="239" y="637" on="1"/>
        <pt x="398" y="653" on="1"/>
        <pt x="409" y="648" on="1"/>
        <pt x="499" y="301" on="0"/>
        <pt x="552" y="132" on="1"/>
        <pt x="563" y="96" on="0"/>
        <pt x="597" y="66" on="0"/>
        <pt x="630" y="63" on="1"/>
        <pt x="634" y="56" on="1"/>
        <pt x="627" y="-3" on="1"/>
        <pt x="595" y="-1" on="0"/>
        <pt x="562" y="0" on="1"/>
        <pt x="523" y="-47" on="0"/>
        <pt x="493" y="-99" on="0"/>
        <pt x="493" y="-143" on="0"/>
        <pt x="521" y="-170" on="0"/>
        <pt x="540" y="-170" on="1"/>
        <pt x="575" y="-170" on="0"/>
        <pt x="615" y="-146" on="1"/>
        <pt x="633" y="-175" on="1"/>
        <pt x="581" y="-224" on="0"/>
        <pt x="531" y="-241" on="1"/>
      </contour>
      <contour>
        <pt x="294" y="286" on="1"/>
        <pt x="326" y="286" on="0"/>
        <pt x="368" y="290" on="1"/>
        <pt x="310" y="510" on="1"/>
        <pt x="296" y="510" on="1"/>
        <pt x="224" y="286" on="1"/>
      </contour>
    </TTGlyph>
    <TTGlyph name="Aring" xMin="-12" yMin="-8" xMax="634" yMax="864">
      <contour>
        <pt x="627" y="-3" on="1"/>
        <pt x="548" y="0" on="0"/>
        <pt x="507" y="0" on="1"/>
        <pt x="427" y="0" on="0"/>
        <pt x="335" y="-8" on="1"/>
        <pt x="329" y="0" on="1"/>
        <pt x="334" y="60" on="1"/>
        <pt x="383" y="64" on="0"/>
        <pt x="411" y="78" on="0"/>
        <pt x="411" y="107" on="0"/>
        <pt x="406" y="130" on="1"/>
        <pt x="386" y="206" on="1"/>
        <pt x="360" y="207" on="0"/>
        <pt x="256" y="207" on="0"/>
        <pt x="200" y="200" on="1"/>
        <pt x="175" y="125" on="1"/>
        <pt x="169" y="104" on="0"/>
        <pt x="169" y="77" on="0"/>
        <pt x="189" y="64" on="0"/>
        <pt x="215" y="64" on="1"/>
        <pt x="258" y="64" on="1"/>
        <pt x="262" y="57" on="1"/>
        <pt x="255" y="-6" on="1"/>
        <pt x="173" y="0" on="0"/>
        <pt x="109" y="0" on="1"/>
        <pt x="-12" y="-3" on="1"/>
        <pt x="-4" y="64" on="1"/>
        <pt x="20" y="68" on="0"/>
        <pt x="49" y="97" on="0"/>
        <pt x="61" y="130" on="1"/>
        <pt x="239" y="637" on="1"/>
        <pt x="398" y="653" on="1"/>
        <pt x="409" y="648" on="1"/>
        <pt x="499" y="301" on="0"/>
        <pt x="552" y="132" on="1"/>
        <pt x="563" y="96" on="0"/>
        <pt x="597" y="66" on="0"/>
        <pt x="630" y="63" on="1"/>
        <pt x="634" y="56" on="1"/>
      </contour>
      <contour>
        <pt x="294" y="286" on="1"/>
        <pt x="326" y="286" on="0"/>
        <pt x="368" y="290" on="1"/>
        <pt x="310" y="510" on="1"/>
        <pt x="296" y="510" on="1"/>
        <pt x="224" y="286" on="1"/>
      </contour>
      <contour>
        <pt x="320" y="731" on="1"/>
        <pt x="360" y="731" on="0"/>
        <pt x="360" y="767" on="1"/>
        <pt x="360" y="786" on="0"/>
        <pt x="336" y="809" on="0"/>
        <pt x="314" y="809" on="1"/>
        <pt x="275" y="809" on="0"/>
        <pt x="275" y="773" on="1"/>
        <pt x="275" y="752" on="0"/>
        <pt x="303" y="731" on="0"/>
      </contour>
      <contour>
        <pt x="410" y="736" on="0"/>
        <pt x="357" y="678" on="0"/>
        <pt x="271" y="678" on="0"/>
        <pt x="225" y="728" on="0"/>
        <pt x="225" y="810" on="0"/>
        <pt x="278" y="864" on="0"/>
        <pt x="366" y="864" on="0"/>
        <pt x="410" y="814" on="0"/>
      </contour>
    </TTGlyph>
    <TTGlyph name="Aringacute" xMin="-12" yMin="-8" xMax="634" yMax="977">
      <contour>
        <pt x="627" y="-3" on="1"/>
        <pt x="548" y="0" on="0"/>
        <pt x="507" y="0" on="1"/>
        <pt x="427" y="0" on="0"/>
        <pt x="335" y="-8" on="1"/>
        <pt x="329" y="0" on="1"/>
        <pt x="334" y="60" on="1"/>
        <pt x="383" y="64" on="0"/>
        <pt x="411" y="78" on="0"/>
        <pt x="411" y="107" on="0"/>
        <pt x="406" y="130" on="1"/>
        <pt x="386" y="206" on="1"/>
        <pt x="360" y="207" on="0"/>
        <pt x="256" y="207" on="0"/>
        <pt x="200" y="200" on="1"/>
        <pt x="175" y="125" on="1"/>
        <pt x="169" y="104" on="0"/>
        <pt x="169" y="77" on="0"/>
        <pt x="189" y="64" on="0"/>
        <pt x="215" y="64" on="1"/>
        <pt x="258" y="64" on="1"/>
        <pt x="262" y="57" on="1"/>
        <pt x="255" y="-6" on="1"/>
        <pt x="173" y="0" on="0"/>
        <pt x="109" y="0" on="1"/>
        <pt x="-12" y="-3" on="1"/>
        <pt x="-4" y="64" on="1"/>
        <pt x="20" y="68" on="0"/>
        <pt x="49" y="97" on="0"/>
        <pt x="61" y="130" on="1"/>
        <pt x="239" y="637" on="1"/>
        <pt x="398" y="653" on="1"/>
        <pt x="409" y="648" on="1"/>
        <pt x="499" y="301" on="0"/>
        <pt x="552" y="132" on="1"/>
        <pt x="563" y="96" on="0"/>
        <pt x="597" y="66" on="0"/>
        <pt x="630" y="63" on="1"/>
        <pt x="634" y="56" on="1"/>
      </contour>
      <contour>
        <pt x="294" y="286" on="1"/>
        <pt x="326" y="286" on="0"/>
        <pt x="368" y="290" on="1"/>
        <pt x="310" y="510" on="1"/>
        <pt x="296" y="510" on="1"/>
        <pt x="224" y="286" on="1"/>
      </contour>
      <contour>
        <pt x="328" y="721" on="1"/>
        <pt x="364" y="721" on="0"/>
        <pt x="364" y="753" on="1"/>
        <pt x="364" y="791" on="0"/>
        <pt x="287" y="791" on="0"/>
        <pt x="287" y="759" on="1"/>
        <pt x="287" y="740" on="0"/>
        <pt x="313" y="721" on="0"/>
      </contour>
      <contour>
        <pt x="409" y="726" on="0"/>
        <pt x="362" y="673" on="0"/>
        <pt x="284" y="673" on="0"/>
        <pt x="242" y="717" on="0"/>
        <pt x="242" y="792" on="0"/>
        <pt x="290" y="841" on="0"/>
        <pt x="370" y="841" on="0"/>
        <pt x="409" y="795" on="0"/>
      </contour>
      <contour>
        <pt x="449" y="903" on="1"/>
        <pt x="444" y="892" on="1"/>
        <pt x="340" y="866" on="0"/>
        <pt x="238" y="833" on="1"/>
        <pt x="226" y="841" on="1"/>
        <pt x="214" y="884" on="1"/>
        <pt x="415" y="977" on="1"/>
        <pt x="426" y="973" on="1"/>
      </contour>
    </TTGlyph>
    <TTGlyph name="Atilde" xMin="-12" yMin="-8" xMax="634" yMax="853">
      <contour>
        <pt x="627" y="-3" on="1"/>
        <pt x="548" y="0" on="0"/>
        <pt x="507" y="0" on="1"/>
        <pt x="427" y="0" on="0"/>
        <pt x="335" y="-8" on="1"/>
        <pt x="329" y="0" on="1"/>
        <pt x="334" y="60" on="1"/>
        <pt x="383" y="64" on="0"/>
        <pt x="411" y="78" on="0"/>
        <pt x="411" y="107" on="0"/>
        <pt x="406" y="130" on="1"/>
        <pt x="386" y="206" on="1"/>
        <pt x="360" y="207" on="0"/>
        <pt x="256" y="207" on="0"/>
        <pt x="200" y="200" on="1"/>
        <pt x="175" y="125" on="1"/>
        <pt x="169" y="104" on="0"/>
        <pt x="169" y="77" on="0"/>
        <pt x="189" y="64" on="0"/>
        <pt x="215" y="64" on="1"/>
        <pt x="258" y="64" on="1"/>
        <pt x="262" y="57" on="1"/>
        <pt x="255" y="-6" on="1"/>
        <pt x="173" y="0" on="0"/>
        <pt x="109" y="0" on="1"/>
        <pt x="-12" y="-3" on="1"/>
        <pt x="-4" y="64" on="1"/>
        <pt x="20" y="68" on="0"/>
        <pt x="49" y="97" on="0"/>
        <pt x="61" y="130" on="1"/>
        <pt x="239" y="637" on="1"/>
        <pt x="398" y="653" on="1"/>
        <pt x="409" y="648" on="1"/>
        <pt x="499" y="301" on="0"/>
        <pt x="552" y="132" on="1"/>
        <pt x="563" y="96" on="0"/>
        <pt x="597" y="66" on="0"/>
        <pt x="630" y="63" on="1"/>
        <pt x="634" y="56" on="1"/>
      </contour>
      <contour>
        <pt x="294" y="286" on="1"/>
        <pt x="326" y="286" on="0"/>
        <pt x="368" y="290" on="1"/>
        <pt x="310" y="510" on="1"/>
        <pt x="296" y="510" on="1"/>
        <pt x="224" y="286" on="1"/>
      </contour>
      <contour>
        <pt x="251" y="835" on="0"/>
        <pt x="369" y="801" on="0"/>
        <pt x="382" y="801" on="1"/>
        <pt x="404" y="801" on="0"/>
        <pt x="437" y="840" on="1"/>
        <pt x="448" y="853" on="1"/>
        <pt x="459" y="853" on="1"/>
        <pt x="499" y="816" on="1"/>
        <pt x="499" y="806" on="1"/>
        <pt x="420" y="709" on="1"/>
        <pt x="404" y="705" on="1"/>
        <pt x="386" y="705" on="0"/>
        <pt x="268" y="739" on="0"/>
        <pt x="256" y="739" on="1"/>
        <pt x="233" y="739" on="0"/>
        <pt x="200" y="700" on="1"/>
        <pt x="189" y="687" on="1"/>
        <pt x="178" y="687" on="1"/>
        <pt x="139" y="724" on="1"/>
        <pt x="139" y="735" on="1"/>
        <pt x="217" y="831" on="1"/>
        <pt x="234" y="835" on="1"/>
      </contour>
    </TTGlyph>
    <TTGlyph name="B" xMin="36" yMin="-10" xMax="592" yMax="647">
      <contour>
        <pt x="331" y="-10" on="1"/>
        <pt x="183" y="0" on="1"/>
        <pt x="132" y="0" on="0"/>
        <pt x="36" y="-10" on="1"/>
        <pt x="44" y="58" on="1"/>
        <pt x="87" y="66" on="0"/>
        <pt x="117" y="98" on="0"/>
        <pt x="117" y="137" on="1"/>
        <pt x="118" y="527" on="1"/>
        <pt x="118" y="555" on="0"/>
        <pt x="104" y="577" on="0"/>
        <pt x="85" y="577" on="1"/>
        <pt x="51" y="575" on="1"/>
        <pt x="45" y="583" on="1"/>
        <pt x="54" y="644" on="1"/>
        <pt x="158" y="642" on="0"/>
        <pt x="193" y="642" on="1"/>
        <pt x="346" y="647" on="1"/>
        <pt x="450" y="647" on="0"/>
        <pt x="558" y="568" on="0"/>
        <pt x="558" y="492" on="1"/>
        <pt x="558" y="395" on="0"/>
        <pt x="451" y="339" on="1"/>
        <pt x="515" y="322" on="0"/>
        <pt x="592" y="248" on="0"/>
        <pt x="592" y="190" on="1"/>
        <pt x="592" y="99" on="0"/>
        <pt x="449" y="-10" on="0"/>
      </contour>
      <contour>
        <pt x="247" y="103" on="0"/>
        <pt x="290" y="76" on="0"/>
        <pt x="390" y="76" on="0"/>
        <pt x="444" y="129" on="0"/>
        <pt x="444" y="176" on="1"/>
        <pt x="444" y="258" on="0"/>
        <pt x="343" y="281" on="1"/>
        <pt x="251" y="280" on="1"/>
        <pt x="247" y="135" on="1"/>
      </contour>
      <contour>
        <pt x="417" y="466" on="1"/>
        <pt x="417" y="564" on="0"/>
        <pt x="279" y="564" on="1"/>
        <pt x="269" y="564" on="0"/>
        <pt x="266" y="560" on="1"/>
        <pt x="257" y="550" on="0"/>
        <pt x="253" y="369" on="1"/>
        <pt x="329" y="360" on="0"/>
        <pt x="348" y="360" on="1"/>
        <pt x="391" y="374" on="0"/>
        <pt x="410" y="424" on="1"/>
        <pt x="417" y="443" on="0"/>
      </contour>
    </TTGlyph>
    <TTGlyph name="C" xMin="28" yMin="-12" xMax="575" yMax="654">
      <contour>
        <pt x="545" y="28" on="1"/>
        <pt x="449" y="-12" on="0"/>
        <pt x="187" y="-12" on="0"/>
        <pt x="28" y="157" on="0"/>
        <pt x="28" y="464" on="0"/>
        <pt x="218" y="654" on="0"/>
        <pt x="378" y="654" on="1"/>
        <pt x="457" y="654" on="0"/>
        <pt x="569" y="629" on="1"/>
        <pt x="575" y="616" on="1"/>
        <pt x="555" y="533" on="0"/>
        <pt x="549" y="427" on="1"/>
        <pt x="450" y="420" on="1"/>
        <pt x="452" y="447" on="0"/>
        <pt x="452" y="473" on="1"/>
        <pt x="452" y="516" on="0"/>
        <pt x="399" y="557" on="0"/>
        <pt x="343" y="557" on="1"/>
        <pt x="184" y="557" on="0"/>
        <pt x="184" y="338" on="1"/>
        <pt x="184" y="216" on="0"/>
        <pt x="272" y="82" on="0"/>
        <pt x="350" y="82" on="1"/>
        <pt x="404" y="82" on="0"/>
        <pt x="464" y="147" on="0"/>
        <pt x="476" y="220" on="1"/>
        <pt x="575" y="227" on="1"/>
        <pt x="558" y="123" on="0"/>
        <pt x="555" y="40" on="1"/>
      </contour>
    </TTGlyph>
    <TTGlyph name="Cacute" xMin="28" yMin="-12" xMax="575" yMax="857">
      <contour>
        <pt x="545" y="28" on="1"/>
        <pt x="449" y="-12" on="0"/>
        <pt x="187" y="-12" on="0"/>
        <pt x="28" y="157" on="0"/>
        <pt x="28" y="464" on="0"/>
        <pt x="218" y="654" on="0"/>
        <pt x="378" y="654" on="1"/>
        <pt x="457" y="654" on="0"/>
        <pt x="569" y="629" on="1"/>
        <pt x="575" y="616" on="1"/>
        <pt x="555" y="533" on="0"/>
        <pt x="549" y="427" on="1"/>
        <pt x="450" y="420" on="1"/>
        <pt x="452" y="447" on="0"/>
        <pt x="452" y="473" on="1"/>
        <pt x="452" y="516" on="0"/>
        <pt x="399" y="557" on="0"/>
        <pt x="343" y="557" on="1"/>
        <pt x="184" y="557" on="0"/>
        <pt x="184" y="338" on="1"/>
        <pt x="184" y="216" on="0"/>
        <pt x="272" y="82" on="0"/>
        <pt x="350" y="82" on="1"/>
        <pt x="404" y="82" on="0"/>
        <pt x="464" y="147" on="0"/>
        <pt x="476" y="220" on="1"/>
        <pt x="575" y="227" on="1"/>
        <pt x="558" y="123" on="0"/>
        <pt x="555" y="40" on="1"/>
      </contour>
      <contour>
        <pt x="522" y="775" on="1"/>
        <pt x="516" y="762" on="1"/>
        <pt x="401" y="733" on="0"/>
        <pt x="287" y="697" on="1"/>
        <pt x="274" y="706" on="1"/>
        <pt x="261" y="753" on="1"/>
        <pt x="484" y="857" on="1"/>
        <pt x="496" y="852" on="1"/>
      </contour>
    </TTGlyph>
    <TTGlyph name="Ccaron" xMin="28" yMin="-12" xMax="575" yMax="865">
      <contour>
        <pt x="545" y="28" on="1"/>
        <pt x="449" y="-12" on="0"/>
        <pt x="187" y="-12" on="0"/>
        <pt x="28" y="157" on="0"/>
        <pt x="28" y="464" on="0"/>
        <pt x="218" y="654" on="0"/>
        <pt x="378" y="654" on="1"/>
        <pt x="457" y="654" on="0"/>
        <pt x="569" y="629" on="1"/>
        <pt x="575" y="616" on="1"/>
        <pt x="555" y="533" on="0"/>
        <pt x="549" y="427" on="1"/>
        <pt x="450" y="420" on="1"/>
        <pt x="452" y="447" on="0"/>
        <pt x="452" y="473" on="1"/>
        <pt x="452" y="516" on="0"/>
        <pt x="399" y="557" on="0"/>
        <pt x="343" y="557" on="1"/>
        <pt x="184" y="557" on="0"/>
        <pt x="184" y="338" on="1"/>
        <pt x="184" y="216" on="0"/>
        <pt x="272" y="82" on="0"/>
        <pt x="350" y="82" on="1"/>
        <pt x="404" y="82" on="0"/>
        <pt x="464" y="147" on="0"/>
        <pt x="476" y="220" on="1"/>
        <pt x="575" y="227" on="1"/>
        <pt x="558" y="123" on="0"/>
        <pt x="555" y="40" on="1"/>
      </contour>
      <contour>
        <pt x="489" y="861" on="1"/>
        <pt x="514" y="820" on="1"/>
        <pt x="441" y="767" on="0"/>
        <pt x="357" y="696" on="1"/>
        <pt x="337" y="696" on="1"/>
        <pt x="254" y="766" on="0"/>
        <pt x="180" y="820" on="1"/>
        <pt x="204" y="861" on="1"/>
        <pt x="220" y="865" on="1"/>
        <pt x="270" y="840" on="0"/>
        <pt x="347" y="807" on="1"/>
        <pt x="395" y="827" on="0"/>
        <pt x="473" y="865" on="1"/>
      </contour>
    </TTGlyph>
    <TTGlyph name="Ccedilla" xMin="28" yMin="-237" xMax="575" yMax="654">
      <contour>
        <pt x="173" y="-3" on="0"/>
        <pt x="28" y="163" on="0"/>
        <pt x="28" y="464" on="0"/>
        <pt x="218" y="654" on="0"/>
        <pt x="378" y="654" on="1"/>
        <pt x="457" y="654" on="0"/>
        <pt x="569" y="629" on="1"/>
        <pt x="575" y="616" on="1"/>
        <pt x="555" y="533" on="0"/>
        <pt x="549" y="427" on="1"/>
        <pt x="450" y="420" on="1"/>
        <pt x="452" y="447" on="0"/>
        <pt x="452" y="473" on="1"/>
        <pt x="452" y="516" on="0"/>
        <pt x="399" y="557" on="0"/>
        <pt x="343" y="557" on="1"/>
        <pt x="184" y="557" on="0"/>
        <pt x="184" y="338" on="1"/>
        <pt x="184" y="216" on="0"/>
        <pt x="272" y="82" on="0"/>
        <pt x="350" y="82" on="1"/>
        <pt x="404" y="82" on="0"/>
        <pt x="464" y="147" on="0"/>
        <pt x="476" y="220" on="1"/>
        <pt x="575" y="227" on="1"/>
        <pt x="558" y="123" on="0"/>
        <pt x="555" y="40" on="1"/>
        <pt x="545" y="28" on="1"/>
        <pt x="462" y="-6" on="0"/>
        <pt x="352" y="-11" on="1"/>
        <pt x="343" y="-44" on="1"/>
        <pt x="370" y="-60" on="0"/>
        <pt x="403" y="-81" on="0"/>
        <pt x="439" y="-122" on="0"/>
        <pt x="439" y="-141" on="1"/>
        <pt x="439" y="-180" on="0"/>
        <pt x="358" y="-237" on="0"/>
        <pt x="306" y="-237" on="1"/>
        <pt x="278" y="-237" on="0"/>
        <pt x="228" y="-213" on="0"/>
        <pt x="228" y="-175" on="0"/>
        <pt x="265" y="-131" on="1"/>
        <pt x="274" y="-131" on="1"/>
        <pt x="275" y="-158" on="0"/>
        <pt x="303" y="-187" on="0"/>
        <pt x="343" y="-187" on="0"/>
        <pt x="366" y="-170" on="0"/>
        <pt x="366" y="-157" on="1"/>
        <pt x="366" y="-131" on="0"/>
        <pt x="280" y="-86" on="1"/>
        <pt x="301" y="-11" on="1"/>
      </contour>
    </TTGlyph>
    <TTGlyph name="Ccircumflex" xMin="28" yMin="-12" xMax="575" yMax="904">
      <contour>
        <pt x="545" y="28" on="1"/>
        <pt x="449" y="-12" on="0"/>
        <pt x="187" y="-12" on="0"/>
        <pt x="28" y="157" on="0"/>
        <pt x="28" y="464" on="0"/>
        <pt x="218" y="654" on="0"/>
        <pt x="378" y="654" on="1"/>
        <pt x="457" y="654" on="0"/>
        <pt x="569" y="629" on="1"/>
        <pt x="575" y="616" on="1"/>
        <pt x="555" y="533" on="0"/>
        <pt x="549" y="427" on="1"/>
        <pt x="450" y="420" on="1"/>
        <pt x="452" y="447" on="0"/>
        <pt x="452" y="473" on="1"/>
        <pt x="452" y="516" on="0"/>
        <pt x="399" y="557" on="0"/>
        <pt x="343" y="557" on="1"/>
        <pt x="184" y="557" on="0"/>
        <pt x="184" y="338" on="1"/>
        <pt x="184" y="216" on="0"/>
        <pt x="272" y="82" on="0"/>
        <pt x="350" y="82" on="1"/>
        <pt x="404" y="82" on="0"/>
        <pt x="464" y="147" on="0"/>
        <pt x="476" y="220" on="1"/>
        <pt x="575" y="227" on="1"/>
        <pt x="558" y="123" on="0"/>
        <pt x="555" y="40" on="1"/>
      </contour>
      <contour>
        <pt x="208" y="709" on="1"/>
        <pt x="179" y="750" on="1"/>
        <pt x="243" y="810" on="0"/>
        <pt x="331" y="904" on="1"/>
        <pt x="351" y="904" on="1"/>
        <pt x="431" y="818" on="0"/>
        <pt x="502" y="750" on="1"/>
        <pt x="473" y="709" on="1"/>
        <pt x="458" y="705" on="1"/>
        <pt x="438" y="721" on="0"/>
        <pt x="341" y="788" on="1"/>
        <pt x="270" y="742" on="0"/>
        <pt x="224" y="705" on="1"/>
      </contour>
    </TTGlyph>
    <TTGlyph name="Cdotaccent" xMin="28" yMin="-12" xMax="575" yMax="854">
      <contour>
        <pt x="545" y="28" on="1"/>
        <pt x="449" y="-12" on="0"/>
        <pt x="187" y="-12" on="0"/>
        <pt x="28" y="157" on="0"/>
        <pt x="28" y="464" on="0"/>
        <pt x="218" y="654" on="0"/>
        <pt x="378" y="654" on="1"/>
        <pt x="457" y="654" on="0"/>
        <pt x="569" y="629" on="1"/>
        <pt x="575" y="616" on="1"/>
        <pt x="555" y="533" on="0"/>
        <pt x="549" y="427" on="1"/>
        <pt x="450" y="420" on="1"/>
        <pt x="452" y="447" on="0"/>
        <pt x="452" y="473" on="1"/>
        <pt x="452" y="516" on="0"/>
        <pt x="399" y="557" on="0"/>
        <pt x="343" y="557" on="1"/>
        <pt x="184" y="557" on="0"/>
        <pt x="184" y="338" on="1"/>
        <pt x="184" y="216" on="0"/>
        <pt x="272" y="82" on="0"/>
        <pt x="350" y="82" on="1"/>
        <pt x="404" y="82" on="0"/>
        <pt x="464" y="147" on="0"/>
        <pt x="476" y="220" on="1"/>
        <pt x="575" y="227" on="1"/>
        <pt x="558" y="123" on="0"/>
        <pt x="555" y="40" on="1"/>
      </contour>
      <contour>
        <pt x="424" y="747" on="0"/>
        <pt x="380" y="702" on="0"/>
        <pt x="310" y="702" on="0"/>
        <pt x="274" y="742" on="0"/>
        <pt x="274" y="809" on="0"/>
        <pt x="318" y="854" on="0"/>
        <pt x="387" y="854" on="0"/>
        <pt x="424" y="815" on="0"/>
      </contour>
    </TTGlyph>
    <TTGlyph name="D" xMin="38" yMin="-12" xMax="665" yMax="647">
      <contour>
        <pt x="318" y="-12" on="1"/>
        <pt x="224" y="0" on="0"/>
        <pt x="184" y="0" on="1"/>
        <pt x="120" y="0" on="0"/>
        <pt x="38" y="-10" on="1"/>
        <pt x="45" y="58" on="1"/>
        <pt x="88" y="66" on="0"/>
        <pt x="117" y="101" on="0"/>
        <pt x="117" y="143" on="1"/>
        <pt x="118" y="522" on="1"/>
        <pt x="118" y="554" on="0"/>
        <pt x="105" y="576" on="0"/>
        <pt x="86" y="576" on="1"/>
        <pt x="53" y="574" on="1"/>
        <pt x="47" y="583" on="1"/>
        <pt x="55" y="645" on="1"/>
        <pt x="144" y="642" on="0"/>
        <pt x="183" y="642" on="1"/>
        <pt x="342" y="647" on="1"/>
        <pt x="494" y="647" on="0"/>
        <pt x="665" y="488" on="0"/>
        <pt x="665" y="189" on="0"/>
        <pt x="471" y="-12" on="0"/>
      </contour>
      <contour>
        <pt x="289" y="560" on="1"/>
        <pt x="273" y="560" on="0"/>
        <pt x="261" y="550" on="0"/>
        <pt x="260" y="536" on="1"/>
        <pt x="247" y="263" on="0"/>
        <pt x="247" y="146" on="1"/>
        <pt x="247" y="103" on="0"/>
        <pt x="280" y="75" on="0"/>
        <pt x="330" y="75" on="1"/>
        <pt x="508" y="75" on="0"/>
        <pt x="508" y="316" on="1"/>
        <pt x="508" y="443" on="0"/>
        <pt x="401" y="560" on="0"/>
      </contour>
    </TTGlyph>
    <TTGlyph name="Dcaron" xMin="38" yMin="-12" xMax="665" yMax="865">
      <contour>
        <pt x="318" y="-12" on="1"/>
        <pt x="224" y="0" on="0"/>
        <pt x="184" y="0" on="1"/>
        <pt x="120" y="0" on="0"/>
        <pt x="38" y="-10" on="1"/>
        <pt x="45" y="58" on="1"/>
        <pt x="88" y="66" on="0"/>
        <pt x="117" y="101" on="0"/>
        <pt x="117" y="143" on="1"/>
        <pt x="118" y="522" on="1"/>
        <pt x="118" y="554" on="0"/>
        <pt x="105" y="576" on="0"/>
        <pt x="86" y="576" on="1"/>
        <pt x="53" y="574" on="1"/>
        <pt x="47" y="583" on="1"/>
        <pt x="55" y="645" on="1"/>
        <pt x="144" y="642" on="0"/>
        <pt x="183" y="642" on="1"/>
        <pt x="342" y="647" on="1"/>
        <pt x="494" y="647" on="0"/>
        <pt x="665" y="488" on="0"/>
        <pt x="665" y="189" on="0"/>
        <pt x="471" y="-12" on="0"/>
      </contour>
      <contour>
        <pt x="289" y="560" on="1"/>
        <pt x="273" y="560" on="0"/>
        <pt x="261" y="550" on="0"/>
        <pt x="260" y="536" on="1"/>
        <pt x="247" y="263" on="0"/>
        <pt x="247" y="146" on="1"/>
        <pt x="247" y="103" on="0"/>
        <pt x="280" y="75" on="0"/>
        <pt x="330" y="75" on="1"/>
        <pt x="508" y="75" on="0"/>
        <pt x="508" y="316" on="1"/>
        <pt x="508" y="443" on="0"/>
        <pt x="401" y="560" on="0"/>
      </contour>
      <contour>
        <pt x="481" y="861" on="1"/>
        <pt x="506" y="820" on="1"/>
        <pt x="433" y="767" on="0"/>
        <pt x="349" y="696" on="1"/>
        <pt x="329" y="696" on="1"/>
        <pt x="246" y="766" on="0"/>
        <pt x="172" y="820" on="1"/>
        <pt x="196" y="861" on="1"/>
        <pt x="212" y="865" on="1"/>
        <pt x="262" y="840" on="0"/>
        <pt x="339" y="807" on="1"/>
        <pt x="387" y="827" on="0"/>
        <pt x="465" y="865" on="1"/>
      </contour>
    </TTGlyph>
    <TTGlyph name="Dcroat" xMin="8" yMin="-12" xMax="680" yMax="647">
      <contour>
        <pt x="333" y="-12" on="1"/>
        <pt x="238" y="0" on="0"/>
        <pt x="198" y="0" on="1"/>
        <pt x="135" y="0" on="0"/>
        <pt x="53" y="-10" on="1"/>
        <pt x="60" y="58" on="1"/>
        <pt x="105" y="66" on="0"/>
        <pt x="132" y="105" on="0"/>
        <pt x="132" y="162" on="1"/>
        <pt x="132" y="286" on="1"/>
        <pt x="16" y="286" on="1"/>
        <pt x="8" y="293" on="1"/>
        <pt x="18" y="353" on="1"/>
        <pt x="132" y="353" on="1"/>
        <pt x="132" y="522" on="1"/>
        <pt x="132" y="554" on="0"/>
        <pt x="120" y="576" on="0"/>
        <pt x="101" y="576" on="1"/>
        <pt x="68" y="574" on="1"/>
        <pt x="62" y="583" on="1"/>
        <pt x="70" y="645" on="1"/>
        <pt x="158" y="642" on="0"/>
        <pt x="198" y="642" on="1"/>
        <pt x="356" y="647" on="1"/>
        <pt x="507" y="647" on="0"/>
        <pt x="680" y="487" on="0"/>
        <pt x="680" y="189" on="0"/>
        <pt x="485" y="-12" on="0"/>
      </contour>
      <contour>
        <pt x="345" y="75" on="1"/>
        <pt x="522" y="75" on="0"/>
        <pt x="522" y="316" on="1"/>
        <pt x="522" y="443" on="0"/>
        <pt x="415" y="560" on="0"/>
        <pt x="303" y="560" on="1"/>
        <pt x="287" y="560" on="0"/>
        <pt x="275" y="550" on="0"/>
        <pt x="274" y="536" on="1"/>
        <pt x="266" y="353" on="1"/>
        <pt x="391" y="355" on="1"/>
        <pt x="397" y="346" on="1"/>
        <pt x="391" y="286" on="1"/>
        <pt x="264" y="286" on="1"/>
        <pt x="262" y="146" on="1"/>
        <pt x="262" y="103" on="0"/>
        <pt x="295" y="75" on="0"/>
      </contour>
    </TTGlyph>
    <TTGlyph name="Delta" xMin="10" yMin="0" xMax="581" yMax="654">
      <contour>
        <pt x="20" y="0" on="1"/>
        <pt x="10" y="13" on="1"/>
        <pt x="229" y="637" on="1"/>
        <pt x="389" y="654" on="1"/>
        <pt x="398" y="654" on="1"/>
        <pt x="496" y="264" on="0"/>
        <pt x="581" y="7" on="1"/>
        <pt x="573" y="0" on="1"/>
      </contour>
      <contour>
        <pt x="301" y="519" on="1"/>
        <pt x="286" y="519" on="1"/>
        <pt x="152" y="95" on="1"/>
        <pt x="408" y="95" on="1"/>
      </contour>
    </TTGlyph>
    <TTGlyph name="E" xMin="36" yMin="-10" xMax="559" yMax="654">
      <contour>
        <pt x="253" y="370" on="1"/>
        <pt x="346" y="369" on="1"/>
        <pt x="462" y="377" on="1"/>
        <pt x="470" y="368" on="1"/>
        <pt x="456" y="282" on="1"/>
        <pt x="376" y="285" on="0"/>
        <pt x="301" y="285" on="0"/>
        <pt x="250" y="279" on="1"/>
        <pt x="247" y="170" on="0"/>
        <pt x="247" y="99" on="0"/>
        <pt x="268" y="79" on="0"/>
        <pt x="360" y="79" on="0"/>
        <pt x="412" y="86" on="0"/>
        <pt x="448" y="112" on="0"/>
        <pt x="461" y="153" on="0"/>
        <pt x="467" y="193" on="1"/>
        <pt x="552" y="200" on="1"/>
        <pt x="559" y="190" on="1"/>
        <pt x="541" y="100" on="0"/>
        <pt x="531" y="4" on="1"/>
        <pt x="522" y="-7" on="1"/>
        <pt x="334" y="0" on="0"/>
        <pt x="252" y="0" on="1"/>
        <pt x="130" y="0" on="0"/>
        <pt x="36" y="-10" on="1"/>
        <pt x="44" y="58" on="1"/>
        <pt x="85" y="64" on="0"/>
        <pt x="116" y="101" on="0"/>
        <pt x="116" y="144" on="1"/>
        <pt x="117" y="523" on="1"/>
        <pt x="117" y="556" on="0"/>
        <pt x="104" y="577" on="0"/>
        <pt x="84" y="577" on="1"/>
        <pt x="54" y="575" on="1"/>
        <pt x="47" y="584" on="1"/>
        <pt x="55" y="645" on="1"/>
        <pt x="165" y="642" on="0"/>
        <pt x="453" y="642" on="0"/>
        <pt x="544" y="654" on="1"/>
        <pt x="552" y="643" on="1"/>
        <pt x="534" y="554" on="0"/>
        <pt x="529" y="461" on="1"/>
        <pt x="437" y="455" on="1"/>
        <pt x="439" y="481" on="0"/>
        <pt x="439" y="495" on="1"/>
        <pt x="439" y="536" on="0"/>
        <pt x="397" y="558" on="0"/>
        <pt x="278" y="558" on="0"/>
        <pt x="261" y="547" on="0"/>
        <pt x="260" y="525" on="1"/>
      </contour>
    </TTGlyph>
    <TTGlyph name="Eacute" xMin="36" yMin="-10" xMax="559" yMax="857">
      <contour>
        <pt x="253" y="370" on="1"/>
        <pt x="346" y="369" on="1"/>
        <pt x="462" y="377" on="1"/>
        <pt x="470" y="368" on="1"/>
        <pt x="456" y="282" on="1"/>
        <pt x="376" y="285" on="0"/>
        <pt x="301" y="285" on="0"/>
        <pt x="250" y="279" on="1"/>
        <pt x="247" y="170" on="0"/>
        <pt x="247" y="99" on="0"/>
        <pt x="268" y="79" on="0"/>
        <pt x="360" y="79" on="0"/>
        <pt x="412" y="86" on="0"/>
        <pt x="448" y="112" on="0"/>
        <pt x="461" y="153" on="0"/>
        <pt x="467" y="193" on="1"/>
        <pt x="552" y="200" on="1"/>
        <pt x="559" y="190" on="1"/>
        <pt x="541" y="100" on="0"/>
        <pt x="531" y="4" on="1"/>
        <pt x="522" y="-7" on="1"/>
        <pt x="334" y="0" on="0"/>
        <pt x="252" y="0" on="1"/>
        <pt x="130" y="0" on="0"/>
        <pt x="36" y="-10" on="1"/>
        <pt x="44" y="58" on="1"/>
        <pt x="85" y="64" on="0"/>
        <pt x="116" y="101" on="0"/>
        <pt x="116" y="144" on="1"/>
        <pt x="117" y="523" on="1"/>
        <pt x="117" y="556" on="0"/>
        <pt x="104" y="577" on="0"/>
        <pt x="84" y="577" on="1"/>
        <pt x="54" y="575" on="1"/>
        <pt x="47" y="584" on="1"/>
        <pt x="55" y="645" on="1"/>
        <pt x="165" y="642" on="0"/>
        <pt x="453" y="642" on="0"/>
        <pt x="544" y="654" on="1"/>
        <pt x="552" y="643" on="1"/>
        <pt x="534" y="554" on="0"/>
        <pt x="529" y="461" on="1"/>
        <pt x="437" y="455" on="1"/>
        <pt x="439" y="481" on="0"/>
        <pt x="439" y="495" on="1"/>
        <pt x="439" y="536" on="0"/>
        <pt x="397" y="558" on="0"/>
        <pt x="278" y="558" on="0"/>
        <pt x="261" y="547" on="0"/>
        <pt x="260" y="525" on="1"/>
      </contour>
      <contour>
        <pt x="492" y="775" on="1"/>
        <pt x="486" y="762" on="1"/>
        <pt x="371" y="733" on="0"/>
        <pt x="257" y="697" on="1"/>
        <pt x="244" y="706" on="1"/>
        <pt x="231" y="753" on="1"/>
        <pt x="454" y="857" on="1"/>
        <pt x="466" y="852" on="1"/>
      </contour>
    </TTGlyph>
    <TTGlyph name="Ebreve" xMin="36" yMin="-10" xMax="559" yMax="880">
      <contour>
        <pt x="253" y="370" on="1"/>
        <pt x="346" y="369" on="1"/>
        <pt x="462" y="377" on="1"/>
        <pt x="470" y="368" on="1"/>
        <pt x="456" y="282" on="1"/>
        <pt x="376" y="285" on="0"/>
        <pt x="301" y="285" on="0"/>
        <pt x="250" y="279" on="1"/>
        <pt x="247" y="170" on="0"/>
        <pt x="247" y="99" on="0"/>
        <pt x="268" y="79" on="0"/>
        <pt x="360" y="79" on="0"/>
        <pt x="412" y="86" on="0"/>
        <pt x="448" y="112" on="0"/>
        <pt x="461" y="153" on="0"/>
        <pt x="467" y="193" on="1"/>
        <pt x="552" y="200" on="1"/>
        <pt x="559" y="190" on="1"/>
        <pt x="541" y="100" on="0"/>
        <pt x="531" y="4" on="1"/>
        <pt x="522" y="-7" on="1"/>
        <pt x="334" y="0" on="0"/>
        <pt x="252" y="0" on="1"/>
        <pt x="130" y="0" on="0"/>
        <pt x="36" y="-10" on="1"/>
        <pt x="44" y="58" on="1"/>
        <pt x="85" y="64" on="0"/>
        <pt x="116" y="101" on="0"/>
        <pt x="116" y="144" on="1"/>
        <pt x="117" y="523" on="1"/>
        <pt x="117" y="556" on="0"/>
        <pt x="104" y="577" on="0"/>
        <pt x="84" y="577" on="1"/>
        <pt x="54" y="575" on="1"/>
        <pt x="47" y="584" on="1"/>
        <pt x="55" y="645" on="1"/>
        <pt x="165" y="642" on="0"/>
        <pt x="453" y="642" on="0"/>
        <pt x="544" y="654" on="1"/>
        <pt x="552" y="643" on="1"/>
        <pt x="534" y="554" on="0"/>
        <pt x="529" y="461" on="1"/>
        <pt x="437" y="455" on="1"/>
        <pt x="439" y="481" on="0"/>
        <pt x="439" y="495" on="1"/>
        <pt x="439" y="536" on="0"/>
        <pt x="397" y="558" on="0"/>
        <pt x="278" y="558" on="0"/>
        <pt x="261" y="547" on="0"/>
        <pt x="260" y="525" on="1"/>
      </contour>
      <contour>
        <pt x="251" y="812" on="0"/>
        <pt x="403" y="812" on="0"/>
        <pt x="430" y="880" on="1"/>
        <pt x="447" y="876" on="1"/>
        <pt x="475" y="842" on="1"/>
        <pt x="460" y="788" on="0"/>
        <pt x="386" y="717" on="0"/>
        <pt x="268" y="717" on="0"/>
        <pt x="194" y="788" on="0"/>
        <pt x="179" y="842" on="1"/>
        <pt x="207" y="876" on="1"/>
        <pt x="224" y="880" on="1"/>
      </contour>
    </TTGlyph>
    <TTGlyph name="Ecaron" xMin="36" yMin="-10" xMax="559" yMax="865">
      <contour>
        <pt x="253" y="370" on="1"/>
        <pt x="346" y="369" on="1"/>
        <pt x="462" y="377" on="1"/>
        <pt x="470" y="368" on="1"/>
        <pt x="456" y="282" on="1"/>
        <pt x="376" y="285" on="0"/>
        <pt x="301" y="285" on="0"/>
        <pt x="250" y="279" on="1"/>
        <pt x="247" y="170" on="0"/>
        <pt x="247" y="99" on="0"/>
        <pt x="268" y="79" on="0"/>
        <pt x="360" y="79" on="0"/>
        <pt x="412" y="86" on="0"/>
        <pt x="448" y="112" on="0"/>
        <pt x="461" y="153" on="0"/>
        <pt x="467" y="193" on="1"/>
        <pt x="552" y="200" on="1"/>
        <pt x="559" y="190" on="1"/>
        <pt x="541" y="100" on="0"/>
        <pt x="531" y="4" on="1"/>
        <pt x="522" y="-7" on="1"/>
        <pt x="334" y="0" on="0"/>
        <pt x="252" y="0" on="1"/>
        <pt x="130" y="0" on="0"/>
        <pt x="36" y="-10" on="1"/>
        <pt x="44" y="58" on="1"/>
        <pt x="85" y="64" on="0"/>
        <pt x="116" y="101" on="0"/>
        <pt x="116" y="144" on="1"/>
        <pt x="117" y="523" on="1"/>
        <pt x="117" y="556" on="0"/>
        <pt x="104" y="577" on="0"/>
        <pt x="84" y="577" on="1"/>
        <pt x="54" y="575" on="1"/>
        <pt x="47" y="584" on="1"/>
        <pt x="55" y="645" on="1"/>
        <pt x="165" y="642" on="0"/>
        <pt x="453" y="642" on="0"/>
        <pt x="544" y="654" on="1"/>
        <pt x="552" y="643" on="1"/>
        <pt x="534" y="554" on="0"/>
        <pt x="529" y="461" on="1"/>
        <pt x="437" y="455" on="1"/>
        <pt x="439" y="481" on="0"/>
        <pt x="439" y="495" on="1"/>
        <pt x="439" y="536" on="0"/>
        <pt x="397" y="558" on="0"/>
        <pt x="278" y="558" on="0"/>
        <pt x="261" y="547" on="0"/>
        <pt x="260" y="525" on="1"/>
      </contour>
      <contour>
        <pt x="460" y="861" on="1"/>
        <pt x="485" y="820" on="1"/>
        <pt x="412" y="767" on="0"/>
        <pt x="328" y="696" on="1"/>
        <pt x="308" y="696" on="1"/>
        <pt x="225" y="766" on="0"/>
        <pt x="151" y="820" on="1"/>
        <pt x="175" y="861" on="1"/>
        <pt x="191" y="865" on="1"/>
        <pt x="241" y="840" on="0"/>
        <pt x="318" y="807" on="1"/>
        <pt x="366" y="827" on="0"/>
        <pt x="444" y="865" on="1"/>
      </contour>
    </TTGlyph>
    <TTGlyph name="Ecircumflex" xMin="36" yMin="-10" xMax="559" yMax="876">
      <contour>
        <pt x="253" y="370" on="1"/>
        <pt x="346" y="369" on="1"/>
        <pt x="462" y="377" on="1"/>
        <pt x="470" y="368" on="1"/>
        <pt x="456" y="282" on="1"/>
        <pt x="376" y="285" on="0"/>
        <pt x="301" y="285" on="0"/>
        <pt x="250" y="279" on="1"/>
        <pt x="247" y="170" on="0"/>
        <pt x="247" y="99" on="0"/>
        <pt x="268" y="79" on="0"/>
        <pt x="360" y="79" on="0"/>
        <pt x="412" y="86" on="0"/>
        <pt x="448" y="112" on="0"/>
        <pt x="461" y="153" on="0"/>
        <pt x="467" y="193" on="1"/>
        <pt x="552" y="200" on="1"/>
        <pt x="559" y="190" on="1"/>
        <pt x="541" y="100" on="0"/>
        <pt x="531" y="4" on="1"/>
        <pt x="522" y="-7" on="1"/>
        <pt x="334" y="0" on="0"/>
        <pt x="252" y="0" on="1"/>
        <pt x="130" y="0" on="0"/>
        <pt x="36" y="-10" on="1"/>
        <pt x="44" y="58" on="1"/>
        <pt x="85" y="64" on="0"/>
        <pt x="116" y="101" on="0"/>
        <pt x="116" y="144" on="1"/>
        <pt x="117" y="523" on="1"/>
        <pt x="117" y="556" on="0"/>
        <pt x="104" y="577" on="0"/>
        <pt x="84" y="577" on="1"/>
        <pt x="54" y="575" on="1"/>
        <pt x="47" y="584" on="1"/>
        <pt x="55" y="645" on="1"/>
        <pt x="165" y="642" on="0"/>
        <pt x="453" y="642" on="0"/>
        <pt x="544" y="654" on="1"/>
        <pt x="552" y="643" on="1"/>
        <pt x="534" y="554" on="0"/>
        <pt x="529" y="461" on="1"/>
        <pt x="437" y="455" on="1"/>
        <pt x="439" y="481" on="0"/>
        <pt x="439" y="495" on="1"/>
        <pt x="439" y="536" on="0"/>
        <pt x="397" y="558" on="0"/>
        <pt x="278" y="558" on="0"/>
        <pt x="261" y="547" on="0"/>
        <pt x="260" y="525" on="1"/>
      </contour>
      <contour>
        <pt x="329" y="876" on="1"/>
        <pt x="329" y="877" on="0"/>
        <pt x="455" y="776" on="0"/>
        <pt x="486" y="752" on="1"/>
        <pt x="462" y="711" on="1"/>
        <pt x="446" y="707" on="1"/>
        <pt x="396" y="732" on="0"/>
        <pt x="319" y="765" on="1"/>
        <pt x="271" y="745" on="0"/>
        <pt x="193" y="707" on="1"/>
        <pt x="177" y="711" on="1"/>
        <pt x="152" y="752" on="1"/>
        <pt x="225" y="805" on="0"/>
        <pt x="309" y="876" on="1"/>
      </contour>
    </TTGlyph>
    <TTGlyph name="Edieresis" xMin="36" yMin="-10" xMax="559" yMax="834">
      <contour>
        <pt x="253" y="370" on="1"/>
        <pt x="346" y="369" on="1"/>
        <pt x="462" y="377" on="1"/>
        <pt x="470" y="368" on="1"/>
        <pt x="456" y="282" on="1"/>
        <pt x="376" y="285" on="0"/>
        <pt x="301" y="285" on="0"/>
        <pt x="250" y="279" on="1"/>
        <pt x="247" y="170" on="0"/>
        <pt x="247" y="99" on="0"/>
        <pt x="268" y="79" on="0"/>
        <pt x="360" y="79" on="0"/>
        <pt x="412" y="86" on="0"/>
        <pt x="448" y="112" on="0"/>
        <pt x="461" y="153" on="0"/>
        <pt x="467" y="193" on="1"/>
        <pt x="552" y="200" on="1"/>
        <pt x="559" y="190" on="1"/>
        <pt x="541" y="100" on="0"/>
        <pt x="531" y="4" on="1"/>
        <pt x="522" y="-7" on="1"/>
        <pt x="334" y="0" on="0"/>
        <pt x="252" y="0" on="1"/>
        <pt x="130" y="0" on="0"/>
        <pt x="36" y="-10" on="1"/>
        <pt x="44" y="58" on="1"/>
        <pt x="85" y="64" on="0"/>
        <pt x="116" y="101" on="0"/>
        <pt x="116" y="144" on="1"/>
        <pt x="117" y="523" on="1"/>
        <pt x="117" y="556" on="0"/>
        <pt x="104" y="577" on="0"/>
        <pt x="84" y="577" on="1"/>
        <pt x="54" y="575" on="1"/>
        <pt x="47" y="584" on="1"/>
        <pt x="55" y="645" on="1"/>
        <pt x="165" y="642" on="0"/>
        <pt x="453" y="642" on="0"/>
        <pt x="544" y="654" on="1"/>
        <pt x="552" y="643" on="1"/>
        <pt x="534" y="554" on="0"/>
        <pt x="529" y="461" on="1"/>
        <pt x="437" y="455" on="1"/>
        <pt x="439" y="481" on="0"/>
        <pt x="439" y="495" on="1"/>
        <pt x="439" y="536" on="0"/>
        <pt x="397" y="558" on="0"/>
        <pt x="278" y="558" on="0"/>
        <pt x="261" y="547" on="0"/>
        <pt x="260" y="525" on="1"/>
      </contour>
      <contour>
        <pt x="470" y="744" on="0"/>
        <pt x="433" y="706" on="0"/>
        <pt x="374" y="706" on="0"/>
        <pt x="343" y="739" on="0"/>
        <pt x="343" y="796" on="0"/>
        <pt x="380" y="834" on="0"/>
        <pt x="439" y="834" on="0"/>
        <pt x="470" y="801" on="0"/>
      </contour>
      <contour>
        <pt x="292" y="744" on="0"/>
        <pt x="255" y="706" on="0"/>
        <pt x="196" y="706" on="0"/>
        <pt x="165" y="739" on="0"/>
        <pt x="165" y="796" on="0"/>
        <pt x="202" y="834" on="0"/>
        <pt x="260" y="834" on="0"/>
        <pt x="292" y="801" on="0"/>
      </contour>
    </TTGlyph>
    <TTGlyph name="Edotaccent" xMin="36" yMin="-10" xMax="559" yMax="854">
      <contour>
        <pt x="253" y="370" on="1"/>
        <pt x="346" y="369" on="1"/>
        <pt x="462" y="377" on="1"/>
        <pt x="470" y="368" on="1"/>
        <pt x="456" y="282" on="1"/>
        <pt x="376" y="285" on="0"/>
        <pt x="301" y="285" on="0"/>
        <pt x="250" y="279" on="1"/>
        <pt x="247" y="170" on="0"/>
        <pt x="247" y="99" on="0"/>
        <pt x="268" y="79" on="0"/>
        <pt x="360" y="79" on="0"/>
        <pt x="412" y="86" on="0"/>
        <pt x="448" y="112" on="0"/>
        <pt x="461" y="153" on="0"/>
        <pt x="467" y="193" on="1"/>
        <pt x="552" y="200" on="1"/>
        <pt x="559" y="190" on="1"/>
        <pt x="541" y="100" on="0"/>
        <pt x="531" y="4" on="1"/>
        <pt x="522" y="-7" on="1"/>
        <pt x="334" y="0" on="0"/>
        <pt x="252" y="0" on="1"/>
        <pt x="130" y="0" on="0"/>
        <pt x="36" y="-10" on="1"/>
        <pt x="44" y="58" on="1"/>
        <pt x="85" y="64" on="0"/>
        <pt x="116" y="101" on="0"/>
        <pt x="116" y="144" on="1"/>
        <pt x="117" y="523" on="1"/>
        <pt x="117" y="556" on="0"/>
        <pt x="104" y="577" on="0"/>
        <pt x="84" y="577" on="1"/>
        <pt x="54" y="575" on="1"/>
        <pt x="47" y="584" on="1"/>
        <pt x="55" y="645" on="1"/>
        <pt x="165" y="642" on="0"/>
        <pt x="453" y="642" on="0"/>
        <pt x="544" y="654" on="1"/>
        <pt x="552" y="643" on="1"/>
        <pt x="534" y="554" on="0"/>
        <pt x="529" y="461" on="1"/>
        <pt x="437" y="455" on="1"/>
        <pt x="439" y="481" on="0"/>
        <pt x="439" y="495" on="1"/>
        <pt x="439" y="536" on="0"/>
        <pt x="397" y="558" on="0"/>
        <pt x="278" y="558" on="0"/>
        <pt x="261" y="547" on="0"/>
        <pt x="260" y="525" on="1"/>
      </contour>
      <contour>
        <pt x="394" y="747" on="0"/>
        <pt x="350" y="702" on="0"/>
        <pt x="280" y="702" on="0"/>
        <pt x="244" y="742" on="0"/>
        <pt x="244" y="809" on="0"/>
        <pt x="288" y="854" on="0"/>
        <pt x="357" y="854" on="0"/>
        <pt x="394" y="815" on="0"/>
      </contour>
    </TTGlyph>
    <TTGlyph name="Egrave" xMin="36" yMin="-10" xMax="559" yMax="857">
      <contour>
        <pt x="253" y="370" on="1"/>
        <pt x="346" y="369" on="1"/>
        <pt x="462" y="377" on="1"/>
        <pt x="470" y="368" on="1"/>
        <pt x="456" y="282" on="1"/>
        <pt x="376" y="285" on="0"/>
        <pt x="301" y="285" on="0"/>
        <pt x="250" y="279" on="1"/>
        <pt x="247" y="170" on="0"/>
        <pt x="247" y="99" on="0"/>
        <pt x="268" y="79" on="0"/>
        <pt x="360" y="79" on="0"/>
        <pt x="412" y="86" on="0"/>
        <pt x="448" y="112" on="0"/>
        <pt x="461" y="153" on="0"/>
        <pt x="467" y="193" on="1"/>
        <pt x="552" y="200" on="1"/>
        <pt x="559" y="190" on="1"/>
        <pt x="541" y="100" on="0"/>
        <pt x="531" y="4" on="1"/>
        <pt x="522" y="-7" on="1"/>
        <pt x="334" y="0" on="0"/>
        <pt x="252" y="0" on="1"/>
        <pt x="130" y="0" on="0"/>
        <pt x="36" y="-10" on="1"/>
        <pt x="44" y="58" on="1"/>
        <pt x="85" y="64" on="0"/>
        <pt x="116" y="101" on="0"/>
        <pt x="116" y="144" on="1"/>
        <pt x="117" y="523" on="1"/>
        <pt x="117" y="556" on="0"/>
        <pt x="104" y="577" on="0"/>
        <pt x="84" y="577" on="1"/>
        <pt x="54" y="575" on="1"/>
        <pt x="47" y="584" on="1"/>
        <pt x="55" y="645" on="1"/>
        <pt x="165" y="642" on="0"/>
        <pt x="453" y="642" on="0"/>
        <pt x="544" y="654" on="1"/>
        <pt x="552" y="643" on="1"/>
        <pt x="534" y="554" on="0"/>
        <pt x="529" y="461" on="1"/>
        <pt x="437" y="455" on="1"/>
        <pt x="439" y="481" on="0"/>
        <pt x="439" y="495" on="1"/>
        <pt x="439" y="536" on="0"/>
        <pt x="397" y="558" on="0"/>
        <pt x="278" y="558" on="0"/>
        <pt x="261" y="547" on="0"/>
        <pt x="260" y="525" on="1"/>
      </contour>
      <contour>
        <pt x="155" y="762" on="1"/>
        <pt x="150" y="775" on="1"/>
        <pt x="176" y="852" on="1"/>
        <pt x="188" y="857" on="1"/>
        <pt x="303" y="800" on="0"/>
        <pt x="411" y="753" on="1"/>
        <pt x="398" y="706" on="1"/>
        <pt x="384" y="697" on="1"/>
        <pt x="262" y="735" on="0"/>
      </contour>
    </TTGlyph>
    <TTGlyph name="Emacron" xMin="36" yMin="-10" xMax="559" yMax="800">
      <contour>
        <pt x="253" y="370" on="1"/>
        <pt x="346" y="369" on="1"/>
        <pt x="462" y="377" on="1"/>
        <pt x="470" y="368" on="1"/>
        <pt x="456" y="282" on="1"/>
        <pt x="376" y="285" on="0"/>
        <pt x="301" y="285" on="0"/>
        <pt x="250" y="279" on="1"/>
        <pt x="247" y="170" on="0"/>
        <pt x="247" y="99" on="0"/>
        <pt x="268" y="79" on="0"/>
        <pt x="360" y="79" on="0"/>
        <pt x="412" y="86" on="0"/>
        <pt x="448" y="112" on="0"/>
        <pt x="461" y="153" on="0"/>
        <pt x="467" y="193" on="1"/>
        <pt x="552" y="200" on="1"/>
        <pt x="559" y="190" on="1"/>
        <pt x="541" y="100" on="0"/>
        <pt x="531" y="4" on="1"/>
        <pt x="522" y="-7" on="1"/>
        <pt x="334" y="0" on="0"/>
        <pt x="252" y="0" on="1"/>
        <pt x="130" y="0" on="0"/>
        <pt x="36" y="-10" on="1"/>
        <pt x="44" y="58" on="1"/>
        <pt x="85" y="64" on="0"/>
        <pt x="116" y="101" on="0"/>
        <pt x="116" y="144" on="1"/>
        <pt x="117" y="523" on="1"/>
        <pt x="117" y="556" on="0"/>
        <pt x="104" y="577" on="0"/>
        <pt x="84" y="577" on="1"/>
        <pt x="54" y="575" on="1"/>
        <pt x="47" y="584" on="1"/>
        <pt x="55" y="645" on="1"/>
        <pt x="165" y="642" on="0"/>
        <pt x="453" y="642" on="0"/>
        <pt x="544" y="654" on="1"/>
        <pt x="552" y="643" on="1"/>
        <pt x="534" y="554" on="0"/>
        <pt x="529" y="461" on="1"/>
        <pt x="437" y="455" on="1"/>
        <pt x="439" y="481" on="0"/>
        <pt x="439" y="495" on="1"/>
        <pt x="439" y="536" on="0"/>
        <pt x="397" y="558" on="0"/>
        <pt x="278" y="558" on="0"/>
        <pt x="261" y="547" on="0"/>
        <pt x="260" y="525" on="1"/>
      </contour>
      <contour>
        <pt x="463" y="800" on="1"/>
        <pt x="471" y="786" on="1"/>
        <pt x="459" y="709" on="1"/>
        <pt x="179" y="707" on="1"/>
        <pt x="168" y="719" on="1"/>
        <pt x="182" y="795" on="1"/>
        <pt x="277" y="794" on="0"/>
        <pt x="336" y="794" on="1"/>
      </contour>
    </TTGlyph>
    <TTGlyph name="Eng" xMin="36" yMin="-163" xMax="710" yMax="648">
      <contour>
        <pt x="155" y="642" on="1"/>
        <pt x="251" y="646" on="1"/>
        <pt x="355" y="472" on="0"/>
        <pt x="523" y="228" on="1"/>
        <pt x="532" y="228" on="1"/>
        <pt x="531" y="536" on="1"/>
        <pt x="531" y="579" on="0"/>
        <pt x="498" y="579" on="1"/>
        <pt x="463" y="578" on="1"/>
        <pt x="459" y="584" on="1"/>
        <pt x="467" y="646" on="1"/>
        <pt x="563" y="642" on="0"/>
        <pt x="595" y="642" on="1"/>
        <pt x="710" y="648" on="1"/>
        <pt x="705" y="582" on="1"/>
        <pt x="671" y="578" on="0"/>
        <pt x="642" y="549" on="0"/>
        <pt x="641" y="519" on="1"/>
        <pt x="631" y="86" on="1"/>
        <pt x="628" y="-13" on="0"/>
        <pt x="536" y="-130" on="0"/>
        <pt x="434" y="-163" on="1"/>
        <pt x="407" y="-123" on="1"/>
        <pt x="410" y="-112" on="1"/>
        <pt x="453" y="-86" on="0"/>
        <pt x="498" y="-33" on="0"/>
        <pt x="508" y="4" on="1"/>
        <pt x="365" y="228" on="0"/>
        <pt x="230" y="425" on="1"/>
        <pt x="221" y="425" on="1"/>
        <pt x="219" y="108" on="1"/>
        <pt x="220" y="82" on="0"/>
        <pt x="235" y="63" on="0"/>
        <pt x="254" y="63" on="1"/>
        <pt x="297" y="65" on="1"/>
        <pt x="302" y="59" on="1"/>
        <pt x="293" y="-4" on="1"/>
        <pt x="210" y="0" on="0"/>
        <pt x="148" y="0" on="1"/>
        <pt x="45" y="-8" on="1"/>
        <pt x="53" y="57" on="1"/>
        <pt x="85" y="61" on="0"/>
        <pt x="112" y="94" on="0"/>
        <pt x="113" y="133" on="1"/>
        <pt x="125" y="519" on="1"/>
        <pt x="125" y="550" on="0"/>
        <pt x="93" y="575" on="0"/>
        <pt x="43" y="581" on="1"/>
        <pt x="36" y="591" on="1"/>
        <pt x="43" y="647" on="1"/>
        <pt x="118" y="642" on="0"/>
      </contour>
    </TTGlyph>
    <TTGlyph name="Eogonek" xMin="36" yMin="-241" xMax="559" yMax="654">
      <contour>
        <pt x="253" y="370" on="1"/>
        <pt x="346" y="369" on="1"/>
        <pt x="462" y="377" on="1"/>
        <pt x="470" y="368" on="1"/>
        <pt x="456" y="282" on="1"/>
        <pt x="376" y="285" on="0"/>
        <pt x="301" y="285" on="0"/>
        <pt x="250" y="279" on="1"/>
        <pt x="247" y="170" on="0"/>
        <pt x="247" y="99" on="0"/>
        <pt x="268" y="79" on="0"/>
        <pt x="360" y="79" on="0"/>
        <pt x="412" y="86" on="0"/>
        <pt x="448" y="112" on="0"/>
        <pt x="461" y="153" on="0"/>
        <pt x="467" y="193" on="1"/>
        <pt x="552" y="200" on="1"/>
        <pt x="559" y="190" on="1"/>
        <pt x="541" y="100" on="0"/>
        <pt x="531" y="4" on="1"/>
        <pt x="522" y="-7" on="1"/>
        <pt x="506" y="-6" on="0"/>
        <pt x="481" y="-5" on="1"/>
        <pt x="444" y="-49" on="0"/>
        <pt x="416" y="-99" on="0"/>
        <pt x="416" y="-143" on="0"/>
        <pt x="444" y="-170" on="0"/>
        <pt x="463" y="-170" on="1"/>
        <pt x="498" y="-170" on="0"/>
        <pt x="538" y="-146" on="1"/>
        <pt x="556" y="-175" on="1"/>
        <pt x="504" y="-224" on="0"/>
        <pt x="454" y="-241" on="1"/>
        <pt x="400" y="-241" on="0"/>
        <pt x="335" y="-192" on="0"/>
        <pt x="335" y="-119" on="0"/>
        <pt x="377" y="-51" on="0"/>
        <pt x="423" y="-3" on="1"/>
        <pt x="327" y="0" on="0"/>
        <pt x="248" y="0" on="1"/>
        <pt x="130" y="0" on="0"/>
        <pt x="36" y="-10" on="1"/>
        <pt x="44" y="58" on="1"/>
        <pt x="85" y="64" on="0"/>
        <pt x="116" y="101" on="0"/>
        <pt x="116" y="144" on="1"/>
        <pt x="117" y="523" on="1"/>
        <pt x="117" y="556" on="0"/>
        <pt x="104" y="577" on="0"/>
        <pt x="84" y="577" on="1"/>
        <pt x="54" y="575" on="1"/>
        <pt x="47" y="584" on="1"/>
        <pt x="55" y="645" on="1"/>
        <pt x="165" y="642" on="0"/>
        <pt x="453" y="642" on="0"/>
        <pt x="544" y="654" on="1"/>
        <pt x="552" y="643" on="1"/>
        <pt x="534" y="554" on="0"/>
        <pt x="529" y="461" on="1"/>
        <pt x="437" y="455" on="1"/>
        <pt x="439" y="481" on="0"/>
        <pt x="439" y="495" on="1"/>
        <pt x="439" y="536" on="0"/>
        <pt x="397" y="558" on="0"/>
        <pt x="278" y="558" on="0"/>
        <pt x="261" y="547" on="0"/>
        <pt x="260" y="525" on="1"/>
      </contour>
    </TTGlyph>
    <TTGlyph name="Eth" xMin="8" yMin="-12" xMax="680" yMax="647">
      <contour>
        <pt x="333" y="-12" on="1"/>
        <pt x="238" y="0" on="0"/>
        <pt x="198" y="0" on="1"/>
        <pt x="135" y="0" on="0"/>
        <pt x="53" y="-10" on="1"/>
        <pt x="60" y="58" on="1"/>
        <pt x="105" y="66" on="0"/>
        <pt x="132" y="105" on="0"/>
        <pt x="132" y="162" on="1"/>
        <pt x="132" y="286" on="1"/>
        <pt x="16" y="286" on="1"/>
        <pt x="8" y="293" on="1"/>
        <pt x="18" y="353" on="1"/>
        <pt x="132" y="353" on="1"/>
        <pt x="132" y="522" on="1"/>
        <pt x="132" y="554" on="0"/>
        <pt x="120" y="576" on="0"/>
        <pt x="101" y="576" on="1"/>
        <pt x="68" y="574" on="1"/>
        <pt x="62" y="583" on="1"/>
        <pt x="70" y="645" on="1"/>
        <pt x="158" y="642" on="0"/>
        <pt x="198" y="642" on="1"/>
        <pt x="356" y="647" on="1"/>
        <pt x="507" y="647" on="0"/>
        <pt x="680" y="487" on="0"/>
        <pt x="680" y="189" on="0"/>
        <pt x="485" y="-12" on="0"/>
      </contour>
      <contour>
        <pt x="345" y="75" on="1"/>
        <pt x="522" y="75" on="0"/>
        <pt x="522" y="316" on="1"/>
        <pt x="522" y="443" on="0"/>
        <pt x="415" y="560" on="0"/>
        <pt x="303" y="560" on="1"/>
        <pt x="287" y="560" on="0"/>
        <pt x="275" y="550" on="0"/>
        <pt x="274" y="536" on="1"/>
        <pt x="266" y="353" on="1"/>
        <pt x="391" y="355" on="1"/>
        <pt x="397" y="346" on="1"/>
        <pt x="391" y="286" on="1"/>
        <pt x="264" y="286" on="1"/>
        <pt x="262" y="146" on="1"/>
        <pt x="262" y="103" on="0"/>
        <pt x="295" y="75" on="0"/>
      </contour>
    </TTGlyph>
    <TTGlyph name="Euro" xMin="5" yMin="-9" xMax="533" yMax="509">
      <contour>
        <pt x="346" y="68" on="1"/>
        <pt x="390" y="68" on="0"/>
        <pt x="438" y="118" on="0"/>
        <pt x="448" y="174" on="1"/>
        <pt x="532" y="180" on="1"/>
        <pt x="518" y="98" on="0"/>
        <pt x="515" y="31" on="1"/>
        <pt x="507" y="22" on="1"/>
        <pt x="428" y="-9" on="0"/>
        <pt x="230" y="-9" on="0"/>
        <pt x="107" y="82" on="0"/>
        <pt x="88" y="165" on="1"/>
        <pt x="12" y="165" on="1"/>
        <pt x="5" y="172" on="1"/>
        <pt x="12" y="219" on="1"/>
        <pt x="80" y="219" on="1"/>
        <pt x="80" y="237" on="1"/>
        <pt x="80" y="251" on="0"/>
        <pt x="82" y="279" on="1"/>
        <pt x="12" y="279" on="1"/>
        <pt x="5" y="286" on="1"/>
        <pt x="12" y="333" on="1"/>
        <pt x="94" y="333" on="1"/>
        <pt x="120" y="416" on="0"/>
        <pt x="265" y="509" on="0"/>
        <pt x="369" y="509" on="1"/>
        <pt x="436" y="509" on="0"/>
        <pt x="527" y="490" on="1"/>
        <pt x="533" y="479" on="1"/>
        <pt x="516" y="414" on="0"/>
        <pt x="510" y="330" on="1"/>
        <pt x="427" y="325" on="1"/>
        <pt x="428" y="345" on="0"/>
        <pt x="428" y="366" on="1"/>
        <pt x="428" y="430" on="0"/>
        <pt x="340" y="430" on="1"/>
        <pt x="241" y="430" on="0"/>
        <pt x="219" y="333" on="1"/>
        <pt x="370" y="337" on="1"/>
        <pt x="377" y="328" on="1"/>
        <pt x="373" y="280" on="1"/>
        <pt x="212" y="279" on="1"/>
        <pt x="212" y="264" on="1"/>
        <pt x="212" y="247" on="0"/>
        <pt x="214" y="219" on="1"/>
        <pt x="218" y="219" on="1"/>
        <pt x="370" y="223" on="1"/>
        <pt x="377" y="214" on="1"/>
        <pt x="373" y="166" on="1"/>
        <pt x="225" y="165" on="1"/>
        <pt x="256" y="68" on="0"/>
      </contour>
    </TTGlyph>
    <TTGlyph name="F" xMin="36" yMin="-11" xMax="528" yMax="654">
      <contour>
        <pt x="353" y="-4" on="1"/>
        <pt x="248" y="0" on="0"/>
        <pt x="206" y="0" on="1"/>
        <pt x="139" y="0" on="0"/>
        <pt x="36" y="-11" on="1"/>
        <pt x="44" y="57" on="1"/>
        <pt x="86" y="65" on="0"/>
        <pt x="116" y="101" on="0"/>
        <pt x="116" y="144" on="1"/>
        <pt x="117" y="523" on="1"/>
        <pt x="117" y="556" on="0"/>
        <pt x="104" y="577" on="0"/>
        <pt x="84" y="577" on="1"/>
        <pt x="54" y="575" on="1"/>
        <pt x="47" y="584" on="1"/>
        <pt x="55" y="645" on="1"/>
        <pt x="165" y="642" on="0"/>
        <pt x="434" y="642" on="0"/>
        <pt x="521" y="654" on="1"/>
        <pt x="528" y="643" on="1"/>
        <pt x="513" y="552" on="0"/>
        <pt x="508" y="460" on="1"/>
        <pt x="417" y="454" on="1"/>
        <pt x="419" y="482" on="0"/>
        <pt x="419" y="495" on="1"/>
        <pt x="419" y="536" on="0"/>
        <pt x="382" y="558" on="0"/>
        <pt x="278" y="558" on="0"/>
        <pt x="261" y="547" on="0"/>
        <pt x="260" y="525" on="1"/>
        <pt x="253" y="353" on="1"/>
        <pt x="346" y="352" on="1"/>
        <pt x="451" y="360" on="1"/>
        <pt x="459" y="351" on="1"/>
        <pt x="445" y="265" on="1"/>
        <pt x="371" y="268" on="0"/>
        <pt x="290" y="268" on="0"/>
        <pt x="250" y="261" on="1"/>
        <pt x="247" y="142" on="1"/>
        <pt x="247" y="104" on="0"/>
        <pt x="264" y="78" on="0"/>
        <pt x="290" y="78" on="1"/>
        <pt x="355" y="83" on="1"/>
        <pt x="364" y="73" on="1"/>
      </contour>
    </TTGlyph>
    <TTGlyph name="G" xMin="28" yMin="-12" xMax="605" yMax="654">
      <contour>
        <pt x="357" y="329" on="1"/>
        <pt x="496" y="327" on="1"/>
        <pt x="598" y="327" on="0"/>
        <pt x="598" y="332" on="1"/>
        <pt x="605" y="293" on="1"/>
        <pt x="579" y="276" on="0"/>
        <pt x="564" y="214" on="0"/>
        <pt x="564" y="68" on="0"/>
        <pt x="571" y="41" on="1"/>
        <pt x="562" y="28" on="1"/>
        <pt x="520" y="11" on="0"/>
        <pt x="390" y="-12" on="0"/>
        <pt x="326" y="-12" on="1"/>
        <pt x="188" y="-12" on="0"/>
        <pt x="28" y="157" on="0"/>
        <pt x="28" y="467" on="0"/>
        <pt x="218" y="654" on="0"/>
        <pt x="384" y="654" on="1"/>
        <pt x="467" y="654" on="0"/>
        <pt x="582" y="629" on="1"/>
        <pt x="589" y="616" on="1"/>
        <pt x="569" y="536" on="0"/>
        <pt x="563" y="432" on="1"/>
        <pt x="464" y="426" on="1"/>
        <pt x="467" y="451" on="0"/>
        <pt x="467" y="522" on="0"/>
        <pt x="418" y="557" on="0"/>
        <pt x="360" y="557" on="1"/>
        <pt x="270" y="557" on="0"/>
        <pt x="183" y="449" on="0"/>
        <pt x="183" y="215" on="0"/>
        <pt x="271" y="82" on="0"/>
        <pt x="351" y="82" on="1"/>
        <pt x="377" y="82" on="0"/>
        <pt x="425" y="95" on="0"/>
        <pt x="447" y="108" on="1"/>
        <pt x="447" y="201" on="1"/>
        <pt x="447" y="230" on="0"/>
        <pt x="430" y="249" on="0"/>
        <pt x="403" y="249" on="1"/>
        <pt x="352" y="249" on="1"/>
        <pt x="346" y="257" on="1"/>
      </contour>
    </TTGlyph>
    <TTGlyph name="Gbreve" xMin="28" yMin="-12" xMax="605" yMax="862">
      <contour>
        <pt x="357" y="329" on="1"/>
        <pt x="496" y="327" on="1"/>
        <pt x="598" y="327" on="0"/>
        <pt x="598" y="332" on="1"/>
        <pt x="605" y="293" on="1"/>
        <pt x="579" y="276" on="0"/>
        <pt x="564" y="214" on="0"/>
        <pt x="564" y="68" on="0"/>
        <pt x="571" y="41" on="1"/>
        <pt x="562" y="28" on="1"/>
        <pt x="520" y="11" on="0"/>
        <pt x="390" y="-12" on="0"/>
        <pt x="326" y="-12" on="1"/>
        <pt x="188" y="-12" on="0"/>
        <pt x="28" y="157" on="0"/>
        <pt x="28" y="467" on="0"/>
        <pt x="218" y="654" on="0"/>
        <pt x="384" y="654" on="1"/>
        <pt x="467" y="654" on="0"/>
        <pt x="582" y="629" on="1"/>
        <pt x="589" y="616" on="1"/>
        <pt x="569" y="536" on="0"/>
        <pt x="563" y="432" on="1"/>
        <pt x="464" y="426" on="1"/>
        <pt x="467" y="451" on="0"/>
        <pt x="467" y="522" on="0"/>
        <pt x="418" y="557" on="0"/>
        <pt x="360" y="557" on="1"/>
        <pt x="270" y="557" on="0"/>
        <pt x="183" y="449" on="0"/>
        <pt x="183" y="215" on="0"/>
        <pt x="271" y="82" on="0"/>
        <pt x="351" y="82" on="1"/>
        <pt x="377" y="82" on="0"/>
        <pt x="425" y="95" on="0"/>
        <pt x="447" y="108" on="1"/>
        <pt x="447" y="201" on="1"/>
        <pt x="447" y="230" on="0"/>
        <pt x="430" y="249" on="0"/>
        <pt x="403" y="249" on="1"/>
        <pt x="352" y="249" on="1"/>
        <pt x="346" y="257" on="1"/>
      </contour>
      <contour>
        <pt x="278" y="802" on="0"/>
        <pt x="430" y="802" on="0"/>
        <pt x="457" y="862" on="1"/>
        <pt x="474" y="858" on="1"/>
        <pt x="502" y="823" on="1"/>
        <pt x="487" y="773" on="0"/>
        <pt x="413" y="707" on="0"/>
        <pt x="295" y="707" on="0"/>
        <pt x="221" y="773" on="0"/>
        <pt x="206" y="823" on="1"/>
        <pt x="234" y="858" on="1"/>
        <pt x="251" y="862" on="1"/>
      </contour>
    </TTGlyph>
    <TTGlyph name="Gcircumflex" xMin="28" yMin="-12" xMax="605" yMax="904">
      <contour>
        <pt x="357" y="329" on="1"/>
        <pt x="496" y="327" on="1"/>
        <pt x="598" y="327" on="0"/>
        <pt x="598" y="332" on="1"/>
        <pt x="605" y="293" on="1"/>
        <pt x="579" y="276" on="0"/>
        <pt x="564" y="214" on="0"/>
        <pt x="564" y="68" on="0"/>
        <pt x="571" y="41" on="1"/>
        <pt x="562" y="28" on="1"/>
        <pt x="520" y="11" on="0"/>
        <pt x="390" y="-12" on="0"/>
        <pt x="326" y="-12" on="1"/>
        <pt x="188" y="-12" on="0"/>
        <pt x="28" y="157" on="0"/>
        <pt x="28" y="467" on="0"/>
        <pt x="218" y="654" on="0"/>
        <pt x="384" y="654" on="1"/>
        <pt x="467" y="654" on="0"/>
        <pt x="582" y="629" on="1"/>
        <pt x="589" y="616" on="1"/>
        <pt x="569" y="536" on="0"/>
        <pt x="563" y="432" on="1"/>
        <pt x="464" y="426" on="1"/>
        <pt x="467" y="451" on="0"/>
        <pt x="467" y="522" on="0"/>
        <pt x="418" y="557" on="0"/>
        <pt x="360" y="557" on="1"/>
        <pt x="270" y="557" on="0"/>
        <pt x="183" y="449" on="0"/>
        <pt x="183" y="215" on="0"/>
        <pt x="271" y="82" on="0"/>
        <pt x="351" y="82" on="1"/>
        <pt x="377" y="82" on="0"/>
        <pt x="425" y="95" on="0"/>
        <pt x="447" y="108" on="1"/>
        <pt x="447" y="201" on="1"/>
        <pt x="447" y="230" on="0"/>
        <pt x="430" y="249" on="0"/>
        <pt x="403" y="249" on="1"/>
        <pt x="352" y="249" on="1"/>
        <pt x="346" y="257" on="1"/>
      </contour>
      <contour>
        <pt x="215" y="709" on="1"/>
        <pt x="186" y="750" on="1"/>
        <pt x="250" y="810" on="0"/>
        <pt x="338" y="904" on="1"/>
        <pt x="358" y="904" on="1"/>
        <pt x="438" y="818" on="0"/>
        <pt x="509" y="750" on="1"/>
        <pt x="480" y="709" on="1"/>
        <pt x="465" y="705" on="1"/>
        <pt x="445" y="721" on="0"/>
        <pt x="348" y="788" on="1"/>
        <pt x="277" y="742" on="0"/>
        <pt x="231" y="705" on="1"/>
      </contour>
    </TTGlyph>
    <TTGlyph name="Gcommaaccent" xMin="28" yMin="-318" xMax="605" yMax="654">
      <contour>
        <pt x="357" y="329" on="1"/>
        <pt x="496" y="327" on="1"/>
        <pt x="598" y="327" on="0"/>
        <pt x="598" y="332" on="1"/>
        <pt x="605" y="293" on="1"/>
        <pt x="579" y="276" on="0"/>
        <pt x="564" y="214" on="0"/>
        <pt x="564" y="68" on="0"/>
        <pt x="571" y="41" on="1"/>
        <pt x="562" y="28" on="1"/>
        <pt x="520" y="11" on="0"/>
        <pt x="390" y="-12" on="0"/>
        <pt x="326" y="-12" on="1"/>
        <pt x="188" y="-12" on="0"/>
        <pt x="28" y="157" on="0"/>
        <pt x="28" y="467" on="0"/>
        <pt x="218" y="654" on="0"/>
        <pt x="384" y="654" on="1"/>
        <pt x="467" y="654" on="0"/>
        <pt x="582" y="629" on="1"/>
        <pt x="589" y="616" on="1"/>
        <pt x="569" y="536" on="0"/>
        <pt x="563" y="432" on="1"/>
        <pt x="464" y="426" on="1"/>
        <pt x="467" y="451" on="0"/>
        <pt x="467" y="522" on="0"/>
        <pt x="418" y="557" on="0"/>
        <pt x="360" y="557" on="1"/>
        <pt x="270" y="557" on="0"/>
        <pt x="183" y="449" on="0"/>
        <pt x="183" y="215" on="0"/>
        <pt x="271" y="82" on="0"/>
        <pt x="351" y="82" on="1"/>
        <pt x="377" y="82" on="0"/>
        <pt x="425" y="95" on="0"/>
        <pt x="447" y="108" on="1"/>
        <pt x="447" y="201" on="1"/>
        <pt x="447" y="230" on="0"/>
        <pt x="430" y="249" on="0"/>
        <pt x="403" y="249" on="1"/>
        <pt x="352" y="249" on="1"/>
        <pt x="346" y="257" on="1"/>
      </contour>
      <contour>
        <pt x="264" y="-86" on="1"/>
        <pt x="308" y="-51" on="0"/>
        <pt x="373" y="-51" on="0"/>
        <pt x="412" y="-98" on="0"/>
        <pt x="412" y="-187" on="0"/>
        <pt x="329" y="-283" on="0"/>
        <pt x="265" y="-318" on="1"/>
        <pt x="228" y="-288" on="1"/>
        <pt x="228" y="-271" on="1"/>
        <pt x="258" y="-250" on="0"/>
        <pt x="296" y="-194" on="0"/>
        <pt x="296" y="-169" on="1"/>
        <pt x="296" y="-128" on="0"/>
        <pt x="261" y="-100" on="1"/>
      </contour>
    </TTGlyph>
    <TTGlyph name="Gdotaccent" xMin="28" yMin="-12" xMax="605" yMax="854">
      <contour>
        <pt x="357" y="329" on="1"/>
        <pt x="496" y="327" on="1"/>
        <pt x="598" y="327" on="0"/>
        <pt x="598" y="332" on="1"/>
        <pt x="605" y="293" on="1"/>
        <pt x="579" y="276" on="0"/>
        <pt x="564" y="214" on="0"/>
        <pt x="564" y="68" on="0"/>
        <pt x="571" y="41" on="1"/>
        <pt x="562" y="28" on="1"/>
        <pt x="520" y="11" on="0"/>
        <pt x="390" y="-12" on="0"/>
        <pt x="326" y="-12" on="1"/>
        <pt x="188" y="-12" on="0"/>
        <pt x="28" y="157" on="0"/>
        <pt x="28" y="467" on="0"/>
        <pt x="218" y="654" on="0"/>
        <pt x="384" y="654" on="1"/>
        <pt x="467" y="654" on="0"/>
        <pt x="582" y="629" on="1"/>
        <pt x="589" y="616" on="1"/>
        <pt x="569" y="536" on="0"/>
        <pt x="563" y="432" on="1"/>
        <pt x="464" y="426" on="1"/>
        <pt x="467" y="451" on="0"/>
        <pt x="467" y="522" on="0"/>
        <pt x="418" y="557" on="0"/>
        <pt x="360" y="557" on="1"/>
        <pt x="270" y="557" on="0"/>
        <pt x="183" y="449" on="0"/>
        <pt x="183" y="215" on="0"/>
        <pt x="271" y="82" on="0"/>
        <pt x="351" y="82" on="1"/>
        <pt x="377" y="82" on="0"/>
        <pt x="425" y="95" on="0"/>
        <pt x="447" y="108" on="1"/>
        <pt x="447" y="201" on="1"/>
        <pt x="447" y="230" on="0"/>
        <pt x="430" y="249" on="0"/>
        <pt x="403" y="249" on="1"/>
        <pt x="352" y="249" on="1"/>
        <pt x="346" y="257" on="1"/>
      </contour>
      <contour>
        <pt x="431" y="747" on="0"/>
        <pt x="387" y="702" on="0"/>
        <pt x="317" y="702" on="0"/>
        <pt x="281" y="742" on="0"/>
        <pt x="281" y="809" on="0"/>
        <pt x="325" y="854" on="0"/>
        <pt x="394" y="854" on="0"/>
        <pt x="431" y="815" on="0"/>
      </contour>
    </TTGlyph>
    <TTGlyph name="H" xMin="37" yMin="-9" xMax="712" yMax="649">
      <contour>
        <pt x="629" y="133" on="1"/>
        <pt x="629" y="94" on="0"/>
        <pt x="647" y="66" on="0"/>
        <pt x="671" y="66" on="1"/>
        <pt x="707" y="69" on="1"/>
        <pt x="712" y="61" on="1"/>
        <pt x="703" y="-3" on="1"/>
        <pt x="620" y="0" on="0"/>
        <pt x="557" y="0" on="1"/>
        <pt x="418" y="-2" on="1"/>
        <pt x="426" y="64" on="1"/>
        <pt x="468" y="65" on="0"/>
        <pt x="498" y="102" on="0"/>
        <pt x="498" y="156" on="1"/>
        <pt x="498" y="283" on="1"/>
        <pt x="426" y="284" on="0"/>
        <pt x="390" y="284" on="1"/>
        <pt x="250" y="274" on="1"/>
        <pt x="248" y="133" on="1"/>
        <pt x="248" y="92" on="0"/>
        <pt x="263" y="65" on="0"/>
        <pt x="286" y="65" on="1"/>
        <pt x="322" y="68" on="1"/>
        <pt x="327" y="61" on="1"/>
        <pt x="318" y="-3" on="1"/>
        <pt x="234" y="0" on="0"/>
        <pt x="167" y="0" on="0"/>
        <pt x="129" y="-2" on="1"/>
        <pt x="37" y="-5" on="0"/>
        <pt x="37" y="-9" on="1"/>
        <pt x="44" y="56" on="1"/>
        <pt x="88" y="65" on="0"/>
        <pt x="116" y="98" on="0"/>
        <pt x="116" y="140" on="1"/>
        <pt x="117" y="525" on="1"/>
        <pt x="117" y="556" on="0"/>
        <pt x="103" y="577" on="0"/>
        <pt x="81" y="577" on="1"/>
        <pt x="50" y="576" on="1"/>
        <pt x="45" y="584" on="1"/>
        <pt x="53" y="643" on="1"/>
        <pt x="132" y="642" on="0"/>
        <pt x="172" y="642" on="1"/>
        <pt x="323" y="649" on="1"/>
        <pt x="318" y="582" on="1"/>
        <pt x="280" y="576" on="0"/>
        <pt x="260" y="551" on="0"/>
        <pt x="258" y="511" on="1"/>
        <pt x="252" y="368" on="1"/>
        <pt x="380" y="366" on="1"/>
        <pt x="442" y="366" on="0"/>
        <pt x="498" y="373" on="1"/>
        <pt x="498" y="525" on="1"/>
        <pt x="498" y="556" on="0"/>
        <pt x="484" y="577" on="0"/>
        <pt x="462" y="577" on="1"/>
        <pt x="431" y="576" on="1"/>
        <pt x="426" y="584" on="1"/>
        <pt x="434" y="643" on="1"/>
        <pt x="519" y="642" on="0"/>
        <pt x="562" y="642" on="1"/>
        <pt x="709" y="649" on="1"/>
        <pt x="703" y="583" on="1"/>
        <pt x="666" y="578" on="0"/>
        <pt x="643" y="557" on="0"/>
        <pt x="641" y="528" on="1"/>
        <pt x="629" y="298" on="0"/>
      </contour>
    </TTGlyph>
    <TTGlyph name="Hbar" xMin="19" yMin="-9" xMax="727" yMax="649">
      <contour>
        <pt x="628" y="133" on="1"/>
        <pt x="628" y="94" on="0"/>
        <pt x="646" y="66" on="0"/>
        <pt x="670" y="66" on="1"/>
        <pt x="706" y="69" on="1"/>
        <pt x="711" y="61" on="1"/>
        <pt x="702" y="-3" on="1"/>
        <pt x="619" y="0" on="0"/>
        <pt x="556" y="0" on="1"/>
        <pt x="417" y="-2" on="1"/>
        <pt x="425" y="64" on="1"/>
        <pt x="467" y="65" on="0"/>
        <pt x="497" y="102" on="0"/>
        <pt x="497" y="156" on="1"/>
        <pt x="497" y="283" on="1"/>
        <pt x="425" y="284" on="0"/>
        <pt x="389" y="284" on="1"/>
        <pt x="249" y="274" on="1"/>
        <pt x="247" y="133" on="1"/>
        <pt x="247" y="92" on="0"/>
        <pt x="262" y="65" on="0"/>
        <pt x="285" y="65" on="1"/>
        <pt x="321" y="68" on="1"/>
        <pt x="326" y="61" on="1"/>
        <pt x="317" y="-3" on="1"/>
        <pt x="233" y="0" on="0"/>
        <pt x="166" y="0" on="0"/>
        <pt x="128" y="-2" on="1"/>
        <pt x="36" y="-5" on="0"/>
        <pt x="36" y="-9" on="1"/>
        <pt x="43" y="56" on="1"/>
        <pt x="87" y="65" on="0"/>
        <pt x="115" y="98" on="0"/>
        <pt x="115" y="140" on="1"/>
        <pt x="116" y="442" on="1"/>
        <pt x="29" y="442" on="1"/>
        <pt x="19" y="452" on="1"/>
        <pt x="27" y="500" on="1"/>
        <pt x="65" y="499" on="0"/>
        <pt x="116" y="499" on="1"/>
        <pt x="116" y="525" on="1"/>
        <pt x="116" y="556" on="0"/>
        <pt x="102" y="577" on="0"/>
        <pt x="80" y="577" on="1"/>
        <pt x="49" y="576" on="1"/>
        <pt x="44" y="584" on="1"/>
        <pt x="52" y="643" on="1"/>
        <pt x="131" y="642" on="0"/>
        <pt x="171" y="642" on="1"/>
        <pt x="322" y="649" on="1"/>
        <pt x="317" y="582" on="1"/>
        <pt x="279" y="576" on="0"/>
        <pt x="269" y="564" on="1"/>
        <pt x="260" y="553" on="0"/>
        <pt x="256" y="499" on="1"/>
        <pt x="497" y="499" on="1"/>
        <pt x="497" y="525" on="1"/>
        <pt x="497" y="556" on="0"/>
        <pt x="483" y="577" on="0"/>
        <pt x="461" y="577" on="1"/>
        <pt x="430" y="576" on="1"/>
        <pt x="425" y="584" on="1"/>
        <pt x="433" y="643" on="1"/>
        <pt x="518" y="642" on="0"/>
        <pt x="561" y="642" on="1"/>
        <pt x="708" y="649" on="1"/>
        <pt x="702" y="583" on="1"/>
        <pt x="665" y="578" on="0"/>
        <pt x="642" y="557" on="0"/>
        <pt x="640" y="528" on="1"/>
        <pt x="638" y="502" on="1"/>
        <pt x="713" y="504" on="1"/>
        <pt x="727" y="490" on="1"/>
        <pt x="722" y="444" on="1"/>
        <pt x="636" y="444" on="1"/>
        <pt x="628" y="276" on="0"/>
      </contour>
      <contour>
        <pt x="497" y="443" on="1"/>
        <pt x="254" y="443" on="1"/>
        <pt x="251" y="368" on="1"/>
        <pt x="379" y="366" on="1"/>
        <pt x="441" y="366" on="0"/>
        <pt x="497" y="373" on="1"/>
      </contour>
    </TTGlyph>
    <TTGlyph name="Hcircumflex" xMin="37" yMin="-9" xMax="712" yMax="930">
      <contour>
        <pt x="629" y="133" on="1"/>
        <pt x="629" y="94" on="0"/>
        <pt x="647" y="66" on="0"/>
        <pt x="671" y="66" on="1"/>
        <pt x="707" y="69" on="1"/>
        <pt x="712" y="61" on="1"/>
        <pt x="703" y="-3" on="1"/>
        <pt x="620" y="0" on="0"/>
        <pt x="557" y="0" on="1"/>
        <pt x="418" y="-2" on="1"/>
        <pt x="426" y="64" on="1"/>
        <pt x="468" y="65" on="0"/>
        <pt x="498" y="102" on="0"/>
        <pt x="498" y="156" on="1"/>
        <pt x="498" y="283" on="1"/>
        <pt x="426" y="284" on="0"/>
        <pt x="390" y="284" on="1"/>
        <pt x="250" y="274" on="1"/>
        <pt x="248" y="133" on="1"/>
        <pt x="248" y="92" on="0"/>
        <pt x="263" y="65" on="0"/>
        <pt x="286" y="65" on="1"/>
        <pt x="322" y="68" on="1"/>
        <pt x="327" y="61" on="1"/>
        <pt x="318" y="-3" on="1"/>
        <pt x="234" y="0" on="0"/>
        <pt x="167" y="0" on="0"/>
        <pt x="129" y="-2" on="1"/>
        <pt x="37" y="-5" on="0"/>
        <pt x="37" y="-9" on="1"/>
        <pt x="44" y="56" on="1"/>
        <pt x="88" y="65" on="0"/>
        <pt x="116" y="98" on="0"/>
        <pt x="116" y="140" on="1"/>
        <pt x="117" y="525" on="1"/>
        <pt x="117" y="556" on="0"/>
        <pt x="103" y="577" on="0"/>
        <pt x="81" y="577" on="1"/>
        <pt x="50" y="576" on="1"/>
        <pt x="45" y="584" on="1"/>
        <pt x="53" y="643" on="1"/>
        <pt x="132" y="642" on="0"/>
        <pt x="172" y="642" on="1"/>
        <pt x="323" y="649" on="1"/>
        <pt x="318" y="582" on="1"/>
        <pt x="280" y="576" on="0"/>
        <pt x="260" y="551" on="0"/>
        <pt x="258" y="511" on="1"/>
        <pt x="252" y="368" on="1"/>
        <pt x="380" y="366" on="1"/>
        <pt x="442" y="366" on="0"/>
        <pt x="498" y="373" on="1"/>
        <pt x="498" y="525" on="1"/>
        <pt x="498" y="556" on="0"/>
        <pt x="484" y="577" on="0"/>
        <pt x="462" y="577" on="1"/>
        <pt x="431" y="576" on="1"/>
        <pt x="426" y="584" on="1"/>
        <pt x="434" y="643" on="1"/>
        <pt x="519" y="642" on="0"/>
        <pt x="562" y="642" on="1"/>
        <pt x="709" y="649" on="1"/>
        <pt x="703" y="583" on="1"/>
        <pt x="666" y="578" on="0"/>
        <pt x="643" y="557" on="0"/>
        <pt x="641" y="528" on="1"/>
        <pt x="629" y="298" on="0"/>
      </contour>
      <contour>
        <pt x="241" y="735" on="1"/>
        <pt x="212" y="776" on="1"/>
        <pt x="276" y="836" on="0"/>
        <pt x="364" y="930" on="1"/>
        <pt x="384" y="930" on="1"/>
        <pt x="464" y="844" on="0"/>
        <pt x="535" y="776" on="1"/>
        <pt x="506" y="735" on="1"/>
        <pt x="491" y="731" on="1"/>
        <pt x="471" y="747" on="0"/>
        <pt x="374" y="814" on="1"/>
        <pt x="303" y="768" on="0"/>
        <pt x="257" y="731" on="1"/>
      </contour>
    </TTGlyph>
    <TTGlyph name="I" xMin="36" yMin="-9" xMax="334" yMax="649">
      <contour>
        <pt x="48" y="643" on="1"/>
        <pt x="188" y="642" on="1"/>
        <pt x="330" y="649" on="1"/>
        <pt x="324" y="582" on="1"/>
        <pt x="286" y="577" on="0"/>
        <pt x="262" y="556" on="0"/>
        <pt x="260" y="528" on="1"/>
        <pt x="248" y="321" on="0"/>
        <pt x="248" y="133" on="1"/>
        <pt x="248" y="92" on="0"/>
        <pt x="263" y="65" on="0"/>
        <pt x="286" y="65" on="1"/>
        <pt x="329" y="68" on="1"/>
        <pt x="334" y="61" on="1"/>
        <pt x="325" y="-3" on="1"/>
        <pt x="221" y="0" on="0"/>
        <pt x="186" y="0" on="1"/>
        <pt x="117" y="0" on="0"/>
        <pt x="36" y="-9" on="1"/>
        <pt x="43" y="56" on="1"/>
        <pt x="87" y="65" on="0"/>
        <pt x="116" y="99" on="0"/>
        <pt x="116" y="140" on="1"/>
        <pt x="117" y="525" on="1"/>
        <pt x="117" y="556" on="0"/>
        <pt x="103" y="577" on="0"/>
        <pt x="81" y="577" on="1"/>
        <pt x="46" y="576" on="1"/>
        <pt x="41" y="584" on="1"/>
      </contour>
    </TTGlyph>
    <TTGlyph name="IJ" xMin="36" yMin="-154" xMax="673" yMax="650">
      <contour>
        <pt x="48" y="643" on="1"/>
        <pt x="188" y="642" on="1"/>
        <pt x="330" y="649" on="1"/>
        <pt x="324" y="582" on="1"/>
        <pt x="286" y="577" on="0"/>
        <pt x="262" y="556" on="0"/>
        <pt x="260" y="528" on="1"/>
        <pt x="248" y="321" on="0"/>
        <pt x="248" y="133" on="1"/>
        <pt x="248" y="92" on="0"/>
        <pt x="263" y="65" on="0"/>
        <pt x="286" y="65" on="1"/>
        <pt x="329" y="68" on="1"/>
        <pt x="334" y="61" on="1"/>
        <pt x="325" y="-3" on="1"/>
        <pt x="221" y="0" on="0"/>
        <pt x="186" y="0" on="1"/>
        <pt x="117" y="0" on="0"/>
        <pt x="36" y="-9" on="1"/>
        <pt x="43" y="56" on="1"/>
        <pt x="87" y="65" on="0"/>
        <pt x="116" y="99" on="0"/>
        <pt x="116" y="140" on="1"/>
        <pt x="117" y="525" on="1"/>
        <pt x="117" y="556" on="0"/>
        <pt x="103" y="577" on="0"/>
        <pt x="81" y="577" on="1"/>
        <pt x="46" y="576" on="1"/>
        <pt x="41" y="584" on="1"/>
      </contour>
      <contour>
        <pt x="472" y="123" on="1"/>
        <pt x="472" y="525" on="1"/>
        <pt x="472" y="557" on="0"/>
        <pt x="459" y="577" on="0"/>
        <pt x="437" y="577" on="1"/>
        <pt x="396" y="574" on="1"/>
        <pt x="390" y="582" on="1"/>
        <pt x="398" y="642" on="1"/>
        <pt x="522" y="642" on="1"/>
        <pt x="673" y="650" on="1"/>
        <pt x="667" y="582" on="1"/>
        <pt x="635" y="576" on="0"/>
        <pt x="617" y="557" on="0"/>
        <pt x="615" y="528" on="1"/>
        <pt x="603" y="310" on="0"/>
        <pt x="603" y="101" on="1"/>
        <pt x="602" y="2" on="0"/>
        <pt x="507" y="-120" on="0"/>
        <pt x="403" y="-154" on="1"/>
        <pt x="375" y="-113" on="1"/>
        <pt x="377" y="-102" on="1"/>
        <pt x="434" y="-61" on="0"/>
        <pt x="472" y="30" on="0"/>
      </contour>
    </TTGlyph>
    <TTGlyph name="Iacute" xMin="36" yMin="-9" xMax="360" yMax="857">
      <contour>
        <pt x="48" y="643" on="1"/>
        <pt x="188" y="642" on="1"/>
        <pt x="330" y="649" on="1"/>
        <pt x="324" y="582" on="1"/>
        <pt x="286" y="577" on="0"/>
        <pt x="262" y="556" on="0"/>
        <pt x="260" y="528" on="1"/>
        <pt x="248" y="321" on="0"/>
        <pt x="248" y="133" on="1"/>
        <pt x="248" y="92" on="0"/>
        <pt x="263" y="65" on="0"/>
        <pt x="286" y="65" on="1"/>
        <pt x="329" y="68" on="1"/>
        <pt x="334" y="61" on="1"/>
        <pt x="325" y="-3" on="1"/>
        <pt x="221" y="0" on="0"/>
        <pt x="186" y="0" on="1"/>
        <pt x="117" y="0" on="0"/>
        <pt x="36" y="-9" on="1"/>
        <pt x="43" y="56" on="1"/>
        <pt x="87" y="65" on="0"/>
        <pt x="116" y="99" on="0"/>
        <pt x="116" y="140" on="1"/>
        <pt x="117" y="525" on="1"/>
        <pt x="117" y="556" on="0"/>
        <pt x="103" y="577" on="0"/>
        <pt x="81" y="577" on="1"/>
        <pt x="46" y="576" on="1"/>
        <pt x="41" y="584" on="1"/>
      </contour>
      <contour>
        <pt x="360" y="775" on="1"/>
        <pt x="354" y="762" on="1"/>
        <pt x="239" y="733" on="0"/>
        <pt x="125" y="697" on="1"/>
        <pt x="112" y="706" on="1"/>
        <pt x="99" y="753" on="1"/>
        <pt x="322" y="857" on="1"/>
        <pt x="334" y="852" on="1"/>
      </contour>
    </TTGlyph>
    <TTGlyph name="Ibreve" xMin="36" yMin="-9" xMax="336" yMax="880">
      <contour>
        <pt x="48" y="643" on="1"/>
        <pt x="188" y="642" on="1"/>
        <pt x="330" y="649" on="1"/>
        <pt x="324" y="582" on="1"/>
        <pt x="286" y="577" on="0"/>
        <pt x="262" y="556" on="0"/>
        <pt x="260" y="528" on="1"/>
        <pt x="248" y="321" on="0"/>
        <pt x="248" y="133" on="1"/>
        <pt x="248" y="92" on="0"/>
        <pt x="263" y="65" on="0"/>
        <pt x="286" y="65" on="1"/>
        <pt x="329" y="68" on="1"/>
        <pt x="334" y="61" on="1"/>
        <pt x="325" y="-3" on="1"/>
        <pt x="221" y="0" on="0"/>
        <pt x="186" y="0" on="1"/>
        <pt x="117" y="0" on="0"/>
        <pt x="36" y="-9" on="1"/>
        <pt x="43" y="56" on="1"/>
        <pt x="87" y="65" on="0"/>
        <pt x="116" y="99" on="0"/>
        <pt x="116" y="140" on="1"/>
        <pt x="117" y="525" on="1"/>
        <pt x="117" y="556" on="0"/>
        <pt x="103" y="577" on="0"/>
        <pt x="81" y="577" on="1"/>
        <pt x="46" y="576" on="1"/>
        <pt x="41" y="584" on="1"/>
      </contour>
      <contour>
        <pt x="112" y="812" on="0"/>
        <pt x="264" y="812" on="0"/>
        <pt x="291" y="880" on="1"/>
        <pt x="308" y="876" on="1"/>
        <pt x="336" y="842" on="1"/>
        <pt x="321" y="788" on="0"/>
        <pt x="247" y="717" on="0"/>
        <pt x="129" y="717" on="0"/>
        <pt x="55" y="788" on="0"/>
        <pt x="40" y="842" on="1"/>
        <pt x="68" y="876" on="1"/>
        <pt x="85" y="880" on="1"/>
      </contour>
    </TTGlyph>
    <TTGlyph name="Icircumflex" xMin="19" yMin="-9" xMax="353" yMax="876">
      <contour>
        <pt x="48" y="643" on="1"/>
        <pt x="188" y="642" on="1"/>
        <pt x="330" y="649" on="1"/>
        <pt x="324" y="582" on="1"/>
        <pt x="286" y="577" on="0"/>
        <pt x="262" y="556" on="0"/>
        <pt x="260" y="528" on="1"/>
        <pt x="248" y="321" on="0"/>
        <pt x="248" y="133" on="1"/>
        <pt x="248" y="92" on="0"/>
        <pt x="263" y="65" on="0"/>
        <pt x="286" y="65" on="1"/>
        <pt x="329" y="68" on="1"/>
        <pt x="334" y="61" on="1"/>
        <pt x="325" y="-3" on="1"/>
        <pt x="221" y="0" on="0"/>
        <pt x="186" y="0" on="1"/>
        <pt x="117" y="0" on="0"/>
        <pt x="36" y="-9" on="1"/>
        <pt x="43" y="56" on="1"/>
        <pt x="87" y="65" on="0"/>
        <pt x="116" y="99" on="0"/>
        <pt x="116" y="140" on="1"/>
        <pt x="117" y="525" on="1"/>
        <pt x="117" y="556" on="0"/>
        <pt x="103" y="577" on="0"/>
        <pt x="81" y="577" on="1"/>
        <pt x="46" y="576" on="1"/>
        <pt x="41" y="584" on="1"/>
      </contour>
      <contour>
        <pt x="196" y="876" on="1"/>
        <pt x="196" y="877" on="0"/>
        <pt x="322" y="776" on="0"/>
        <pt x="353" y="752" on="1"/>
        <pt x="329" y="711" on="1"/>
        <pt x="313" y="707" on="1"/>
        <pt x="263" y="732" on="0"/>
        <pt x="186" y="765" on="1"/>
        <pt x="138" y="745" on="0"/>
        <pt x="60" y="707" on="1"/>
        <pt x="44" y="711" on="1"/>
        <pt x="19" y="752" on="1"/>
        <pt x="92" y="805" on="0"/>
        <pt x="176" y="876" on="1"/>
      </contour>
    </TTGlyph>
    <TTGlyph name="Idieresis" xMin="33" yMin="-9" xMax="338" yMax="834">
      <contour>
        <pt x="48" y="643" on="1"/>
        <pt x="188" y="642" on="1"/>
        <pt x="330" y="649" on="1"/>
        <pt x="324" y="582" on="1"/>
        <pt x="286" y="577" on="0"/>
        <pt x="262" y="556" on="0"/>
        <pt x="260" y="528" on="1"/>
        <pt x="248" y="321" on="0"/>
        <pt x="248" y="133" on="1"/>
        <pt x="248" y="92" on="0"/>
        <pt x="263" y="65" on="0"/>
        <pt x="286" y="65" on="1"/>
        <pt x="329" y="68" on="1"/>
        <pt x="334" y="61" on="1"/>
        <pt x="325" y="-3" on="1"/>
        <pt x="221" y="0" on="0"/>
        <pt x="186" y="0" on="1"/>
        <pt x="117" y="0" on="0"/>
        <pt x="36" y="-9" on="1"/>
        <pt x="43" y="56" on="1"/>
        <pt x="87" y="65" on="0"/>
        <pt x="116" y="99" on="0"/>
        <pt x="116" y="140" on="1"/>
        <pt x="117" y="525" on="1"/>
        <pt x="117" y="556" on="0"/>
        <pt x="103" y="577" on="0"/>
        <pt x="81" y="577" on="1"/>
        <pt x="46" y="576" on="1"/>
        <pt x="41" y="584" on="1"/>
      </contour>
      <contour>
        <pt x="338" y="744" on="0"/>
        <pt x="301" y="706" on="0"/>
        <pt x="242" y="706" on="0"/>
        <pt x="211" y="739" on="0"/>
        <pt x="211" y="796" on="0"/>
        <pt x="248" y="834" on="0"/>
        <pt x="307" y="834" on="0"/>
        <pt x="338" y="801" on="0"/>
      </contour>
      <contour>
        <pt x="160" y="744" on="0"/>
        <pt x="123" y="706" on="0"/>
        <pt x="64" y="706" on="0"/>
        <pt x="33" y="739" on="0"/>
        <pt x="33" y="796" on="0"/>
        <pt x="70" y="834" on="0"/>
        <pt x="128" y="834" on="0"/>
        <pt x="160" y="801" on="0"/>
      </contour>
    </TTGlyph>
    <TTGlyph name="Idotaccent" xMin="36" yMin="-9" xMax="334" yMax="854">
      <contour>
        <pt x="48" y="643" on="1"/>
        <pt x="188" y="642" on="1"/>
        <pt x="330" y="649" on="1"/>
        <pt x="324" y="582" on="1"/>
        <pt x="286" y="577" on="0"/>
        <pt x="262" y="556" on="0"/>
        <pt x="260" y="528" on="1"/>
        <pt x="248" y="321" on="0"/>
        <pt x="248" y="133" on="1"/>
        <pt x="248" y="92" on="0"/>
        <pt x="263" y="65" on="0"/>
        <pt x="286" y="65" on="1"/>
        <pt x="329" y="68" on="1"/>
        <pt x="334" y="61" on="1"/>
        <pt x="325" y="-3" on="1"/>
        <pt x="221" y="0" on="0"/>
        <pt x="186" y="0" on="1"/>
        <pt x="117" y="0" on="0"/>
        <pt x="36" y="-9" on="1"/>
        <pt x="43" y="56" on="1"/>
        <pt x="87" y="65" on="0"/>
        <pt x="116" y="99" on="0"/>
        <pt x="116" y="140" on="1"/>
        <pt x="117" y="525" on="1"/>
        <pt x="117" y="556" on="0"/>
        <pt x="103" y="577" on="0"/>
        <pt x="81" y="577" on="1"/>
        <pt x="46" y="576" on="1"/>
        <pt x="41" y="584" on="1"/>
      </contour>
      <contour>
        <pt x="262" y="747" on="0"/>
        <pt x="218" y="702" on="0"/>
        <pt x="148" y="702" on="0"/>
        <pt x="112" y="742" on="0"/>
        <pt x="112" y="809" on="0"/>
        <pt x="156" y="854" on="0"/>
        <pt x="225" y="854" on="0"/>
        <pt x="262" y="815" on="0"/>
      </contour>
    </TTGlyph>
    <TTGlyph name="Igrave" xMin="18" yMin="-9" xMax="334" yMax="857">
      <contour>
        <pt x="48" y="643" on="1"/>
        <pt x="188" y="642" on="1"/>
        <pt x="330" y="649" on="1"/>
        <pt x="324" y="582" on="1"/>
        <pt x="286" y="577" on="0"/>
        <pt x="262" y="556" on="0"/>
        <pt x="260" y="528" on="1"/>
        <pt x="248" y="321" on="0"/>
        <pt x="248" y="133" on="1"/>
        <pt x="248" y="92" on="0"/>
        <pt x="263" y="65" on="0"/>
        <pt x="286" y="65" on="1"/>
        <pt x="329" y="68" on="1"/>
        <pt x="334" y="61" on="1"/>
        <pt x="325" y="-3" on="1"/>
        <pt x="221" y="0" on="0"/>
        <pt x="186" y="0" on="1"/>
        <pt x="117" y="0" on="0"/>
        <pt x="36" y="-9" on="1"/>
        <pt x="43" y="56" on="1"/>
        <pt x="87" y="65" on="0"/>
        <pt x="116" y="99" on="0"/>
        <pt x="116" y="140" on="1"/>
        <pt x="117" y="525" on="1"/>
        <pt x="117" y="556" on="0"/>
        <pt x="103" y="577" on="0"/>
        <pt x="81" y="577" on="1"/>
        <pt x="46" y="576" on="1"/>
        <pt x="41" y="584" on="1"/>
      </contour>
      <contour>
        <pt x="23" y="762" on="1"/>
        <pt x="18" y="775" on="1"/>
        <pt x="44" y="852" on="1"/>
        <pt x="56" y="857" on="1"/>
        <pt x="171" y="800" on="0"/>
        <pt x="279" y="753" on="1"/>
        <pt x="266" y="706" on="1"/>
        <pt x="252" y="697" on="1"/>
        <pt x="130" y="735" on="0"/>
      </contour>
    </TTGlyph>
    <TTGlyph name="Imacron" xMin="36" yMin="-9" xMax="339" yMax="800">
      <contour>
        <pt x="48" y="643" on="1"/>
        <pt x="188" y="642" on="1"/>
        <pt x="330" y="649" on="1"/>
        <pt x="324" y="582" on="1"/>
        <pt x="286" y="577" on="0"/>
        <pt x="262" y="556" on="0"/>
        <pt x="260" y="528" on="1"/>
        <pt x="248" y="321" on="0"/>
        <pt x="248" y="133" on="1"/>
        <pt x="248" y="92" on="0"/>
        <pt x="263" y="65" on="0"/>
        <pt x="286" y="65" on="1"/>
        <pt x="329" y="68" on="1"/>
        <pt x="334" y="61" on="1"/>
        <pt x="325" y="-3" on="1"/>
        <pt x="221" y="0" on="0"/>
        <pt x="186" y="0" on="1"/>
        <pt x="117" y="0" on="0"/>
        <pt x="36" y="-9" on="1"/>
        <pt x="43" y="56" on="1"/>
        <pt x="87" y="65" on="0"/>
        <pt x="116" y="99" on="0"/>
        <pt x="116" y="140" on="1"/>
        <pt x="117" y="525" on="1"/>
        <pt x="117" y="556" on="0"/>
        <pt x="103" y="577" on="0"/>
        <pt x="81" y="577" on="1"/>
        <pt x="46" y="576" on="1"/>
        <pt x="41" y="584" on="1"/>
      </contour>
      <contour>
        <pt x="331" y="800" on="1"/>
        <pt x="339" y="786" on="1"/>
        <pt x="327" y="709" on="1"/>
        <pt x="47" y="707" on="1"/>
        <pt x="36" y="719" on="1"/>
        <pt x="50" y="795" on="1"/>
        <pt x="145" y="794" on="0"/>
        <pt x="204" y="794" on="1"/>
      </contour>
    </TTGlyph>
    <TTGlyph name="Iogonek" xMin="36" yMin="-241" xMax="345" yMax="649">
      <contour>
        <pt x="48" y="643" on="1"/>
        <pt x="188" y="642" on="1"/>
        <pt x="330" y="649" on="1"/>
        <pt x="324" y="582" on="1"/>
        <pt x="286" y="577" on="0"/>
        <pt x="262" y="556" on="0"/>
        <pt x="260" y="528" on="1"/>
        <pt x="248" y="321" on="0"/>
        <pt x="248" y="133" on="1"/>
        <pt x="248" y="92" on="0"/>
        <pt x="263" y="65" on="0"/>
        <pt x="286" y="65" on="1"/>
        <pt x="329" y="68" on="1"/>
        <pt x="334" y="61" on="1"/>
        <pt x="325" y="-3" on="1"/>
        <pt x="301" y="-2" on="0"/>
        <pt x="273" y="-1" on="1"/>
        <pt x="234" y="-47" on="0"/>
        <pt x="205" y="-99" on="0"/>
        <pt x="205" y="-143" on="0"/>
        <pt x="233" y="-170" on="0"/>
        <pt x="252" y="-170" on="1"/>
        <pt x="287" y="-170" on="0"/>
        <pt x="327" y="-146" on="1"/>
        <pt x="345" y="-175" on="1"/>
        <pt x="293" y="-224" on="0"/>
        <pt x="243" y="-241" on="1"/>
        <pt x="189" y="-241" on="0"/>
        <pt x="124" y="-192" on="0"/>
        <pt x="124" y="-118" on="0"/>
        <pt x="168" y="-49" on="0"/>
        <pt x="215" y="0" on="1"/>
        <pt x="176" y="0" on="1"/>
        <pt x="117" y="0" on="0"/>
        <pt x="36" y="-9" on="1"/>
        <pt x="43" y="56" on="1"/>
        <pt x="87" y="65" on="0"/>
        <pt x="116" y="99" on="0"/>
        <pt x="116" y="140" on="1"/>
        <pt x="117" y="525" on="1"/>
        <pt x="117" y="556" on="0"/>
        <pt x="103" y="577" on="0"/>
        <pt x="81" y="577" on="1"/>
        <pt x="46" y="576" on="1"/>
        <pt x="41" y="584" on="1"/>
      </contour>
    </TTGlyph>
    <TTGlyph name="Itilde" xMin="6" yMin="-9" xMax="366" yMax="889">
      <contour>
        <pt x="48" y="643" on="1"/>
        <pt x="188" y="642" on="1"/>
        <pt x="330" y="649" on="1"/>
        <pt x="324" y="582" on="1"/>
        <pt x="286" y="577" on="0"/>
        <pt x="262" y="556" on="0"/>
        <pt x="260" y="528" on="1"/>
        <pt x="248" y="321" on="0"/>
        <pt x="248" y="133" on="1"/>
        <pt x="248" y="92" on="0"/>
        <pt x="263" y="65" on="0"/>
        <pt x="286" y="65" on="1"/>
        <pt x="329" y="68" on="1"/>
        <pt x="334" y="61" on="1"/>
        <pt x="325" y="-3" on="1"/>
        <pt x="221" y="0" on="0"/>
        <pt x="186" y="0" on="1"/>
        <pt x="117" y="0" on="0"/>
        <pt x="36" y="-9" on="1"/>
        <pt x="43" y="56" on="1"/>
        <pt x="87" y="65" on="0"/>
        <pt x="116" y="99" on="0"/>
        <pt x="116" y="140" on="1"/>
        <pt x="117" y="525" on="1"/>
        <pt x="117" y="556" on="0"/>
        <pt x="103" y="577" on="0"/>
        <pt x="81" y="577" on="1"/>
        <pt x="46" y="576" on="1"/>
        <pt x="41" y="584" on="1"/>
      </contour>
      <contour>
        <pt x="119" y="866" on="0"/>
        <pt x="237" y="833" on="0"/>
        <pt x="261" y="833" on="0"/>
        <pt x="294" y="861" on="0"/>
        <pt x="316" y="889" on="1"/>
        <pt x="327" y="889" on="1"/>
        <pt x="366" y="852" on="1"/>
        <pt x="366" y="842" on="1"/>
        <pt x="288" y="740" on="1"/>
        <pt x="271" y="736" on="1"/>
        <pt x="254" y="736" on="0"/>
        <pt x="136" y="770" on="0"/>
        <pt x="111" y="770" on="0"/>
        <pt x="78" y="742" on="0"/>
        <pt x="57" y="714" on="1"/>
        <pt x="46" y="714" on="1"/>
        <pt x="6" y="750" on="1"/>
        <pt x="6" y="761" on="1"/>
        <pt x="85" y="862" on="1"/>
        <pt x="101" y="866" on="1"/>
      </contour>
    </TTGlyph>
    <TTGlyph name="J" xMin="10" yMin="-154" xMax="308" yMax="650">
      <contour>
        <pt x="107" y="123" on="1"/>
        <pt x="107" y="525" on="1"/>
        <pt x="107" y="557" on="0"/>
        <pt x="94" y="577" on="0"/>
        <pt x="72" y="577" on="1"/>
        <pt x="31" y="574" on="1"/>
        <pt x="25" y="582" on="1"/>
        <pt x="33" y="642" on="1"/>
        <pt x="157" y="642" on="1"/>
        <pt x="308" y="650" on="1"/>
        <pt x="302" y="582" on="1"/>
        <pt x="270" y="576" on="0"/>
        <pt x="252" y="557" on="0"/>
        <pt x="250" y="528" on="1"/>
        <pt x="238" y="310" on="0"/>
        <pt x="238" y="101" on="1"/>
        <pt x="237" y="2" on="0"/>
        <pt x="142" y="-120" on="0"/>
        <pt x="38" y="-154" on="1"/>
        <pt x="10" y="-113" on="1"/>
        <pt x="12" y="-102" on="1"/>
        <pt x="69" y="-61" on="0"/>
        <pt x="107" y="30" on="0"/>
      </contour>
    </TTGlyph>
    <TTGlyph name="Jcircumflex" xMin="10" yMin="-154" xMax="335" yMax="904">
      <contour>
        <pt x="107" y="123" on="1"/>
        <pt x="107" y="525" on="1"/>
        <pt x="107" y="557" on="0"/>
        <pt x="94" y="577" on="0"/>
        <pt x="72" y="577" on="1"/>
        <pt x="31" y="574" on="1"/>
        <pt x="25" y="582" on="1"/>
        <pt x="33" y="642" on="1"/>
        <pt x="157" y="642" on="1"/>
        <pt x="308" y="650" on="1"/>
        <pt x="302" y="582" on="1"/>
        <pt x="270" y="576" on="0"/>
        <pt x="252" y="557" on="0"/>
        <pt x="250" y="528" on="1"/>
        <pt x="238" y="310" on="0"/>
        <pt x="238" y="101" on="1"/>
        <pt x="237" y="2" on="0"/>
        <pt x="142" y="-120" on="0"/>
        <pt x="38" y="-154" on="1"/>
        <pt x="10" y="-113" on="1"/>
        <pt x="12" y="-102" on="1"/>
        <pt x="69" y="-61" on="0"/>
        <pt x="107" y="30" on="0"/>
      </contour>
      <contour>
        <pt x="41" y="709" on="1"/>
        <pt x="12" y="750" on="1"/>
        <pt x="76" y="810" on="0"/>
        <pt x="164" y="904" on="1"/>
        <pt x="184" y="904" on="1"/>
        <pt x="264" y="818" on="0"/>
        <pt x="335" y="750" on="1"/>
        <pt x="306" y="709" on="1"/>
        <pt x="291" y="705" on="1"/>
        <pt x="271" y="721" on="0"/>
        <pt x="174" y="788" on="1"/>
        <pt x="103" y="742" on="0"/>
        <pt x="57" y="705" on="1"/>
      </contour>
    </TTGlyph>
    <TTGlyph name="K" xMin="37" yMin="-15" xMax="654" yMax="649">
      <contour>
        <pt x="257" y="524" on="1"/>
        <pt x="248" y="128" on="0"/>
        <pt x="248" y="90" on="0"/>
        <pt x="262" y="65" on="0"/>
        <pt x="286" y="65" on="1"/>
        <pt x="325" y="68" on="1"/>
        <pt x="329" y="61" on="1"/>
        <pt x="320" y="-3" on="1"/>
        <pt x="219" y="0" on="0"/>
        <pt x="176" y="0" on="1"/>
        <pt x="37" y="-3" on="1"/>
        <pt x="46" y="61" on="1"/>
        <pt x="89" y="68" on="0"/>
        <pt x="116" y="98" on="0"/>
        <pt x="116" y="140" on="1"/>
        <pt x="117" y="525" on="1"/>
        <pt x="117" y="556" on="0"/>
        <pt x="103" y="577" on="0"/>
        <pt x="81" y="577" on="1"/>
        <pt x="50" y="576" on="1"/>
        <pt x="45" y="584" on="1"/>
        <pt x="53" y="644" on="1"/>
        <pt x="159" y="642" on="0"/>
        <pt x="188" y="642" on="1"/>
        <pt x="326" y="649" on="1"/>
        <pt x="320" y="582" on="1"/>
        <pt x="283" y="574" on="0"/>
        <pt x="258" y="552" on="0"/>
      </contour>
      <contour>
        <pt x="443" y="547" on="1"/>
        <pt x="443" y="575" on="0"/>
        <pt x="390" y="578" on="1"/>
        <pt x="387" y="585" on="1"/>
        <pt x="395" y="647" on="1"/>
        <pt x="479" y="642" on="0"/>
        <pt x="520" y="642" on="1"/>
        <pt x="637" y="646" on="1"/>
        <pt x="644" y="635" on="1"/>
        <pt x="636" y="578" on="1"/>
        <pt x="605" y="565" on="0"/>
        <pt x="548" y="516" on="0"/>
        <pt x="505" y="464" on="1"/>
        <pt x="402" y="348" on="1"/>
        <pt x="534" y="146" on="1"/>
        <pt x="564" y="101" on="0"/>
        <pt x="615" y="61" on="0"/>
        <pt x="648" y="59" on="1"/>
        <pt x="654" y="50" on="1"/>
        <pt x="646" y="-3" on="1"/>
        <pt x="547" y="-15" on="0"/>
        <pt x="529" y="-15" on="1"/>
        <pt x="470" y="-15" on="0"/>
        <pt x="418" y="69" on="1"/>
        <pt x="267" y="316" on="1"/>
        <pt x="270" y="338" on="1"/>
        <pt x="417" y="498" on="1"/>
        <pt x="443" y="524" on="0"/>
      </contour>
    </TTGlyph>
    <TTGlyph name="Kcommaaccent" xMin="37" yMin="-318" xMax="654" yMax="649">
      <contour>
        <pt x="257" y="524" on="1"/>
        <pt x="248" y="128" on="0"/>
        <pt x="248" y="90" on="0"/>
        <pt x="262" y="65" on="0"/>
        <pt x="286" y="65" on="1"/>
        <pt x="325" y="68" on="1"/>
        <pt x="329" y="61" on="1"/>
        <pt x="320" y="-3" on="1"/>
        <pt x="219" y="0" on="0"/>
        <pt x="176" y="0" on="1"/>
        <pt x="37" y="-3" on="1"/>
        <pt x="46" y="61" on="1"/>
        <pt x="89" y="68" on="0"/>
        <pt x="116" y="98" on="0"/>
        <pt x="116" y="140" on="1"/>
        <pt x="117" y="525" on="1"/>
        <pt x="117" y="556" on="0"/>
        <pt x="103" y="577" on="0"/>
        <pt x="81" y="577" on="1"/>
        <pt x="50" y="576" on="1"/>
        <pt x="45" y="584" on="1"/>
        <pt x="53" y="644" on="1"/>
        <pt x="159" y="642" on="0"/>
        <pt x="188" y="642" on="1"/>
        <pt x="326" y="649" on="1"/>
        <pt x="320" y="582" on="1"/>
        <pt x="283" y="574" on="0"/>
        <pt x="258" y="552" on="0"/>
      </contour>
      <contour>
        <pt x="443" y="547" on="1"/>
        <pt x="443" y="575" on="0"/>
        <pt x="390" y="578" on="1"/>
        <pt x="387" y="585" on="1"/>
        <pt x="395" y="647" on="1"/>
        <pt x="479" y="642" on="0"/>
        <pt x="520" y="642" on="1"/>
        <pt x="637" y="646" on="1"/>
        <pt x="644" y="635" on="1"/>
        <pt x="636" y="578" on="1"/>
        <pt x="605" y="565" on="0"/>
        <pt x="548" y="516" on="0"/>
        <pt x="505" y="464" on="1"/>
        <pt x="402" y="348" on="1"/>
        <pt x="534" y="146" on="1"/>
        <pt x="564" y="101" on="0"/>
        <pt x="615" y="61" on="0"/>
        <pt x="648" y="59" on="1"/>
        <pt x="654" y="50" on="1"/>
        <pt x="646" y="-3" on="1"/>
        <pt x="547" y="-15" on="0"/>
        <pt x="529" y="-15" on="1"/>
        <pt x="470" y="-15" on="0"/>
        <pt x="418" y="69" on="1"/>
        <pt x="267" y="316" on="1"/>
        <pt x="270" y="338" on="1"/>
        <pt x="417" y="498" on="1"/>
        <pt x="443" y="524" on="0"/>
      </contour>
      <contour>
        <pt x="276" y="-86" on="1"/>
        <pt x="320" y="-51" on="0"/>
        <pt x="385" y="-51" on="0"/>
        <pt x="424" y="-98" on="0"/>
        <pt x="424" y="-187" on="0"/>
        <pt x="341" y="-283" on="0"/>
        <pt x="277" y="-318" on="1"/>
        <pt x="240" y="-288" on="1"/>
        <pt x="240" y="-271" on="1"/>
        <pt x="270" y="-250" on="0"/>
        <pt x="308" y="-194" on="0"/>
        <pt x="308" y="-169" on="1"/>
        <pt x="308" y="-128" on="0"/>
        <pt x="273" y="-100" on="1"/>
      </contour>
    </TTGlyph>
    <TTGlyph name="L" xMin="42" yMin="-10" xMax="530" yMax="649">
      <contour>
        <pt x="52" y="643" on="1"/>
        <pt x="188" y="642" on="1"/>
        <pt x="343" y="649" on="1"/>
        <pt x="335" y="578" on="1"/>
        <pt x="286" y="572" on="0"/>
        <pt x="261" y="546" on="0"/>
        <pt x="259" y="505" on="1"/>
        <pt x="248" y="356" on="0"/>
        <pt x="248" y="139" on="1"/>
        <pt x="248" y="101" on="0"/>
        <pt x="271" y="79" on="0"/>
        <pt x="310" y="79" on="1"/>
        <pt x="381" y="79" on="0"/>
        <pt x="428" y="134" on="0"/>
        <pt x="438" y="231" on="1"/>
        <pt x="523" y="240" on="1"/>
        <pt x="530" y="230" on="1"/>
        <pt x="513" y="121" on="0"/>
        <pt x="503" y="3" on="1"/>
        <pt x="494" y="-8" on="1"/>
        <pt x="331" y="0" on="0"/>
        <pt x="252" y="0" on="1"/>
        <pt x="134" y="0" on="0"/>
        <pt x="42" y="-10" on="1"/>
        <pt x="49" y="58" on="1"/>
        <pt x="87" y="64" on="0"/>
        <pt x="116" y="101" on="0"/>
        <pt x="116" y="144" on="1"/>
        <pt x="116" y="525" on="1"/>
        <pt x="116" y="556" on="0"/>
        <pt x="102" y="577" on="0"/>
        <pt x="80" y="577" on="1"/>
        <pt x="50" y="576" on="1"/>
        <pt x="45" y="584" on="1"/>
      </contour>
    </TTGlyph>
    <TTGlyph name="Lacute" xMin="42" yMin="-10" xMax="530" yMax="857">
      <contour>
        <pt x="52" y="643" on="1"/>
        <pt x="188" y="642" on="1"/>
        <pt x="343" y="649" on="1"/>
        <pt x="335" y="578" on="1"/>
        <pt x="286" y="572" on="0"/>
        <pt x="261" y="546" on="0"/>
        <pt x="259" y="505" on="1"/>
        <pt x="248" y="356" on="0"/>
        <pt x="248" y="139" on="1"/>
        <pt x="248" y="101" on="0"/>
        <pt x="271" y="79" on="0"/>
        <pt x="310" y="79" on="1"/>
        <pt x="381" y="79" on="0"/>
        <pt x="428" y="134" on="0"/>
        <pt x="438" y="231" on="1"/>
        <pt x="523" y="240" on="1"/>
        <pt x="530" y="230" on="1"/>
        <pt x="513" y="121" on="0"/>
        <pt x="503" y="3" on="1"/>
        <pt x="494" y="-8" on="1"/>
        <pt x="331" y="0" on="0"/>
        <pt x="252" y="0" on="1"/>
        <pt x="134" y="0" on="0"/>
        <pt x="42" y="-10" on="1"/>
        <pt x="49" y="58" on="1"/>
        <pt x="87" y="64" on="0"/>
        <pt x="116" y="101" on="0"/>
        <pt x="116" y="144" on="1"/>
        <pt x="116" y="525" on="1"/>
        <pt x="116" y="556" on="0"/>
        <pt x="102" y="577" on="0"/>
        <pt x="80" y="577" on="1"/>
        <pt x="50" y="576" on="1"/>
        <pt x="45" y="584" on="1"/>
      </contour>
      <contour>
        <pt x="364" y="775" on="1"/>
        <pt x="358" y="762" on="1"/>
        <pt x="243" y="733" on="0"/>
        <pt x="129" y="697" on="1"/>
        <pt x="116" y="706" on="1"/>
        <pt x="103" y="753" on="1"/>
        <pt x="326" y="857" on="1"/>
        <pt x="338" y="852" on="1"/>
      </contour>
    </TTGlyph>
    <TTGlyph name="Lcaron" xMin="42" yMin="-10" xMax="530" yMax="649">
      <contour>
        <pt x="428" y="398" on="1"/>
        <pt x="428" y="415" on="0"/>
        <pt x="428" y="442" on="1"/>
        <pt x="428" y="521" on="0"/>
        <pt x="420" y="626" on="1"/>
        <pt x="521" y="640" on="1"/>
        <pt x="529" y="630" on="1"/>
        <pt x="514" y="520" on="0"/>
        <pt x="490" y="413" on="1"/>
        <pt x="442" y="394" on="1"/>
      </contour>
      <contour>
        <pt x="52" y="643" on="1"/>
        <pt x="188" y="642" on="1"/>
        <pt x="343" y="649" on="1"/>
        <pt x="335" y="578" on="1"/>
        <pt x="286" y="572" on="0"/>
        <pt x="261" y="546" on="0"/>
        <pt x="259" y="505" on="1"/>
        <pt x="248" y="356" on="0"/>
        <pt x="248" y="139" on="1"/>
        <pt x="248" y="101" on="0"/>
        <pt x="271" y="79" on="0"/>
        <pt x="310" y="79" on="1"/>
        <pt x="381" y="79" on="0"/>
        <pt x="428" y="134" on="0"/>
        <pt x="438" y="231" on="1"/>
        <pt x="523" y="240" on="1"/>
        <pt x="530" y="230" on="1"/>
        <pt x="513" y="121" on="0"/>
        <pt x="503" y="3" on="1"/>
        <pt x="494" y="-8" on="1"/>
        <pt x="331" y="0" on="0"/>
        <pt x="252" y="0" on="1"/>
        <pt x="134" y="0" on="0"/>
        <pt x="42" y="-10" on="1"/>
        <pt x="49" y="58" on="1"/>
        <pt x="87" y="64" on="0"/>
        <pt x="116" y="101" on="0"/>
        <pt x="116" y="144" on="1"/>
        <pt x="116" y="525" on="1"/>
        <pt x="116" y="556" on="0"/>
        <pt x="102" y="577" on="0"/>
        <pt x="80" y="577" on="1"/>
        <pt x="50" y="576" on="1"/>
        <pt x="45" y="584" on="1"/>
      </contour>
    </TTGlyph>
    <TTGlyph name="Lcommaaccent" xMin="42" yMin="-318" xMax="530" yMax="649">
      <contour>
        <pt x="52" y="643" on="1"/>
        <pt x="188" y="642" on="1"/>
        <pt x="343" y="649" on="1"/>
        <pt x="335" y="578" on="1"/>
        <pt x="286" y="572" on="0"/>
        <pt x="261" y="546" on="0"/>
        <pt x="259" y="505" on="1"/>
        <pt x="248" y="356" on="0"/>
        <pt x="248" y="139" on="1"/>
        <pt x="248" y="101" on="0"/>
        <pt x="271" y="79" on="0"/>
        <pt x="310" y="79" on="1"/>
        <pt x="381" y="79" on="0"/>
        <pt x="428" y="134" on="0"/>
        <pt x="438" y="231" on="1"/>
        <pt x="523" y="240" on="1"/>
        <pt x="530" y="230" on="1"/>
        <pt x="513" y="121" on="0"/>
        <pt x="503" y="3" on="1"/>
        <pt x="494" y="-8" on="1"/>
        <pt x="331" y="0" on="0"/>
        <pt x="252" y="0" on="1"/>
        <pt x="134" y="0" on="0"/>
        <pt x="42" y="-10" on="1"/>
        <pt x="49" y="58" on="1"/>
        <pt x="87" y="64" on="0"/>
        <pt x="116" y="101" on="0"/>
        <pt x="116" y="144" on="1"/>
        <pt x="116" y="525" on="1"/>
        <pt x="116" y="556" on="0"/>
        <pt x="102" y="577" on="0"/>
        <pt x="80" y="577" on="1"/>
        <pt x="50" y="576" on="1"/>
        <pt x="45" y="584" on="1"/>
      </contour>
      <contour>
        <pt x="220" y="-86" on="1"/>
        <pt x="264" y="-51" on="0"/>
        <pt x="329" y="-51" on="0"/>
        <pt x="368" y="-98" on="0"/>
        <pt x="368" y="-187" on="0"/>
        <pt x="285" y="-283" on="0"/>
        <pt x="221" y="-318" on="1"/>
        <pt x="184" y="-288" on="1"/>
        <pt x="184" y="-271" on="1"/>
        <pt x="214" y="-250" on="0"/>
        <pt x="252" y="-194" on="0"/>
        <pt x="252" y="-169" on="1"/>
        <pt x="252" y="-128" on="0"/>
        <pt x="217" y="-100" on="1"/>
      </contour>
    </TTGlyph>
    <TTGlyph name="Ldot" xMin="42" yMin="-10" xMax="534" yMax="649">
      <contour>
        <pt x="52" y="643" on="1"/>
        <pt x="188" y="642" on="1"/>
        <pt x="343" y="649" on="1"/>
        <pt x="335" y="578" on="1"/>
        <pt x="286" y="572" on="0"/>
        <pt x="261" y="546" on="0"/>
        <pt x="259" y="505" on="1"/>
        <pt x="248" y="356" on="0"/>
        <pt x="248" y="139" on="1"/>
        <pt x="248" y="101" on="0"/>
        <pt x="271" y="79" on="0"/>
        <pt x="310" y="79" on="1"/>
        <pt x="381" y="79" on="0"/>
        <pt x="428" y="134" on="0"/>
        <pt x="438" y="231" on="1"/>
        <pt x="523" y="240" on="1"/>
        <pt x="530" y="230" on="1"/>
        <pt x="513" y="121" on="0"/>
        <pt x="503" y="3" on="1"/>
        <pt x="494" y="-8" on="1"/>
        <pt x="331" y="0" on="0"/>
        <pt x="252" y="0" on="1"/>
        <pt x="134" y="0" on="0"/>
        <pt x="42" y="-10" on="1"/>
        <pt x="49" y="58" on="1"/>
        <pt x="87" y="64" on="0"/>
        <pt x="116" y="101" on="0"/>
        <pt x="116" y="144" on="1"/>
        <pt x="116" y="525" on="1"/>
        <pt x="116" y="556" on="0"/>
        <pt x="102" y="577" on="0"/>
        <pt x="80" y="577" on="1"/>
        <pt x="50" y="576" on="1"/>
        <pt x="45" y="584" on="1"/>
      </contour>
      <contour>
        <pt x="490" y="380" on="0"/>
        <pt x="416" y="380" on="0"/>
        <pt x="378" y="421" on="0"/>
        <pt x="378" y="492" on="0"/>
        <pt x="422" y="538" on="0"/>
        <pt x="494" y="538" on="0"/>
        <pt x="534" y="496" on="0"/>
        <pt x="534" y="426" on="0"/>
      </contour>
    </TTGlyph>
    <TTGlyph name="Lslash" xMin="39" yMin="-10" xMax="542" yMax="649">
      <contour>
        <pt x="64" y="643" on="1"/>
        <pt x="200" y="642" on="1"/>
        <pt x="355" y="649" on="1"/>
        <pt x="347" y="578" on="1"/>
        <pt x="298" y="572" on="0"/>
        <pt x="273" y="546" on="0"/>
        <pt x="266" y="454" on="0"/>
        <pt x="265" y="397" on="1"/>
        <pt x="398" y="464" on="1"/>
        <pt x="406" y="460" on="1"/>
        <pt x="423" y="399" on="1"/>
        <pt x="262" y="318" on="1"/>
        <pt x="260" y="258" on="0"/>
        <pt x="260" y="139" on="1"/>
        <pt x="260" y="101" on="0"/>
        <pt x="283" y="79" on="0"/>
        <pt x="322" y="79" on="1"/>
        <pt x="393" y="79" on="0"/>
        <pt x="440" y="134" on="0"/>
        <pt x="450" y="231" on="1"/>
        <pt x="535" y="240" on="1"/>
        <pt x="542" y="230" on="1"/>
        <pt x="525" y="121" on="0"/>
        <pt x="515" y="3" on="1"/>
        <pt x="506" y="-8" on="1"/>
        <pt x="343" y="0" on="0"/>
        <pt x="264" y="0" on="1"/>
        <pt x="146" y="0" on="0"/>
        <pt x="54" y="-10" on="1"/>
        <pt x="61" y="58" on="1"/>
        <pt x="99" y="64" on="0"/>
        <pt x="128" y="101" on="0"/>
        <pt x="128" y="144" on="1"/>
        <pt x="128" y="266" on="1"/>
        <pt x="66" y="235" on="1"/>
        <pt x="56" y="237" on="1"/>
        <pt x="39" y="299" on="1"/>
        <pt x="128" y="343" on="1"/>
        <pt x="128" y="525" on="1"/>
        <pt x="128" y="556" on="0"/>
        <pt x="114" y="577" on="0"/>
        <pt x="92" y="577" on="1"/>
        <pt x="62" y="576" on="1"/>
        <pt x="57" y="584" on="1"/>
      </contour>
    </TTGlyph>
    <TTGlyph name="M" xMin="27" yMin="-16" xMax="816" yMax="648">
      <contour>
        <pt x="562" y="643" on="1"/>
        <pt x="659" y="641" on="1"/>
        <pt x="666" y="641" on="0"/>
        <pt x="786" y="648" on="1"/>
        <pt x="790" y="644" on="1"/>
        <pt x="784" y="582" on="1"/>
        <pt x="741" y="579" on="0"/>
        <pt x="711" y="557" on="0"/>
        <pt x="711" y="529" on="1"/>
        <pt x="711" y="438" on="0"/>
        <pt x="735" y="157" on="1"/>
        <pt x="740" y="103" on="0"/>
        <pt x="760" y="66" on="0"/>
        <pt x="783" y="66" on="1"/>
        <pt x="812" y="68" on="1"/>
        <pt x="816" y="62" on="1"/>
        <pt x="807" y="-3" on="1"/>
        <pt x="746" y="0" on="0"/>
        <pt x="682" y="0" on="0"/>
        <pt x="564" y="-6" on="0"/>
        <pt x="559" y="-8" on="1"/>
        <pt x="567" y="60" on="1"/>
        <pt x="596" y="63" on="0"/>
        <pt x="622" y="86" on="0"/>
        <pt x="622" y="109" on="1"/>
        <pt x="602" y="445" on="1"/>
        <pt x="593" y="445" on="1"/>
        <pt x="508" y="209" on="0"/>
        <pt x="441" y="-7" on="1"/>
        <pt x="368" y="-16" on="1"/>
        <pt x="283" y="256" on="0"/>
        <pt x="215" y="445" on="1"/>
        <pt x="207" y="445" on="1"/>
        <pt x="187" y="122" on="0"/>
        <pt x="187" y="98" on="1"/>
        <pt x="187" y="65" on="0"/>
        <pt x="219" y="65" on="1"/>
        <pt x="252" y="67" on="1"/>
        <pt x="258" y="61" on="1"/>
        <pt x="247" y="-4" on="1"/>
        <pt x="161" y="0" on="0"/>
        <pt x="128" y="0" on="1"/>
        <pt x="27" y="-8" on="1"/>
        <pt x="34" y="59" on="1"/>
        <pt x="64" y="63" on="0"/>
        <pt x="91" y="94" on="0"/>
        <pt x="94" y="131" on="1"/>
        <pt x="99" y="167" on="0"/>
        <pt x="134" y="512" on="0"/>
        <pt x="134" y="558" on="0"/>
        <pt x="105" y="576" on="0"/>
        <pt x="59" y="581" on="1"/>
        <pt x="54" y="587" on="1"/>
        <pt x="63" y="647" on="1"/>
        <pt x="153" y="642" on="0"/>
        <pt x="190" y="642" on="1"/>
        <pt x="299" y="646" on="1"/>
        <pt x="355" y="442" on="0"/>
        <pt x="423" y="235" on="1"/>
        <pt x="431" y="235" on="1"/>
        <pt x="495" y="424" on="0"/>
      </contour>
    </TTGlyph>
    <TTGlyph name="N" xMin="34" yMin="-27" xMax="711" yMax="647">
      <contour>
        <pt x="495" y="577" on="1"/>
        <pt x="461" y="576" on="1"/>
        <pt x="457" y="584" on="1"/>
        <pt x="464" y="646" on="1"/>
        <pt x="549" y="642" on="0"/>
        <pt x="593" y="642" on="1"/>
        <pt x="711" y="647" on="1"/>
        <pt x="706" y="580" on="1"/>
        <pt x="673" y="575" on="0"/>
        <pt x="644" y="547" on="0"/>
        <pt x="643" y="517" on="1"/>
        <pt x="630" y="-14" on="1"/>
        <pt x="524" y="-27" on="1"/>
        <pt x="376" y="210" on="0"/>
        <pt x="233" y="417" on="1"/>
        <pt x="223" y="417" on="1"/>
        <pt x="222" y="109" on="1"/>
        <pt x="222" y="84" on="0"/>
        <pt x="237" y="64" on="0"/>
        <pt x="256" y="64" on="1"/>
        <pt x="299" y="67" on="1"/>
        <pt x="305" y="60" on="1"/>
        <pt x="295" y="-4" on="1"/>
        <pt x="209" y="0" on="0"/>
        <pt x="176" y="0" on="1"/>
        <pt x="119" y="0" on="0"/>
        <pt x="43" y="-8" on="1"/>
        <pt x="51" y="59" on="1"/>
        <pt x="109" y="66" on="0"/>
        <pt x="110" y="122" on="1"/>
        <pt x="123" y="517" on="1"/>
        <pt x="123" y="549" on="0"/>
        <pt x="91" y="574" on="0"/>
        <pt x="42" y="579" on="1"/>
        <pt x="34" y="589" on="1"/>
        <pt x="41" y="647" on="1"/>
        <pt x="108" y="642" on="0"/>
        <pt x="157" y="642" on="1"/>
        <pt x="253" y="646" on="1"/>
        <pt x="384" y="433" on="0"/>
        <pt x="520" y="235" on="1"/>
        <pt x="530" y="235" on="1"/>
        <pt x="528" y="534" on="1"/>
        <pt x="527" y="577" on="0"/>
      </contour>
    </TTGlyph>
    <TTGlyph name="Nacute" xMin="34" yMin="-27" xMax="711" yMax="857">
      <contour>
        <pt x="495" y="577" on="1"/>
        <pt x="461" y="576" on="1"/>
        <pt x="457" y="584" on="1"/>
        <pt x="464" y="646" on="1"/>
        <pt x="549" y="642" on="0"/>
        <pt x="593" y="642" on="1"/>
        <pt x="711" y="647" on="1"/>
        <pt x="706" y="580" on="1"/>
        <pt x="673" y="575" on="0"/>
        <pt x="644" y="547" on="0"/>
        <pt x="643" y="517" on="1"/>
        <pt x="630" y="-14" on="1"/>
        <pt x="524" y="-27" on="1"/>
        <pt x="376" y="210" on="0"/>
        <pt x="233" y="417" on="1"/>
        <pt x="223" y="417" on="1"/>
        <pt x="222" y="109" on="1"/>
        <pt x="222" y="84" on="0"/>
        <pt x="237" y="64" on="0"/>
        <pt x="256" y="64" on="1"/>
        <pt x="299" y="67" on="1"/>
        <pt x="305" y="60" on="1"/>
        <pt x="295" y="-4" on="1"/>
        <pt x="209" y="0" on="0"/>
        <pt x="176" y="0" on="1"/>
        <pt x="119" y="0" on="0"/>
        <pt x="43" y="-8" on="1"/>
        <pt x="51" y="59" on="1"/>
        <pt x="109" y="66" on="0"/>
        <pt x="110" y="122" on="1"/>
        <pt x="123" y="517" on="1"/>
        <pt x="123" y="549" on="0"/>
        <pt x="91" y="574" on="0"/>
        <pt x="42" y="579" on="1"/>
        <pt x="34" y="589" on="1"/>
        <pt x="41" y="647" on="1"/>
        <pt x="108" y="642" on="0"/>
        <pt x="157" y="642" on="1"/>
        <pt x="253" y="646" on="1"/>
        <pt x="384" y="433" on="0"/>
        <pt x="520" y="235" on="1"/>
        <pt x="530" y="235" on="1"/>
        <pt x="528" y="534" on="1"/>
        <pt x="527" y="577" on="0"/>
      </contour>
      <contour>
        <pt x="552" y="775" on="1"/>
        <pt x="546" y="762" on="1"/>
        <pt x="431" y="733" on="0"/>
        <pt x="317" y="697" on="1"/>
        <pt x="304" y="706" on="1"/>
        <pt x="291" y="753" on="1"/>
        <pt x="514" y="857" on="1"/>
        <pt x="526" y="852" on="1"/>
      </contour>
    </TTGlyph>
    <TTGlyph name="Ncaron" xMin="34" yMin="-27" xMax="711" yMax="865">
      <contour>
        <pt x="495" y="577" on="1"/>
        <pt x="461" y="576" on="1"/>
        <pt x="457" y="584" on="1"/>
        <pt x="464" y="646" on="1"/>
        <pt x="549" y="642" on="0"/>
        <pt x="593" y="642" on="1"/>
        <pt x="711" y="647" on="1"/>
        <pt x="706" y="580" on="1"/>
        <pt x="673" y="575" on="0"/>
        <pt x="644" y="547" on="0"/>
        <pt x="643" y="517" on="1"/>
        <pt x="630" y="-14" on="1"/>
        <pt x="524" y="-27" on="1"/>
        <pt x="376" y="210" on="0"/>
        <pt x="233" y="417" on="1"/>
        <pt x="223" y="417" on="1"/>
        <pt x="222" y="109" on="1"/>
        <pt x="222" y="84" on="0"/>
        <pt x="237" y="64" on="0"/>
        <pt x="256" y="64" on="1"/>
        <pt x="299" y="67" on="1"/>
        <pt x="305" y="60" on="1"/>
        <pt x="295" y="-4" on="1"/>
        <pt x="209" y="0" on="0"/>
        <pt x="176" y="0" on="1"/>
        <pt x="119" y="0" on="0"/>
        <pt x="43" y="-8" on="1"/>
        <pt x="51" y="59" on="1"/>
        <pt x="109" y="66" on="0"/>
        <pt x="110" y="122" on="1"/>
        <pt x="123" y="517" on="1"/>
        <pt x="123" y="549" on="0"/>
        <pt x="91" y="574" on="0"/>
        <pt x="42" y="579" on="1"/>
        <pt x="34" y="589" on="1"/>
        <pt x="41" y="647" on="1"/>
        <pt x="108" y="642" on="0"/>
        <pt x="157" y="642" on="1"/>
        <pt x="253" y="646" on="1"/>
        <pt x="384" y="433" on="0"/>
        <pt x="520" y="235" on="1"/>
        <pt x="530" y="235" on="1"/>
        <pt x="528" y="534" on="1"/>
        <pt x="527" y="577" on="0"/>
      </contour>
      <contour>
        <pt x="519" y="861" on="1"/>
        <pt x="544" y="820" on="1"/>
        <pt x="471" y="767" on="0"/>
        <pt x="387" y="696" on="1"/>
        <pt x="367" y="696" on="1"/>
        <pt x="284" y="766" on="0"/>
        <pt x="210" y="820" on="1"/>
        <pt x="234" y="861" on="1"/>
        <pt x="250" y="865" on="1"/>
        <pt x="300" y="840" on="0"/>
        <pt x="377" y="807" on="1"/>
        <pt x="425" y="827" on="0"/>
        <pt x="503" y="865" on="1"/>
      </contour>
    </TTGlyph>
    <TTGlyph name="Ncommaaccent" xMin="34" yMin="-318" xMax="711" yMax="647">
      <contour>
        <pt x="495" y="577" on="1"/>
        <pt x="461" y="576" on="1"/>
        <pt x="457" y="584" on="1"/>
        <pt x="464" y="646" on="1"/>
        <pt x="549" y="642" on="0"/>
        <pt x="593" y="642" on="1"/>
        <pt x="711" y="647" on="1"/>
        <pt x="706" y="580" on="1"/>
        <pt x="673" y="575" on="0"/>
        <pt x="644" y="547" on="0"/>
        <pt x="643" y="517" on="1"/>
        <pt x="630" y="-14" on="1"/>
        <pt x="524" y="-27" on="1"/>
        <pt x="376" y="210" on="0"/>
        <pt x="233" y="417" on="1"/>
        <pt x="223" y="417" on="1"/>
        <pt x="222" y="109" on="1"/>
        <pt x="222" y="84" on="0"/>
        <pt x="237" y="64" on="0"/>
        <pt x="256" y="64" on="1"/>
        <pt x="299" y="67" on="1"/>
        <pt x="305" y="60" on="1"/>
        <pt x="295" y="-4" on="1"/>
        <pt x="209" y="0" on="0"/>
        <pt x="176" y="0" on="1"/>
        <pt x="119" y="0" on="0"/>
        <pt x="43" y="-8" on="1"/>
        <pt x="51" y="59" on="1"/>
        <pt x="109" y="66" on="0"/>
        <pt x="110" y="122" on="1"/>
        <pt x="123" y="517" on="1"/>
        <pt x="123" y="549" on="0"/>
        <pt x="91" y="574" on="0"/>
        <pt x="42" y="579" on="1"/>
        <pt x="34" y="589" on="1"/>
        <pt x="41" y="647" on="1"/>
        <pt x="108" y="642" on="0"/>
        <pt x="157" y="642" on="1"/>
        <pt x="253" y="646" on="1"/>
        <pt x="384" y="433" on="0"/>
        <pt x="520" y="235" on="1"/>
        <pt x="530" y="235" on="1"/>
        <pt x="528" y="534" on="1"/>
        <pt x="527" y="577" on="0"/>
      </contour>
      <contour>
        <pt x="300" y="-86" on="1"/>
        <pt x="344" y="-51" on="0"/>
        <pt x="409" y="-51" on="0"/>
        <pt x="448" y="-98" on="0"/>
        <pt x="448" y="-187" on="0"/>
        <pt x="365" y="-283" on="0"/>
        <pt x="301" y="-318" on="1"/>
        <pt x="264" y="-288" on="1"/>
        <pt x="264" y="-271" on="1"/>
        <pt x="294" y="-250" on="0"/>
        <pt x="332" y="-194" on="0"/>
        <pt x="332" y="-169" on="1"/>
        <pt x="332" y="-128" on="0"/>
        <pt x="297" y="-100" on="1"/>
      </contour>
    </TTGlyph>
    <TTGlyph name="Ntilde" xMin="34" yMin="-27" xMax="711" yMax="853">
      <contour>
        <pt x="495" y="577" on="1"/>
        <pt x="461" y="576" on="1"/>
        <pt x="457" y="584" on="1"/>
        <pt x="464" y="646" on="1"/>
        <pt x="549" y="642" on="0"/>
        <pt x="593" y="642" on="1"/>
        <pt x="711" y="647" on="1"/>
        <pt x="706" y="580" on="1"/>
        <pt x="673" y="575" on="0"/>
        <pt x="644" y="547" on="0"/>
        <pt x="643" y="517" on="1"/>
        <pt x="630" y="-14" on="1"/>
        <pt x="524" y="-27" on="1"/>
        <pt x="376" y="210" on="0"/>
        <pt x="233" y="417" on="1"/>
        <pt x="223" y="417" on="1"/>
        <pt x="222" y="109" on="1"/>
        <pt x="222" y="84" on="0"/>
        <pt x="237" y="64" on="0"/>
        <pt x="256" y="64" on="1"/>
        <pt x="299" y="67" on="1"/>
        <pt x="305" y="60" on="1"/>
        <pt x="295" y="-4" on="1"/>
        <pt x="209" y="0" on="0"/>
        <pt x="176" y="0" on="1"/>
        <pt x="119" y="0" on="0"/>
        <pt x="43" y="-8" on="1"/>
        <pt x="51" y="59" on="1"/>
        <pt x="109" y="66" on="0"/>
        <pt x="110" y="122" on="1"/>
        <pt x="123" y="517" on="1"/>
        <pt x="123" y="549" on="0"/>
        <pt x="91" y="574" on="0"/>
        <pt x="42" y="579" on="1"/>
        <pt x="34" y="589" on="1"/>
        <pt x="41" y="647" on="1"/>
        <pt x="108" y="642" on="0"/>
        <pt x="157" y="642" on="1"/>
        <pt x="253" y="646" on="1"/>
        <pt x="384" y="433" on="0"/>
        <pt x="520" y="235" on="1"/>
        <pt x="530" y="235" on="1"/>
        <pt x="528" y="534" on="1"/>
        <pt x="527" y="577" on="0"/>
      </contour>
      <contour>
        <pt x="311" y="835" on="0"/>
        <pt x="429" y="801" on="0"/>
        <pt x="442" y="801" on="1"/>
        <pt x="464" y="801" on="0"/>
        <pt x="497" y="840" on="1"/>
        <pt x="508" y="853" on="1"/>
        <pt x="519" y="853" on="1"/>
        <pt x="559" y="816" on="1"/>
        <pt x="559" y="806" on="1"/>
        <pt x="480" y="709" on="1"/>
        <pt x="464" y="705" on="1"/>
        <pt x="446" y="705" on="0"/>
        <pt x="328" y="739" on="0"/>
        <pt x="316" y="739" on="1"/>
        <pt x="293" y="739" on="0"/>
        <pt x="260" y="700" on="1"/>
        <pt x="249" y="687" on="1"/>
        <pt x="238" y="687" on="1"/>
        <pt x="199" y="724" on="1"/>
        <pt x="199" y="735" on="1"/>
        <pt x="277" y="831" on="1"/>
        <pt x="294" y="835" on="1"/>
      </contour>
    </TTGlyph>
    <TTGlyph name="O" xMin="28" yMin="-12" xMax="646" yMax="654">
      <contour>
        <pt x="183" y="213" on="0"/>
        <pt x="265" y="75" on="0"/>
        <pt x="411" y="75" on="0"/>
        <pt x="490" y="186" on="0"/>
        <pt x="490" y="420" on="0"/>
        <pt x="406" y="557" on="0"/>
        <pt x="259" y="557" on="0"/>
        <pt x="183" y="446" on="0"/>
      </contour>
      <contour>
        <pt x="646" y="182" on="0"/>
        <pt x="464" y="-12" on="0"/>
        <pt x="182" y="-12" on="0"/>
        <pt x="28" y="158" on="0"/>
        <pt x="28" y="462" on="0"/>
        <pt x="208" y="654" on="0"/>
        <pt x="492" y="654" on="0"/>
        <pt x="646" y="488" on="0"/>
      </contour>
    </TTGlyph>
    <TTGlyph name="OE" xMin="29" yMin="-11" xMax="901" yMax="654">
      <contour>
        <pt x="653" y="79" on="1"/>
        <pt x="746" y="79" on="0"/>
        <pt x="799" y="118" on="0"/>
        <pt x="809" y="193" on="1"/>
        <pt x="894" y="200" on="1"/>
        <pt x="901" y="190" on="1"/>
        <pt x="883" y="100" on="0"/>
        <pt x="874" y="4" on="1"/>
        <pt x="864" y="-7" on="1"/>
        <pt x="673" y="2" on="0"/>
        <pt x="502" y="2" on="0"/>
        <pt x="343" y="-11" on="0"/>
        <pt x="314" y="-11" on="1"/>
        <pt x="182" y="-11" on="0"/>
        <pt x="29" y="158" on="0"/>
        <pt x="29" y="462" on="0"/>
        <pt x="204" y="649" on="0"/>
        <pt x="351" y="649" on="1"/>
        <pt x="382" y="649" on="0"/>
        <pt x="528" y="636" on="0"/>
        <pt x="574" y="636" on="1"/>
        <pt x="758" y="636" on="0"/>
        <pt x="886" y="654" on="1"/>
        <pt x="894" y="643" on="1"/>
        <pt x="876" y="554" on="0"/>
        <pt x="871" y="461" on="1"/>
        <pt x="780" y="455" on="1"/>
        <pt x="782" y="481" on="0"/>
        <pt x="782" y="495" on="1"/>
        <pt x="782" y="536" on="0"/>
        <pt x="738" y="558" on="0"/>
        <pt x="619" y="558" on="0"/>
        <pt x="603" y="548" on="0"/>
        <pt x="602" y="525" on="1"/>
        <pt x="595" y="370" on="1"/>
        <pt x="688" y="369" on="1"/>
        <pt x="804" y="377" on="1"/>
        <pt x="812" y="368" on="1"/>
        <pt x="798" y="282" on="1"/>
        <pt x="718" y="285" on="0"/>
        <pt x="668" y="285" on="1"/>
        <pt x="591" y="279" on="1"/>
        <pt x="589" y="139" on="1"/>
        <pt x="589" y="99" on="0"/>
        <pt x="610" y="79" on="0"/>
      </contour>
      <contour>
        <pt x="182" y="212" on="0"/>
        <pt x="262" y="73" on="0"/>
        <pt x="404" y="73" on="0"/>
        <pt x="463" y="133" on="0"/>
        <pt x="464" y="202" on="1"/>
        <pt x="465" y="454" on="1"/>
        <pt x="465" y="515" on="0"/>
        <pt x="406" y="561" on="0"/>
        <pt x="261" y="561" on="0"/>
        <pt x="182" y="448" on="0"/>
      </contour>
    </TTGlyph>
    <TTGlyph name="Oacute" xMin="28" yMin="-12" xMax="646" yMax="857">
      <contour>
        <pt x="183" y="213" on="0"/>
        <pt x="265" y="75" on="0"/>
        <pt x="411" y="75" on="0"/>
        <pt x="490" y="186" on="0"/>
        <pt x="490" y="420" on="0"/>
        <pt x="406" y="557" on="0"/>
        <pt x="259" y="557" on="0"/>
        <pt x="183" y="446" on="0"/>
      </contour>
      <contour>
        <pt x="646" y="182" on="0"/>
        <pt x="464" y="-12" on="0"/>
        <pt x="182" y="-12" on="0"/>
        <pt x="28" y="158" on="0"/>
        <pt x="28" y="462" on="0"/>
        <pt x="208" y="654" on="0"/>
        <pt x="492" y="654" on="0"/>
        <pt x="646" y="488" on="0"/>
      </contour>
      <contour>
        <pt x="508" y="775" on="1"/>
        <pt x="502" y="762" on="1"/>
        <pt x="387" y="733" on="0"/>
        <pt x="273" y="697" on="1"/>
        <pt x="260" y="706" on="1"/>
        <pt x="247" y="753" on="1"/>
        <pt x="470" y="857" on="1"/>
        <pt x="482" y="852" on="1"/>
      </contour>
    </TTGlyph>
    <TTGlyph name="Obreve" xMin="28" yMin="-12" xMax="646" yMax="880">
      <contour>
        <pt x="183" y="213" on="0"/>
        <pt x="265" y="75" on="0"/>
        <pt x="411" y="75" on="0"/>
        <pt x="490" y="186" on="0"/>
        <pt x="490" y="420" on="0"/>
        <pt x="406" y="557" on="0"/>
        <pt x="259" y="557" on="0"/>
        <pt x="183" y="446" on="0"/>
      </contour>
      <contour>
        <pt x="646" y="182" on="0"/>
        <pt x="464" y="-12" on="0"/>
        <pt x="182" y="-12" on="0"/>
        <pt x="28" y="158" on="0"/>
        <pt x="28" y="462" on="0"/>
        <pt x="208" y="654" on="0"/>
        <pt x="492" y="654" on="0"/>
        <pt x="646" y="488" on="0"/>
      </contour>
      <contour>
        <pt x="249" y="812" on="0"/>
        <pt x="401" y="812" on="0"/>
        <pt x="428" y="880" on="1"/>
        <pt x="445" y="876" on="1"/>
        <pt x="473" y="842" on="1"/>
        <pt x="458" y="788" on="0"/>
        <pt x="384" y="717" on="0"/>
        <pt x="266" y="717" on="0"/>
        <pt x="192" y="788" on="0"/>
        <pt x="177" y="842" on="1"/>
        <pt x="205" y="876" on="1"/>
        <pt x="222" y="880" on="1"/>
      </contour>
    </TTGlyph>
    <TTGlyph name="Ocircumflex" xMin="28" yMin="-12" xMax="646" yMax="876">
      <contour>
        <pt x="183" y="213" on="0"/>
        <pt x="265" y="75" on="0"/>
        <pt x="411" y="75" on="0"/>
        <pt x="490" y="186" on="0"/>
        <pt x="490" y="420" on="0"/>
        <pt x="406" y="557" on="0"/>
        <pt x="259" y="557" on="0"/>
        <pt x="183" y="446" on="0"/>
      </contour>
      <contour>
        <pt x="646" y="182" on="0"/>
        <pt x="464" y="-12" on="0"/>
        <pt x="182" y="-12" on="0"/>
        <pt x="28" y="158" on="0"/>
        <pt x="28" y="462" on="0"/>
        <pt x="208" y="654" on="0"/>
        <pt x="492" y="654" on="0"/>
        <pt x="646" y="488" on="0"/>
      </contour>
      <contour>
        <pt x="344" y="876" on="1"/>
        <pt x="344" y="877" on="0"/>
        <pt x="470" y="776" on="0"/>
        <pt x="501" y="752" on="1"/>
        <pt x="477" y="711" on="1"/>
        <pt x="461" y="707" on="1"/>
        <pt x="411" y="732" on="0"/>
        <pt x="334" y="765" on="1"/>
        <pt x="286" y="745" on="0"/>
        <pt x="208" y="707" on="1"/>
        <pt x="192" y="711" on="1"/>
        <pt x="167" y="752" on="1"/>
        <pt x="240" y="805" on="0"/>
        <pt x="324" y="876" on="1"/>
      </contour>
    </TTGlyph>
    <TTGlyph name="Odieresis" xMin="28" yMin="-12" xMax="646" yMax="834">
      <contour>
        <pt x="183" y="213" on="0"/>
        <pt x="265" y="75" on="0"/>
        <pt x="411" y="75" on="0"/>
        <pt x="490" y="186" on="0"/>
        <pt x="490" y="420" on="0"/>
        <pt x="406" y="557" on="0"/>
        <pt x="259" y="557" on="0"/>
        <pt x="183" y="446" on="0"/>
      </contour>
      <contour>
        <pt x="646" y="182" on="0"/>
        <pt x="464" y="-12" on="0"/>
        <pt x="182" y="-12" on="0"/>
        <pt x="28" y="158" on="0"/>
        <pt x="28" y="462" on="0"/>
        <pt x="208" y="654" on="0"/>
        <pt x="492" y="654" on="0"/>
        <pt x="646" y="488" on="0"/>
      </contour>
      <contour>
        <pt x="486" y="744" on="0"/>
        <pt x="449" y="706" on="0"/>
        <pt x="390" y="706" on="0"/>
        <pt x="359" y="739" on="0"/>
        <pt x="359" y="796" on="0"/>
        <pt x="396" y="834" on="0"/>
        <pt x="455" y="834" on="0"/>
        <pt x="486" y="801" on="0"/>
      </contour>
      <contour>
        <pt x="308" y="744" on="0"/>
        <pt x="271" y="706" on="0"/>
        <pt x="212" y="706" on="0"/>
        <pt x="181" y="739" on="0"/>
        <pt x="181" y="796" on="0"/>
        <pt x="218" y="834" on="0"/>
        <pt x="276" y="834" on="0"/>
        <pt x="308" y="801" on="0"/>
      </contour>
    </TTGlyph>
    <TTGlyph name="Ograve" xMin="28" yMin="-12" xMax="646" yMax="857">
      <contour>
        <pt x="183" y="213" on="0"/>
        <pt x="265" y="75" on="0"/>
        <pt x="411" y="75" on="0"/>
        <pt x="490" y="186" on="0"/>
        <pt x="490" y="420" on="0"/>
        <pt x="406" y="557" on="0"/>
        <pt x="259" y="557" on="0"/>
        <pt x="183" y="446" on="0"/>
      </contour>
      <contour>
        <pt x="646" y="182" on="0"/>
        <pt x="464" y="-12" on="0"/>
        <pt x="182" y="-12" on="0"/>
        <pt x="28" y="158" on="0"/>
        <pt x="28" y="462" on="0"/>
        <pt x="208" y="654" on="0"/>
        <pt x="492" y="654" on="0"/>
        <pt x="646" y="488" on="0"/>
      </contour>
      <contour>
        <pt x="171" y="762" on="1"/>
        <pt x="166" y="775" on="1"/>
        <pt x="192" y="852" on="1"/>
        <pt x="204" y="857" on="1"/>
        <pt x="319" y="800" on="0"/>
        <pt x="427" y="753" on="1"/>
        <pt x="414" y="706" on="1"/>
        <pt x="400" y="697" on="1"/>
        <pt x="278" y="735" on="0"/>
      </contour>
    </TTGlyph>
    <TTGlyph name="Ohungarumlaut" xMin="28" yMin="-12" xMax="646" yMax="857">
      <contour>
        <pt x="183" y="213" on="0"/>
        <pt x="265" y="75" on="0"/>
        <pt x="411" y="75" on="0"/>
        <pt x="490" y="186" on="0"/>
        <pt x="490" y="420" on="0"/>
        <pt x="406" y="557" on="0"/>
        <pt x="259" y="557" on="0"/>
        <pt x="183" y="446" on="0"/>
      </contour>
      <contour>
        <pt x="646" y="182" on="0"/>
        <pt x="464" y="-12" on="0"/>
        <pt x="182" y="-12" on="0"/>
        <pt x="28" y="158" on="0"/>
        <pt x="28" y="462" on="0"/>
        <pt x="208" y="654" on="0"/>
        <pt x="492" y="654" on="0"/>
        <pt x="646" y="488" on="0"/>
      </contour>
      <contour>
        <pt x="402" y="794" on="1"/>
        <pt x="401" y="782" on="1"/>
        <pt x="317" y="736" on="0"/>
        <pt x="233" y="684" on="1"/>
        <pt x="219" y="689" on="1"/>
        <pt x="196" y="723" on="1"/>
        <pt x="347" y="857" on="1"/>
        <pt x="359" y="856" on="1"/>
      </contour>
      <contour>
        <pt x="570" y="790" on="1"/>
        <pt x="569" y="778" on="1"/>
        <pt x="484" y="732" on="0"/>
        <pt x="400" y="680" on="1"/>
        <pt x="388" y="684" on="1"/>
        <pt x="364" y="718" on="1"/>
        <pt x="515" y="852" on="1"/>
        <pt x="527" y="850" on="1"/>
      </contour>
    </TTGlyph>
    <TTGlyph name="Omacron" xMin="28" yMin="-12" xMax="646" yMax="800">
      <contour>
        <pt x="183" y="213" on="0"/>
        <pt x="265" y="75" on="0"/>
        <pt x="411" y="75" on="0"/>
        <pt x="490" y="186" on="0"/>
        <pt x="490" y="420" on="0"/>
        <pt x="406" y="557" on="0"/>
        <pt x="259" y="557" on="0"/>
        <pt x="183" y="446" on="0"/>
      </contour>
      <contour>
        <pt x="646" y="182" on="0"/>
        <pt x="464" y="-12" on="0"/>
        <pt x="182" y="-12" on="0"/>
        <pt x="28" y="158" on="0"/>
        <pt x="28" y="462" on="0"/>
        <pt x="208" y="654" on="0"/>
        <pt x="492" y="654" on="0"/>
        <pt x="646" y="488" on="0"/>
      </contour>
      <contour>
        <pt x="479" y="800" on="1"/>
        <pt x="487" y="786" on="1"/>
        <pt x="475" y="709" on="1"/>
        <pt x="195" y="707" on="1"/>
        <pt x="184" y="719" on="1"/>
        <pt x="198" y="795" on="1"/>
        <pt x="293" y="794" on="0"/>
        <pt x="352" y="794" on="1"/>
      </contour>
    </TTGlyph>
    <TTGlyph name="Omega" xMin="24" yMin="-5" xMax="831" yMax="654">
      <contour>
        <pt x="526" y="108" on="0"/>
        <pt x="580" y="231" on="0"/>
        <pt x="580" y="442" on="0"/>
        <pt x="503" y="557" on="0"/>
        <pt x="357" y="557" on="0"/>
        <pt x="273" y="457" on="0"/>
        <pt x="273" y="365" on="1"/>
        <pt x="273" y="149" on="0"/>
        <pt x="394" y="48" on="1"/>
        <pt x="378" y="-3" on="1"/>
        <pt x="322" y="6" on="1"/>
        <pt x="54" y="-5" on="1"/>
        <pt x="36" y="14" on="1"/>
        <pt x="36" y="86" on="0"/>
        <pt x="24" y="206" on="1"/>
        <pt x="94" y="213" on="1"/>
        <pt x="102" y="142" on="0"/>
        <pt x="142" y="85" on="0"/>
        <pt x="185" y="83" on="1"/>
        <pt x="258" y="79" on="1"/>
        <pt x="118" y="200" on="0"/>
        <pt x="118" y="360" on="1"/>
        <pt x="118" y="486" on="0"/>
        <pt x="300" y="654" on="0"/>
        <pt x="571" y="654" on="0"/>
        <pt x="737" y="503" on="0"/>
        <pt x="737" y="382" on="1"/>
        <pt x="737" y="198" on="0"/>
        <pt x="586" y="78" on="1"/>
        <pt x="669" y="83" on="1"/>
        <pt x="710" y="85" on="0"/>
        <pt x="750" y="139" on="0"/>
        <pt x="759" y="206" on="1"/>
        <pt x="831" y="213" on="1"/>
        <pt x="819" y="96" on="0"/>
        <pt x="819" y="14" on="1"/>
        <pt x="800" y="-5" on="1"/>
        <pt x="529" y="6" on="1"/>
        <pt x="473" y="-2" on="1"/>
        <pt x="456" y="47" on="1"/>
      </contour>
    </TTGlyph>
    <TTGlyph name="Oslash" xMin="28" yMin="-107" xMax="646" yMax="729">
      <contour>
        <pt x="132" y="47" on="1"/>
        <pt x="28" y="131" on="0"/>
        <pt x="28" y="462" on="0"/>
        <pt x="208" y="654" on="0"/>
        <pt x="356" y="654" on="1"/>
        <pt x="422" y="654" on="0"/>
        <pt x="475" y="633" on="1"/>
        <pt x="534" y="729" on="1"/>
        <pt x="596" y="700" on="1"/>
        <pt x="599" y="687" on="1"/>
        <pt x="542" y="596" on="1"/>
        <pt x="646" y="514" on="0"/>
        <pt x="646" y="182" on="0"/>
        <pt x="464" y="-12" on="0"/>
        <pt x="315" y="-12" on="1"/>
        <pt x="253" y="-12" on="0"/>
        <pt x="196" y="9" on="1"/>
        <pt x="126" y="-107" on="1"/>
        <pt x="66" y="-78" on="1"/>
        <pt x="63" y="-68" on="1"/>
      </contour>
      <contour>
        <pt x="340" y="75" on="1"/>
        <pt x="411" y="75" on="0"/>
        <pt x="490" y="186" on="0"/>
        <pt x="490" y="395" on="0"/>
        <pt x="461" y="462" on="1"/>
        <pt x="254" y="107" on="1"/>
        <pt x="289" y="75" on="0"/>
      </contour>
      <contour>
        <pt x="259" y="557" on="0"/>
        <pt x="183" y="446" on="0"/>
        <pt x="183" y="241" on="0"/>
        <pt x="209" y="175" on="1"/>
        <pt x="413" y="528" on="1"/>
        <pt x="378" y="557" on="0"/>
        <pt x="328" y="557" on="1"/>
      </contour>
    </TTGlyph>
    <TTGlyph name="Oslashacute" xMin="28" yMin="-107" xMax="646" yMax="863">
      <contour>
        <pt x="132" y="47" on="1"/>
        <pt x="28" y="131" on="0"/>
        <pt x="28" y="462" on="0"/>
        <pt x="208" y="654" on="0"/>
        <pt x="356" y="654" on="1"/>
        <pt x="422" y="654" on="0"/>
        <pt x="475" y="633" on="1"/>
        <pt x="534" y="729" on="1"/>
        <pt x="596" y="700" on="1"/>
        <pt x="599" y="687" on="1"/>
        <pt x="542" y="596" on="1"/>
        <pt x="646" y="514" on="0"/>
        <pt x="646" y="182" on="0"/>
        <pt x="464" y="-12" on="0"/>
        <pt x="315" y="-12" on="1"/>
        <pt x="253" y="-12" on="0"/>
        <pt x="196" y="9" on="1"/>
        <pt x="126" y="-107" on="1"/>
        <pt x="66" y="-78" on="1"/>
        <pt x="63" y="-68" on="1"/>
      </contour>
      <contour>
        <pt x="340" y="75" on="1"/>
        <pt x="411" y="75" on="0"/>
        <pt x="490" y="186" on="0"/>
        <pt x="490" y="395" on="0"/>
        <pt x="461" y="462" on="1"/>
        <pt x="254" y="107" on="1"/>
        <pt x="289" y="75" on="0"/>
      </contour>
      <contour>
        <pt x="259" y="557" on="0"/>
        <pt x="183" y="446" on="0"/>
        <pt x="183" y="241" on="0"/>
        <pt x="209" y="175" on="1"/>
        <pt x="413" y="528" on="1"/>
        <pt x="378" y="557" on="0"/>
        <pt x="328" y="557" on="1"/>
      </contour>
      <contour>
        <pt x="488" y="781" on="1"/>
        <pt x="482" y="768" on="1"/>
        <pt x="367" y="739" on="0"/>
        <pt x="253" y="703" on="1"/>
        <pt x="240" y="712" on="1"/>
        <pt x="227" y="759" on="1"/>
        <pt x="450" y="863" on="1"/>
        <pt x="462" y="858" on="1"/>
      </contour>
    </TTGlyph>
    <TTGlyph name="Otilde" xMin="28" yMin="-12" xMax="646" yMax="853">
      <contour>
        <pt x="183" y="213" on="0"/>
        <pt x="265" y="75" on="0"/>
        <pt x="411" y="75" on="0"/>
        <pt x="490" y="186" on="0"/>
        <pt x="490" y="420" on="0"/>
        <pt x="406" y="557" on="0"/>
        <pt x="259" y="557" on="0"/>
        <pt x="183" y="446" on="0"/>
      </contour>
      <contour>
        <pt x="646" y="182" on="0"/>
        <pt x="464" y="-12" on="0"/>
        <pt x="182" y="-12" on="0"/>
        <pt x="28" y="158" on="0"/>
        <pt x="28" y="462" on="0"/>
        <pt x="208" y="654" on="0"/>
        <pt x="492" y="654" on="0"/>
        <pt x="646" y="488" on="0"/>
      </contour>
      <contour>
        <pt x="267" y="835" on="0"/>
        <pt x="385" y="801" on="0"/>
        <pt x="398" y="801" on="1"/>
        <pt x="420" y="801" on="0"/>
        <pt x="453" y="840" on="1"/>
        <pt x="464" y="853" on="1"/>
        <pt x="475" y="853" on="1"/>
        <pt x="515" y="816" on="1"/>
        <pt x="515" y="806" on="1"/>
        <pt x="436" y="709" on="1"/>
        <pt x="420" y="705" on="1"/>
        <pt x="402" y="705" on="0"/>
        <pt x="284" y="739" on="0"/>
        <pt x="272" y="739" on="1"/>
        <pt x="249" y="739" on="0"/>
        <pt x="216" y="700" on="1"/>
        <pt x="205" y="687" on="1"/>
        <pt x="194" y="687" on="1"/>
        <pt x="155" y="724" on="1"/>
        <pt x="155" y="735" on="1"/>
        <pt x="233" y="831" on="1"/>
        <pt x="250" y="835" on="1"/>
      </contour>
    </TTGlyph>
    <TTGlyph name="P" xMin="39" yMin="-8" xMax="573" yMax="647">
      <contour>
        <pt x="53" y="643" on="1"/>
        <pt x="179" y="642" on="1"/>
        <pt x="331" y="647" on="1"/>
        <pt x="517" y="647" on="0"/>
        <pt x="561" y="526" on="1"/>
        <pt x="573" y="493" on="0"/>
        <pt x="573" y="454" on="1"/>
        <pt x="573" y="364" on="0"/>
        <pt x="429" y="227" on="0"/>
        <pt x="334" y="227" on="1"/>
        <pt x="249" y="227" on="1"/>
        <pt x="248" y="153" on="1"/>
        <pt x="248" y="97" on="0"/>
        <pt x="264" y="65" on="0"/>
        <pt x="294" y="65" on="1"/>
        <pt x="338" y="68" on="1"/>
        <pt x="342" y="62" on="1"/>
        <pt x="332" y="-3" on="1"/>
        <pt x="244" y="0" on="0"/>
        <pt x="183" y="0" on="0"/>
        <pt x="142" y="-2" on="1"/>
        <pt x="40" y="-7" on="0"/>
        <pt x="39" y="-8" on="1"/>
        <pt x="47" y="60" on="1"/>
        <pt x="88" y="67" on="0"/>
        <pt x="116" y="101" on="0"/>
        <pt x="116" y="143" on="1"/>
        <pt x="117" y="523" on="1"/>
        <pt x="117" y="555" on="0"/>
        <pt x="104" y="577" on="0"/>
        <pt x="85" y="577" on="1"/>
        <pt x="50" y="575" on="1"/>
        <pt x="45" y="583" on="1"/>
      </contour>
      <contour>
        <pt x="430" y="440" on="1"/>
        <pt x="430" y="503" on="0"/>
        <pt x="360" y="561" on="0"/>
        <pt x="283" y="561" on="1"/>
        <pt x="269" y="561" on="0"/>
        <pt x="266" y="558" on="1"/>
        <pt x="258" y="553" on="0"/>
        <pt x="251" y="316" on="1"/>
        <pt x="339" y="304" on="1"/>
        <pt x="430" y="323" on="0"/>
      </contour>
    </TTGlyph>
    <TTGlyph name="Q" xMin="28" yMin="-228" xMax="816" yMax="654">
      <contour>
        <pt x="182" y="-12" on="0"/>
        <pt x="28" y="158" on="0"/>
        <pt x="28" y="462" on="0"/>
        <pt x="208" y="654" on="0"/>
        <pt x="492" y="654" on="0"/>
        <pt x="646" y="488" on="0"/>
        <pt x="646" y="341" on="1"/>
        <pt x="646" y="227" on="0"/>
        <pt x="536" y="52" on="0"/>
        <pt x="444" y="15" on="1"/>
        <pt x="444" y="6" on="1"/>
        <pt x="605" y="-106" on="0"/>
        <pt x="712" y="-106" on="1"/>
        <pt x="753" y="-106" on="0"/>
        <pt x="797" y="-96" on="1"/>
        <pt x="805" y="-103" on="1"/>
        <pt x="816" y="-145" on="1"/>
        <pt x="710" y="-228" on="0"/>
        <pt x="682" y="-228" on="1"/>
        <pt x="615" y="-228" on="0"/>
        <pt x="481" y="-149" on="0"/>
        <pt x="315" y="-12" on="1"/>
      </contour>
      <contour>
        <pt x="183" y="213" on="0"/>
        <pt x="265" y="75" on="0"/>
        <pt x="411" y="75" on="0"/>
        <pt x="490" y="186" on="0"/>
        <pt x="490" y="420" on="0"/>
        <pt x="406" y="557" on="0"/>
        <pt x="259" y="557" on="0"/>
        <pt x="183" y="446" on="0"/>
      </contour>
    </TTGlyph>
    <TTGlyph name="R" xMin="36" yMin="-16" xMax="640" yMax="647">
      <contour>
        <pt x="569" y="475" on="1"/>
        <pt x="569" y="354" on="0"/>
        <pt x="435" y="284" on="1"/>
        <pt x="522" y="144" on="1"/>
        <pt x="550" y="98" on="0"/>
        <pt x="602" y="57" on="0"/>
        <pt x="633" y="57" on="1"/>
        <pt x="640" y="48" on="1"/>
        <pt x="633" y="-5" on="1"/>
        <pt x="514" y="-16" on="1"/>
        <pt x="448" y="-16" on="0"/>
        <pt x="405" y="77" on="1"/>
        <pt x="319" y="251" on="1"/>
        <pt x="249" y="251" on="1"/>
        <pt x="248" y="141" on="1"/>
        <pt x="248" y="91" on="0"/>
        <pt x="271" y="65" on="0"/>
        <pt x="319" y="64" on="1"/>
        <pt x="323" y="58" on="1"/>
        <pt x="313" y="-4" on="1"/>
        <pt x="313" y="-1" on="0"/>
        <pt x="179" y="-1" on="1"/>
        <pt x="36" y="-6" on="1"/>
        <pt x="45" y="61" on="1"/>
        <pt x="87" y="67" on="0"/>
        <pt x="116" y="100" on="0"/>
        <pt x="116" y="143" on="1"/>
        <pt x="117" y="528" on="1"/>
        <pt x="117" y="557" on="0"/>
        <pt x="104" y="577" on="0"/>
        <pt x="85" y="577" on="1"/>
        <pt x="50" y="575" on="1"/>
        <pt x="45" y="583" on="1"/>
        <pt x="53" y="644" on="1"/>
        <pt x="140" y="642" on="0"/>
        <pt x="179" y="642" on="1"/>
        <pt x="332" y="647" on="1"/>
        <pt x="447" y="647" on="0"/>
        <pt x="569" y="558" on="0"/>
      </contour>
      <contour>
        <pt x="427" y="456" on="1"/>
        <pt x="427" y="564" on="0"/>
        <pt x="278" y="564" on="1"/>
        <pt x="268" y="564" on="0"/>
        <pt x="264" y="560" on="1"/>
        <pt x="256" y="551" on="0"/>
        <pt x="252" y="341" on="1"/>
        <pt x="342" y="331" on="1"/>
        <pt x="427" y="367" on="0"/>
      </contour>
    </TTGlyph>
    <TTGlyph name="Racute" xMin="36" yMin="-16" xMax="640" yMax="857">
      <contour>
        <pt x="569" y="475" on="1"/>
        <pt x="569" y="354" on="0"/>
        <pt x="435" y="284" on="1"/>
        <pt x="522" y="144" on="1"/>
        <pt x="550" y="98" on="0"/>
        <pt x="602" y="57" on="0"/>
        <pt x="633" y="57" on="1"/>
        <pt x="640" y="48" on="1"/>
        <pt x="633" y="-5" on="1"/>
        <pt x="514" y="-16" on="1"/>
        <pt x="448" y="-16" on="0"/>
        <pt x="405" y="77" on="1"/>
        <pt x="319" y="251" on="1"/>
        <pt x="249" y="251" on="1"/>
        <pt x="248" y="141" on="1"/>
        <pt x="248" y="91" on="0"/>
        <pt x="271" y="65" on="0"/>
        <pt x="319" y="64" on="1"/>
        <pt x="323" y="58" on="1"/>
        <pt x="313" y="-4" on="1"/>
        <pt x="313" y="-1" on="0"/>
        <pt x="179" y="-1" on="1"/>
        <pt x="36" y="-6" on="1"/>
        <pt x="45" y="61" on="1"/>
        <pt x="87" y="67" on="0"/>
        <pt x="116" y="100" on="0"/>
        <pt x="116" y="143" on="1"/>
        <pt x="117" y="528" on="1"/>
        <pt x="117" y="557" on="0"/>
        <pt x="104" y="577" on="0"/>
        <pt x="85" y="577" on="1"/>
        <pt x="50" y="575" on="1"/>
        <pt x="45" y="583" on="1"/>
        <pt x="53" y="644" on="1"/>
        <pt x="140" y="642" on="0"/>
        <pt x="179" y="642" on="1"/>
        <pt x="332" y="647" on="1"/>
        <pt x="447" y="647" on="0"/>
        <pt x="569" y="558" on="0"/>
      </contour>
      <contour>
        <pt x="427" y="456" on="1"/>
        <pt x="427" y="564" on="0"/>
        <pt x="278" y="564" on="1"/>
        <pt x="268" y="564" on="0"/>
        <pt x="264" y="560" on="1"/>
        <pt x="256" y="551" on="0"/>
        <pt x="252" y="341" on="1"/>
        <pt x="342" y="331" on="1"/>
        <pt x="427" y="367" on="0"/>
      </contour>
      <contour>
        <pt x="497" y="775" on="1"/>
        <pt x="491" y="762" on="1"/>
        <pt x="376" y="733" on="0"/>
        <pt x="262" y="697" on="1"/>
        <pt x="249" y="706" on="1"/>
        <pt x="236" y="753" on="1"/>
        <pt x="459" y="857" on="1"/>
        <pt x="471" y="852" on="1"/>
      </contour>
    </TTGlyph>
    <TTGlyph name="Rcaron" xMin="36" yMin="-16" xMax="640" yMax="865">
      <contour>
        <pt x="569" y="475" on="1"/>
        <pt x="569" y="354" on="0"/>
        <pt x="435" y="284" on="1"/>
        <pt x="522" y="144" on="1"/>
        <pt x="550" y="98" on="0"/>
        <pt x="602" y="57" on="0"/>
        <pt x="633" y="57" on="1"/>
        <pt x="640" y="48" on="1"/>
        <pt x="633" y="-5" on="1"/>
        <pt x="514" y="-16" on="1"/>
        <pt x="448" y="-16" on="0"/>
        <pt x="405" y="77" on="1"/>
        <pt x="319" y="251" on="1"/>
        <pt x="249" y="251" on="1"/>
        <pt x="248" y="141" on="1"/>
        <pt x="248" y="91" on="0"/>
        <pt x="271" y="65" on="0"/>
        <pt x="319" y="64" on="1"/>
        <pt x="323" y="58" on="1"/>
        <pt x="313" y="-4" on="1"/>
        <pt x="313" y="-1" on="0"/>
        <pt x="179" y="-1" on="1"/>
        <pt x="36" y="-6" on="1"/>
        <pt x="45" y="61" on="1"/>
        <pt x="87" y="67" on="0"/>
        <pt x="116" y="100" on="0"/>
        <pt x="116" y="143" on="1"/>
        <pt x="117" y="528" on="1"/>
        <pt x="117" y="557" on="0"/>
        <pt x="104" y="577" on="0"/>
        <pt x="85" y="577" on="1"/>
        <pt x="50" y="575" on="1"/>
        <pt x="45" y="583" on="1"/>
        <pt x="53" y="644" on="1"/>
        <pt x="140" y="642" on="0"/>
        <pt x="179" y="642" on="1"/>
        <pt x="332" y="647" on="1"/>
        <pt x="447" y="647" on="0"/>
        <pt x="569" y="558" on="0"/>
      </contour>
      <contour>
        <pt x="427" y="456" on="1"/>
        <pt x="427" y="564" on="0"/>
        <pt x="278" y="564" on="1"/>
        <pt x="268" y="564" on="0"/>
        <pt x="264" y="560" on="1"/>
        <pt x="256" y="551" on="0"/>
        <pt x="252" y="341" on="1"/>
        <pt x="342" y="331" on="1"/>
        <pt x="427" y="367" on="0"/>
      </contour>
      <contour>
        <pt x="465" y="861" on="1"/>
        <pt x="490" y="820" on="1"/>
        <pt x="417" y="767" on="0"/>
        <pt x="333" y="696" on="1"/>
        <pt x="313" y="696" on="1"/>
        <pt x="230" y="766" on="0"/>
        <pt x="156" y="820" on="1"/>
        <pt x="180" y="861" on="1"/>
        <pt x="196" y="865" on="1"/>
        <pt x="246" y="840" on="0"/>
        <pt x="323" y="807" on="1"/>
        <pt x="371" y="827" on="0"/>
        <pt x="449" y="865" on="1"/>
      </contour>
    </TTGlyph>
    <TTGlyph name="Rcommaaccent" xMin="36" yMin="-318" xMax="640" yMax="647">
      <contour>
        <pt x="569" y="475" on="1"/>
        <pt x="569" y="354" on="0"/>
        <pt x="435" y="284" on="1"/>
        <pt x="522" y="144" on="1"/>
        <pt x="550" y="98" on="0"/>
        <pt x="602" y="57" on="0"/>
        <pt x="633" y="57" on="1"/>
        <pt x="640" y="48" on="1"/>
        <pt x="633" y="-5" on="1"/>
        <pt x="514" y="-16" on="1"/>
        <pt x="448" y="-16" on="0"/>
        <pt x="405" y="77" on="1"/>
        <pt x="319" y="251" on="1"/>
        <pt x="249" y="251" on="1"/>
        <pt x="248" y="141" on="1"/>
        <pt x="248" y="91" on="0"/>
        <pt x="271" y="65" on="0"/>
        <pt x="319" y="64" on="1"/>
        <pt x="323" y="58" on="1"/>
        <pt x="313" y="-4" on="1"/>
        <pt x="313" y="-1" on="0"/>
        <pt x="179" y="-1" on="1"/>
        <pt x="36" y="-6" on="1"/>
        <pt x="45" y="61" on="1"/>
        <pt x="87" y="67" on="0"/>
        <pt x="116" y="100" on="0"/>
        <pt x="116" y="143" on="1"/>
        <pt x="117" y="528" on="1"/>
        <pt x="117" y="557" on="0"/>
        <pt x="104" y="577" on="0"/>
        <pt x="85" y="577" on="1"/>
        <pt x="50" y="575" on="1"/>
        <pt x="45" y="583" on="1"/>
        <pt x="53" y="644" on="1"/>
        <pt x="140" y="642" on="0"/>
        <pt x="179" y="642" on="1"/>
        <pt x="332" y="647" on="1"/>
        <pt x="447" y="647" on="0"/>
        <pt x="569" y="558" on="0"/>
      </contour>
      <contour>
        <pt x="427" y="456" on="1"/>
        <pt x="427" y="564" on="0"/>
        <pt x="278" y="564" on="1"/>
        <pt x="268" y="564" on="0"/>
        <pt x="264" y="560" on="1"/>
        <pt x="256" y="551" on="0"/>
        <pt x="252" y="341" on="1"/>
        <pt x="342" y="331" on="1"/>
        <pt x="427" y="367" on="0"/>
      </contour>
      <contour>
        <pt x="260" y="-86" on="1"/>
        <pt x="304" y="-51" on="0"/>
        <pt x="369" y="-51" on="0"/>
        <pt x="408" y="-98" on="0"/>
        <pt x="408" y="-187" on="0"/>
        <pt x="325" y="-283" on="0"/>
        <pt x="261" y="-318" on="1"/>
        <pt x="224" y="-288" on="1"/>
        <pt x="224" y="-271" on="1"/>
        <pt x="254" y="-250" on="0"/>
        <pt x="292" y="-194" on="0"/>
        <pt x="292" y="-169" on="1"/>
        <pt x="292" y="-128" on="0"/>
        <pt x="257" y="-100" on="1"/>
      </contour>
    </TTGlyph>
    <TTGlyph name="S" xMin="36" yMin="-12" xMax="499" yMax="654">
      <contour>
        <pt x="220" y="-12" on="1"/>
        <pt x="173" y="-12" on="0"/>
        <pt x="85" y="7" on="0"/>
        <pt x="44" y="26" on="1"/>
        <pt x="36" y="40" on="1"/>
        <pt x="51" y="128" on="0"/>
        <pt x="52" y="210" on="1"/>
        <pt x="136" y="217" on="1"/>
        <pt x="136" y="135" on="0"/>
        <pt x="182" y="77" on="0"/>
        <pt x="293" y="77" on="0"/>
        <pt x="350" y="119" on="0"/>
        <pt x="350" y="154" on="1"/>
        <pt x="350" y="179" on="0"/>
        <pt x="323" y="206" on="0"/>
        <pt x="309" y="219" on="0"/>
        <pt x="273" y="239" on="0"/>
        <pt x="257" y="247" on="0"/>
        <pt x="233" y="258" on="1"/>
        <pt x="131" y="308" on="0"/>
        <pt x="44" y="390" on="0"/>
        <pt x="44" y="454" on="1"/>
        <pt x="44" y="542" on="0"/>
        <pt x="194" y="654" on="0"/>
        <pt x="311" y="654" on="1"/>
        <pt x="396" y="654" on="0"/>
        <pt x="462" y="634" on="1"/>
        <pt x="483" y="627" on="1"/>
        <pt x="490" y="614" on="1"/>
        <pt x="473" y="533" on="0"/>
        <pt x="466" y="442" on="1"/>
        <pt x="390" y="436" on="1"/>
        <pt x="381" y="443" on="1"/>
        <pt x="382" y="459" on="0"/>
        <pt x="382" y="478" on="1"/>
        <pt x="382" y="522" on="0"/>
        <pt x="337" y="559" on="0"/>
        <pt x="244" y="559" on="0"/>
        <pt x="190" y="519" on="0"/>
        <pt x="190" y="488" on="1"/>
        <pt x="190" y="440" on="0"/>
        <pt x="270" y="400" on="1"/>
        <pt x="287" y="392" on="0"/>
        <pt x="363" y="356" on="0"/>
        <pt x="409" y="330" on="0"/>
        <pt x="440" y="306" on="1"/>
        <pt x="499" y="261" on="0"/>
        <pt x="499" y="190" on="1"/>
        <pt x="499" y="98" on="0"/>
        <pt x="347" y="-12" on="0"/>
      </contour>
    </TTGlyph>
    <TTGlyph name="Sacute" xMin="68" yMin="-12" xMax="531" yMax="857">
      <contour>
        <pt x="252" y="-12" on="1"/>
        <pt x="205" y="-12" on="0"/>
        <pt x="117" y="7" on="0"/>
        <pt x="76" y="26" on="1"/>
        <pt x="68" y="40" on="1"/>
        <pt x="83" y="128" on="0"/>
        <pt x="84" y="210" on="1"/>
        <pt x="168" y="217" on="1"/>
        <pt x="168" y="135" on="0"/>
        <pt x="214" y="77" on="0"/>
        <pt x="325" y="77" on="0"/>
        <pt x="382" y="119" on="0"/>
        <pt x="382" y="154" on="1"/>
        <pt x="382" y="179" on="0"/>
        <pt x="355" y="206" on="0"/>
        <pt x="341" y="219" on="0"/>
        <pt x="305" y="239" on="0"/>
        <pt x="289" y="247" on="0"/>
        <pt x="265" y="258" on="1"/>
        <pt x="163" y="308" on="0"/>
        <pt x="76" y="390" on="0"/>
        <pt x="76" y="454" on="1"/>
        <pt x="76" y="542" on="0"/>
        <pt x="226" y="654" on="0"/>
        <pt x="343" y="654" on="1"/>
        <pt x="428" y="654" on="0"/>
        <pt x="494" y="634" on="1"/>
        <pt x="515" y="627" on="1"/>
        <pt x="522" y="614" on="1"/>
        <pt x="505" y="533" on="0"/>
        <pt x="498" y="442" on="1"/>
        <pt x="422" y="436" on="1"/>
        <pt x="413" y="443" on="1"/>
        <pt x="414" y="459" on="0"/>
        <pt x="414" y="478" on="1"/>
        <pt x="414" y="522" on="0"/>
        <pt x="369" y="559" on="0"/>
        <pt x="276" y="559" on="0"/>
        <pt x="222" y="519" on="0"/>
        <pt x="222" y="488" on="1"/>
        <pt x="222" y="440" on="0"/>
        <pt x="302" y="400" on="1"/>
        <pt x="319" y="392" on="0"/>
        <pt x="395" y="356" on="0"/>
        <pt x="441" y="330" on="0"/>
        <pt x="472" y="306" on="1"/>
        <pt x="531" y="261" on="0"/>
        <pt x="531" y="190" on="1"/>
        <pt x="531" y="98" on="0"/>
        <pt x="379" y="-12" on="0"/>
      </contour>
      <contour>
        <pt x="448" y="775" on="1"/>
        <pt x="442" y="762" on="1"/>
        <pt x="327" y="733" on="0"/>
        <pt x="213" y="697" on="1"/>
        <pt x="200" y="706" on="1"/>
        <pt x="187" y="753" on="1"/>
        <pt x="410" y="857" on="1"/>
        <pt x="422" y="852" on="1"/>
      </contour>
    </TTGlyph>
    <TTGlyph name="Scaron" xMin="68" yMin="-12" xMax="531" yMax="865">
      <contour>
        <pt x="252" y="-12" on="1"/>
        <pt x="205" y="-12" on="0"/>
        <pt x="117" y="7" on="0"/>
        <pt x="76" y="26" on="1"/>
        <pt x="68" y="40" on="1"/>
        <pt x="83" y="128" on="0"/>
        <pt x="84" y="210" on="1"/>
        <pt x="168" y="217" on="1"/>
        <pt x="168" y="135" on="0"/>
        <pt x="214" y="77" on="0"/>
        <pt x="325" y="77" on="0"/>
        <pt x="382" y="119" on="0"/>
        <pt x="382" y="154" on="1"/>
        <pt x="382" y="179" on="0"/>
        <pt x="355" y="206" on="0"/>
        <pt x="341" y="219" on="0"/>
        <pt x="305" y="239" on="0"/>
        <pt x="289" y="247" on="0"/>
        <pt x="265" y="258" on="1"/>
        <pt x="163" y="308" on="0"/>
        <pt x="76" y="390" on="0"/>
        <pt x="76" y="454" on="1"/>
        <pt x="76" y="542" on="0"/>
        <pt x="226" y="654" on="0"/>
        <pt x="343" y="654" on="1"/>
        <pt x="428" y="654" on="0"/>
        <pt x="494" y="634" on="1"/>
        <pt x="515" y="627" on="1"/>
        <pt x="522" y="614" on="1"/>
        <pt x="505" y="533" on="0"/>
        <pt x="498" y="442" on="1"/>
        <pt x="422" y="436" on="1"/>
        <pt x="413" y="443" on="1"/>
        <pt x="414" y="459" on="0"/>
        <pt x="414" y="478" on="1"/>
        <pt x="414" y="522" on="0"/>
        <pt x="369" y="559" on="0"/>
        <pt x="276" y="559" on="0"/>
        <pt x="222" y="519" on="0"/>
        <pt x="222" y="488" on="1"/>
        <pt x="222" y="440" on="0"/>
        <pt x="302" y="400" on="1"/>
        <pt x="319" y="392" on="0"/>
        <pt x="395" y="356" on="0"/>
        <pt x="441" y="330" on="0"/>
        <pt x="472" y="306" on="1"/>
        <pt x="531" y="261" on="0"/>
        <pt x="531" y="190" on="1"/>
        <pt x="531" y="98" on="0"/>
        <pt x="379" y="-12" on="0"/>
      </contour>
      <contour>
        <pt x="416" y="861" on="1"/>
        <pt x="441" y="820" on="1"/>
        <pt x="368" y="767" on="0"/>
        <pt x="284" y="696" on="1"/>
        <pt x="264" y="696" on="1"/>
        <pt x="181" y="766" on="0"/>
        <pt x="107" y="820" on="1"/>
        <pt x="131" y="861" on="1"/>
        <pt x="147" y="865" on="1"/>
        <pt x="197" y="840" on="0"/>
        <pt x="274" y="807" on="1"/>
        <pt x="322" y="827" on="0"/>
        <pt x="400" y="865" on="1"/>
      </contour>
    </TTGlyph>
    <TTGlyph name="Scedilla" xMin="68" yMin="-237" xMax="531" yMax="654">
      <contour>
        <pt x="168" y="135" on="0"/>
        <pt x="214" y="77" on="0"/>
        <pt x="325" y="77" on="0"/>
        <pt x="382" y="119" on="0"/>
        <pt x="382" y="154" on="1"/>
        <pt x="382" y="179" on="0"/>
        <pt x="355" y="206" on="0"/>
        <pt x="341" y="219" on="0"/>
        <pt x="305" y="239" on="0"/>
        <pt x="289" y="247" on="0"/>
        <pt x="265" y="258" on="1"/>
        <pt x="163" y="308" on="0"/>
        <pt x="76" y="390" on="0"/>
        <pt x="76" y="454" on="1"/>
        <pt x="76" y="542" on="0"/>
        <pt x="226" y="654" on="0"/>
        <pt x="343" y="654" on="1"/>
        <pt x="428" y="654" on="0"/>
        <pt x="494" y="634" on="1"/>
        <pt x="515" y="627" on="1"/>
        <pt x="522" y="614" on="1"/>
        <pt x="505" y="533" on="0"/>
        <pt x="498" y="442" on="1"/>
        <pt x="422" y="436" on="1"/>
        <pt x="413" y="443" on="1"/>
        <pt x="414" y="459" on="0"/>
        <pt x="414" y="478" on="1"/>
        <pt x="414" y="522" on="0"/>
        <pt x="369" y="559" on="0"/>
        <pt x="276" y="559" on="0"/>
        <pt x="222" y="519" on="0"/>
        <pt x="222" y="488" on="1"/>
        <pt x="222" y="440" on="0"/>
        <pt x="302" y="400" on="1"/>
        <pt x="319" y="392" on="0"/>
        <pt x="395" y="356" on="0"/>
        <pt x="441" y="330" on="0"/>
        <pt x="472" y="306" on="1"/>
        <pt x="531" y="261" on="0"/>
        <pt x="531" y="190" on="1"/>
        <pt x="531" y="103" on="0"/>
        <pt x="391" y="-6" on="0"/>
        <pt x="274" y="-11" on="1"/>
        <pt x="265" y="-44" on="1"/>
        <pt x="292" y="-60" on="0"/>
        <pt x="325" y="-81" on="0"/>
        <pt x="361" y="-122" on="0"/>
        <pt x="361" y="-141" on="1"/>
        <pt x="361" y="-180" on="0"/>
        <pt x="280" y="-237" on="0"/>
        <pt x="228" y="-237" on="1"/>
        <pt x="200" y="-237" on="0"/>
        <pt x="150" y="-213" on="0"/>
        <pt x="150" y="-175" on="0"/>
        <pt x="187" y="-131" on="1"/>
        <pt x="196" y="-131" on="1"/>
        <pt x="197" y="-158" on="0"/>
        <pt x="225" y="-187" on="0"/>
        <pt x="265" y="-187" on="0"/>
        <pt x="288" y="-170" on="0"/>
        <pt x="288" y="-157" on="1"/>
        <pt x="288" y="-131" on="0"/>
        <pt x="202" y="-86" on="1"/>
        <pt x="223" y="-11" on="1"/>
        <pt x="183" y="-8" on="0"/>
        <pt x="110" y="10" on="0"/>
        <pt x="76" y="26" on="1"/>
        <pt x="68" y="40" on="1"/>
        <pt x="83" y="128" on="0"/>
        <pt x="84" y="210" on="1"/>
        <pt x="168" y="217" on="1"/>
      </contour>
    </TTGlyph>
    <TTGlyph name="Scircumflex" xMin="36" yMin="-12" xMax="499" yMax="904">
      <contour>
        <pt x="160" y="709" on="1"/>
        <pt x="131" y="750" on="1"/>
        <pt x="195" y="810" on="0"/>
        <pt x="283" y="904" on="1"/>
        <pt x="303" y="904" on="1"/>
        <pt x="383" y="818" on="0"/>
        <pt x="454" y="750" on="1"/>
        <pt x="425" y="709" on="1"/>
        <pt x="410" y="705" on="1"/>
        <pt x="390" y="721" on="0"/>
        <pt x="293" y="788" on="1"/>
        <pt x="222" y="742" on="0"/>
        <pt x="176" y="705" on="1"/>
      </contour>
      <contour>
        <pt x="220" y="-12" on="1"/>
        <pt x="173" y="-12" on="0"/>
        <pt x="85" y="7" on="0"/>
        <pt x="44" y="26" on="1"/>
        <pt x="36" y="40" on="1"/>
        <pt x="51" y="128" on="0"/>
        <pt x="52" y="210" on="1"/>
        <pt x="136" y="217" on="1"/>
        <pt x="136" y="135" on="0"/>
        <pt x="182" y="77" on="0"/>
        <pt x="293" y="77" on="0"/>
        <pt x="350" y="119" on="0"/>
        <pt x="350" y="154" on="1"/>
        <pt x="350" y="179" on="0"/>
        <pt x="323" y="206" on="0"/>
        <pt x="309" y="219" on="0"/>
        <pt x="273" y="239" on="0"/>
        <pt x="257" y="247" on="0"/>
        <pt x="233" y="258" on="1"/>
        <pt x="131" y="308" on="0"/>
        <pt x="44" y="390" on="0"/>
        <pt x="44" y="454" on="1"/>
        <pt x="44" y="542" on="0"/>
        <pt x="194" y="654" on="0"/>
        <pt x="311" y="654" on="1"/>
        <pt x="396" y="654" on="0"/>
        <pt x="462" y="634" on="1"/>
        <pt x="483" y="627" on="1"/>
        <pt x="490" y="614" on="1"/>
        <pt x="473" y="533" on="0"/>
        <pt x="466" y="442" on="1"/>
        <pt x="390" y="436" on="1"/>
        <pt x="381" y="443" on="1"/>
        <pt x="382" y="459" on="0"/>
        <pt x="382" y="478" on="1"/>
        <pt x="382" y="522" on="0"/>
        <pt x="337" y="559" on="0"/>
        <pt x="244" y="559" on="0"/>
        <pt x="190" y="519" on="0"/>
        <pt x="190" y="488" on="1"/>
        <pt x="190" y="440" on="0"/>
        <pt x="270" y="400" on="1"/>
        <pt x="287" y="392" on="0"/>
        <pt x="363" y="356" on="0"/>
        <pt x="409" y="330" on="0"/>
        <pt x="440" y="306" on="1"/>
        <pt x="499" y="261" on="0"/>
        <pt x="499" y="190" on="1"/>
        <pt x="499" y="98" on="0"/>
        <pt x="347" y="-12" on="0"/>
      </contour>
    </TTGlyph>
    <TTGlyph name="Scommaaccent" xMin="68" yMin="-318" xMax="531" yMax="654">
      <contour>
        <pt x="252" y="-12" on="1"/>
        <pt x="205" y="-12" on="0"/>
        <pt x="117" y="7" on="0"/>
        <pt x="76" y="26" on="1"/>
        <pt x="68" y="40" on="1"/>
        <pt x="83" y="128" on="0"/>
        <pt x="84" y="210" on="1"/>
        <pt x="168" y="217" on="1"/>
        <pt x="168" y="135" on="0"/>
        <pt x="214" y="77" on="0"/>
        <pt x="325" y="77" on="0"/>
        <pt x="382" y="119" on="0"/>
        <pt x="382" y="154" on="1"/>
        <pt x="382" y="179" on="0"/>
        <pt x="355" y="206" on="0"/>
        <pt x="341" y="219" on="0"/>
        <pt x="305" y="239" on="0"/>
        <pt x="289" y="247" on="0"/>
        <pt x="265" y="258" on="1"/>
        <pt x="163" y="308" on="0"/>
        <pt x="76" y="390" on="0"/>
        <pt x="76" y="454" on="1"/>
        <pt x="76" y="542" on="0"/>
        <pt x="226" y="654" on="0"/>
        <pt x="343" y="654" on="1"/>
        <pt x="428" y="654" on="0"/>
        <pt x="494" y="634" on="1"/>
        <pt x="515" y="627" on="1"/>
        <pt x="522" y="614" on="1"/>
        <pt x="505" y="533" on="0"/>
        <pt x="498" y="442" on="1"/>
        <pt x="422" y="436" on="1"/>
        <pt x="413" y="443" on="1"/>
        <pt x="414" y="459" on="0"/>
        <pt x="414" y="478" on="1"/>
        <pt x="414" y="522" on="0"/>
        <pt x="369" y="559" on="0"/>
        <pt x="276" y="559" on="0"/>
        <pt x="222" y="519" on="0"/>
        <pt x="222" y="488" on="1"/>
        <pt x="222" y="440" on="0"/>
        <pt x="302" y="400" on="1"/>
        <pt x="319" y="392" on="0"/>
        <pt x="395" y="356" on="0"/>
        <pt x="441" y="330" on="0"/>
        <pt x="472" y="306" on="1"/>
        <pt x="531" y="261" on="0"/>
        <pt x="531" y="190" on="1"/>
        <pt x="531" y="98" on="0"/>
        <pt x="379" y="-12" on="0"/>
      </contour>
      <contour>
        <pt x="179" y="-86" on="1"/>
        <pt x="223" y="-51" on="0"/>
        <pt x="288" y="-51" on="0"/>
        <pt x="327" y="-98" on="0"/>
        <pt x="327" y="-187" on="0"/>
        <pt x="244" y="-283" on="0"/>
        <pt x="180" y="-318" on="1"/>
        <pt x="143" y="-288" on="1"/>
        <pt x="143" y="-271" on="1"/>
        <pt x="173" y="-250" on="0"/>
        <pt x="211" y="-194" on="0"/>
        <pt x="211" y="-169" on="1"/>
        <pt x="211" y="-128" on="0"/>
        <pt x="176" y="-100" on="1"/>
      </contour>
    </TTGlyph>
    <TTGlyph name="T" xMin="5" yMin="-6" xMax="563" yMax="653">
      <contour>
        <pt x="216" y="165" on="1"/>
        <pt x="216" y="563" on="1"/>
        <pt x="173" y="562" on="0"/>
        <pt x="131" y="555" on="0"/>
        <pt x="103" y="522" on="0"/>
        <pt x="95" y="481" on="0"/>
        <pt x="89" y="433" on="1"/>
        <pt x="5" y="427" on="1"/>
        <pt x="14" y="544" on="0"/>
        <pt x="16" y="642" on="1"/>
        <pt x="27" y="653" on="1"/>
        <pt x="128" y="642" on="1"/>
        <pt x="439" y="642" on="1"/>
        <pt x="542" y="653" on="1"/>
        <pt x="553" y="642" on="1"/>
        <pt x="563" y="433" on="1"/>
        <pt x="479" y="427" on="1"/>
        <pt x="468" y="520" on="0"/>
        <pt x="433" y="561" on="0"/>
        <pt x="358" y="563" on="1"/>
        <pt x="347" y="400" on="0"/>
        <pt x="347" y="135" on="1"/>
        <pt x="347" y="98" on="0"/>
        <pt x="372" y="67" on="0"/>
        <pt x="402" y="67" on="1"/>
        <pt x="455" y="70" on="1"/>
        <pt x="459" y="65" on="1"/>
        <pt x="450" y="-4" on="1"/>
        <pt x="328" y="0" on="0"/>
        <pt x="276" y="0" on="1"/>
        <pt x="108" y="-6" on="1"/>
        <pt x="116" y="60" on="1"/>
        <pt x="182" y="66" on="0"/>
        <pt x="216" y="101" on="0"/>
      </contour>
    </TTGlyph>
    <TTGlyph name="Tbar" xMin="5" yMin="-6" xMax="563" yMax="653">
      <contour>
        <pt x="216" y="165" on="1"/>
        <pt x="216" y="276" on="1"/>
        <pt x="130" y="275" on="1"/>
        <pt x="120" y="285" on="1"/>
        <pt x="128" y="333" on="1"/>
        <pt x="170" y="332" on="0"/>
        <pt x="216" y="332" on="1"/>
        <pt x="216" y="563" on="1"/>
        <pt x="173" y="562" on="0"/>
        <pt x="131" y="555" on="0"/>
        <pt x="103" y="522" on="0"/>
        <pt x="95" y="481" on="0"/>
        <pt x="89" y="433" on="1"/>
        <pt x="5" y="427" on="1"/>
        <pt x="14" y="544" on="0"/>
        <pt x="16" y="642" on="1"/>
        <pt x="27" y="653" on="1"/>
        <pt x="128" y="642" on="1"/>
        <pt x="439" y="642" on="1"/>
        <pt x="542" y="653" on="1"/>
        <pt x="553" y="642" on="1"/>
        <pt x="563" y="433" on="1"/>
        <pt x="479" y="427" on="1"/>
        <pt x="468" y="520" on="0"/>
        <pt x="433" y="561" on="0"/>
        <pt x="358" y="563" on="1"/>
        <pt x="352" y="491" on="0"/>
        <pt x="349" y="333" on="1"/>
        <pt x="423" y="337" on="1"/>
        <pt x="437" y="323" on="1"/>
        <pt x="433" y="277" on="1"/>
        <pt x="348" y="276" on="1"/>
        <pt x="347" y="228" on="0"/>
        <pt x="347" y="135" on="1"/>
        <pt x="347" y="98" on="0"/>
        <pt x="372" y="67" on="0"/>
        <pt x="402" y="67" on="1"/>
        <pt x="455" y="70" on="1"/>
        <pt x="459" y="65" on="1"/>
        <pt x="450" y="-4" on="1"/>
        <pt x="328" y="0" on="0"/>
        <pt x="276" y="0" on="1"/>
        <pt x="108" y="-6" on="1"/>
        <pt x="116" y="60" on="1"/>
        <pt x="182" y="66" on="0"/>
        <pt x="216" y="101" on="0"/>
      </contour>
    </TTGlyph>
    <TTGlyph name="Tcaron" xMin="5" yMin="-6" xMax="563" yMax="865">
      <contour>
        <pt x="216" y="165" on="1"/>
        <pt x="216" y="563" on="1"/>
        <pt x="173" y="562" on="0"/>
        <pt x="131" y="555" on="0"/>
        <pt x="103" y="522" on="0"/>
        <pt x="95" y="481" on="0"/>
        <pt x="89" y="433" on="1"/>
        <pt x="5" y="427" on="1"/>
        <pt x="14" y="544" on="0"/>
        <pt x="16" y="642" on="1"/>
        <pt x="27" y="653" on="1"/>
        <pt x="128" y="642" on="1"/>
        <pt x="439" y="642" on="1"/>
        <pt x="542" y="653" on="1"/>
        <pt x="553" y="642" on="1"/>
        <pt x="563" y="433" on="1"/>
        <pt x="479" y="427" on="1"/>
        <pt x="468" y="520" on="0"/>
        <pt x="433" y="561" on="0"/>
        <pt x="358" y="563" on="1"/>
        <pt x="347" y="400" on="0"/>
        <pt x="347" y="135" on="1"/>
        <pt x="347" y="98" on="0"/>
        <pt x="372" y="67" on="0"/>
        <pt x="402" y="67" on="1"/>
        <pt x="455" y="70" on="1"/>
        <pt x="459" y="65" on="1"/>
        <pt x="450" y="-4" on="1"/>
        <pt x="328" y="0" on="0"/>
        <pt x="276" y="0" on="1"/>
        <pt x="108" y="-6" on="1"/>
        <pt x="116" y="60" on="1"/>
        <pt x="182" y="66" on="0"/>
        <pt x="216" y="101" on="0"/>
      </contour>
      <contour>
        <pt x="430" y="861" on="1"/>
        <pt x="455" y="820" on="1"/>
        <pt x="382" y="767" on="0"/>
        <pt x="298" y="696" on="1"/>
        <pt x="278" y="696" on="1"/>
        <pt x="195" y="766" on="0"/>
        <pt x="121" y="820" on="1"/>
        <pt x="145" y="861" on="1"/>
        <pt x="161" y="865" on="1"/>
        <pt x="211" y="840" on="0"/>
        <pt x="288" y="807" on="1"/>
        <pt x="336" y="827" on="0"/>
        <pt x="414" y="865" on="1"/>
      </contour>
    </TTGlyph>
    <TTGlyph name="Tcedilla" xMin="5" yMin="-237" xMax="563" yMax="653">
      <contour>
        <pt x="216" y="165" on="1"/>
        <pt x="216" y="563" on="1"/>
        <pt x="173" y="562" on="0"/>
        <pt x="131" y="555" on="0"/>
        <pt x="103" y="522" on="0"/>
        <pt x="95" y="481" on="0"/>
        <pt x="89" y="433" on="1"/>
        <pt x="5" y="427" on="1"/>
        <pt x="14" y="544" on="0"/>
        <pt x="16" y="642" on="1"/>
        <pt x="27" y="653" on="1"/>
        <pt x="128" y="642" on="1"/>
        <pt x="439" y="642" on="1"/>
        <pt x="542" y="653" on="1"/>
        <pt x="553" y="642" on="1"/>
        <pt x="563" y="433" on="1"/>
        <pt x="479" y="427" on="1"/>
        <pt x="468" y="520" on="0"/>
        <pt x="433" y="561" on="0"/>
        <pt x="358" y="563" on="1"/>
        <pt x="347" y="400" on="0"/>
        <pt x="347" y="135" on="1"/>
        <pt x="347" y="98" on="0"/>
        <pt x="372" y="67" on="0"/>
        <pt x="402" y="67" on="1"/>
        <pt x="455" y="70" on="1"/>
        <pt x="459" y="65" on="1"/>
        <pt x="450" y="-4" on="1"/>
        <pt x="366" y="-1" on="0"/>
        <pt x="307" y="0" on="1"/>
        <pt x="295" y="-44" on="1"/>
        <pt x="322" y="-60" on="0"/>
        <pt x="355" y="-81" on="0"/>
        <pt x="391" y="-122" on="0"/>
        <pt x="391" y="-141" on="1"/>
        <pt x="391" y="-180" on="0"/>
        <pt x="310" y="-237" on="0"/>
        <pt x="258" y="-237" on="1"/>
        <pt x="230" y="-237" on="0"/>
        <pt x="180" y="-213" on="0"/>
        <pt x="180" y="-175" on="0"/>
        <pt x="217" y="-131" on="1"/>
        <pt x="226" y="-131" on="1"/>
        <pt x="227" y="-158" on="0"/>
        <pt x="255" y="-187" on="0"/>
        <pt x="295" y="-187" on="0"/>
        <pt x="318" y="-170" on="0"/>
        <pt x="318" y="-157" on="1"/>
        <pt x="318" y="-131" on="0"/>
        <pt x="232" y="-86" on="1"/>
        <pt x="256" y="0" on="1"/>
        <pt x="108" y="-6" on="1"/>
        <pt x="116" y="60" on="1"/>
        <pt x="182" y="66" on="0"/>
        <pt x="216" y="101" on="0"/>
      </contour>
    </TTGlyph>
</ttFont>
